<svg width="225" height="141" viewBox="0 0 225 141" fill="none" xmlns="http://www.w3.org/2000/svg">
<g clip-path="url(#clip0_11255_2016)">
<g filter="url(#filter0_d_11255_2016)">
<path d="M3.94727 29.3093C3.94727 15.3098 15.258 3.96094 29.2104 3.96094H195.789C209.742 3.96094 221.053 15.3098 221.053 29.3093V111.691C221.053 125.691 209.742 137.04 195.789 137.04H29.2104C15.258 137.04 3.94727 125.691 3.94727 111.691V29.3093Z" fill="#82E6AC"/>
<path d="M32.3696 38.8144V29.2138H28.7854V27.0908H38.3854V29.2138H34.8012V38.8144H32.3696ZM42.5852 38.9729C41.6484 38.9729 40.8536 38.7722 40.201 38.3708C39.5484 37.9589 39.0483 37.4256 38.701 36.7707C38.3642 36.1053 38.1957 35.3871 38.1957 34.6161C38.1957 33.8451 38.3642 33.1322 38.701 32.4774C39.0483 31.812 39.5484 31.2786 40.201 30.8772C40.8536 30.4653 41.6484 30.2594 42.5852 30.2594C43.522 30.2594 44.3168 30.4653 44.9694 30.8772C45.622 31.2786 46.1168 31.812 46.4536 32.4774C46.801 33.1322 46.9746 33.8451 46.9746 34.6161C46.9746 35.3871 46.801 36.1053 46.4536 36.7707C46.1168 37.4256 45.622 37.9589 44.9694 38.3708C44.3168 38.7722 43.522 38.9729 42.5852 38.9729ZM42.5852 37.0084C43.0063 37.0084 43.3588 36.8975 43.6431 36.6757C43.9378 36.4539 44.1641 36.1634 44.322 35.8043C44.4799 35.4346 44.5588 35.0386 44.5588 34.6161C44.5588 34.1831 44.4799 33.787 44.322 33.4279C44.1641 33.0688 43.9378 32.7784 43.6431 32.5566C43.3588 32.3348 43.0063 32.2239 42.5852 32.2239C42.1641 32.2239 41.8063 32.3348 41.5115 32.5566C41.2168 32.7784 40.9904 33.0688 40.8325 33.4279C40.6852 33.787 40.6115 34.1831 40.6115 34.6161C40.6115 35.0386 40.6852 35.4346 40.8325 35.8043C40.9904 36.1634 41.2168 36.4539 41.5115 36.6757C41.8063 36.8975 42.1641 37.0084 42.5852 37.0084ZM52.4447 38.9729C51.7921 38.9729 51.271 38.8778 50.8816 38.6877C50.4921 38.4871 50.1973 38.2388 49.9974 37.9431C49.7973 37.6368 49.6658 37.3147 49.6026 36.9767C49.5395 36.6387 49.5079 36.3271 49.5079 36.042V32.3348H48.0868V30.4178H49.5079V28.3424H51.9079V30.4178H53.6921V32.3348H51.9079V35.9786C51.9079 36.3271 51.9973 36.5965 52.1763 36.7866C52.3658 36.9767 52.6763 37.0717 53.1079 37.0717C53.2974 37.0717 53.4711 37.0559 53.629 37.0242C53.7868 36.9925 53.8658 36.9767 53.8658 36.9767V38.8303C53.8658 38.8303 53.7237 38.8514 53.4395 38.8937C53.1553 38.9465 52.8237 38.9729 52.4447 38.9729ZM58.9131 30.2594C59.45 30.2594 59.8921 30.3491 60.2394 30.5287C60.5868 30.6977 60.8499 30.8826 61.0289 31.0832C61.2184 31.2839 61.3341 31.4212 61.3763 31.4951H61.5026V30.4178H63.9026V38.8144H61.5026V37.7371H61.3763C61.3341 37.811 61.2184 37.9484 61.0289 38.149C60.8499 38.3497 60.5868 38.5398 60.2394 38.7194C59.8921 38.8883 59.45 38.9729 58.9131 38.9729C58.2921 38.9729 57.7499 38.8514 57.2868 38.6085C56.8341 38.355 56.4552 38.0223 56.15 37.6104C55.8447 37.188 55.6131 36.7179 55.4552 36.2004C55.3078 35.6829 55.2342 35.1548 55.2342 34.6161C55.2342 34.0775 55.3078 33.5494 55.4552 33.0319C55.6131 32.5144 55.8447 32.0496 56.15 31.6377C56.4552 31.2153 56.8341 30.8826 57.2868 30.6396C57.7499 30.3861 58.2921 30.2594 58.9131 30.2594ZM59.6079 32.208C59.1763 32.208 58.8131 32.3295 58.5184 32.5724C58.2342 32.8048 58.0183 33.1058 57.871 33.4755C57.7341 33.8451 57.6658 34.2254 57.6658 34.6161C57.6658 35.0069 57.7341 35.3871 57.871 35.7568C58.0183 36.1265 58.2342 36.4327 58.5184 36.6757C58.8131 36.908 59.1763 37.0242 59.6079 37.0242C60.0394 37.0242 60.3973 36.908 60.6816 36.6757C60.9763 36.4327 61.192 36.1265 61.3289 35.7568C61.4762 35.3871 61.55 35.0069 61.55 34.6161C61.55 34.2254 61.4762 33.8451 61.3289 33.4755C61.192 33.1058 60.9763 32.8048 60.6816 32.5724C60.3973 32.3295 60.0394 32.208 59.6079 32.208ZM65.9415 38.8144V26.774H68.3415V38.8144H65.9415ZM79.4818 38.9729C78.5134 38.9729 77.6661 38.8039 76.9397 38.4659C76.2239 38.1174 75.6239 37.6579 75.1397 37.0876C74.6556 36.5067 74.2924 35.8572 74.0503 35.1389C73.8081 34.4207 73.6871 33.6867 73.6871 32.9368C73.6871 32.1975 73.8081 31.4687 74.0503 30.7505C74.2924 30.0323 74.6556 29.388 75.1397 28.8177C75.6239 28.2368 76.2239 27.7774 76.9397 27.4394C77.6661 27.1014 78.5134 26.9324 79.4818 26.9324C80.2926 26.9324 80.9818 27.038 81.5502 27.2493C82.1289 27.4499 82.6081 27.714 82.987 28.0414C83.3762 28.3583 83.6873 28.7015 83.9186 29.0712C84.161 29.4303 84.3394 29.7736 84.4554 30.101C84.5715 30.4178 84.6449 30.6818 84.6765 30.8931C84.7183 31.0937 84.7397 31.1941 84.7397 31.1941H82.3239C82.3239 31.1941 82.3026 31.1254 82.2607 30.9881C82.2291 30.8403 82.1604 30.666 82.0554 30.4653C81.9504 30.2541 81.7926 30.0481 81.5818 29.8475C81.382 29.6468 81.1081 29.4778 80.7607 29.3405C80.4236 29.1926 80.0028 29.1187 79.4976 29.1187C78.7713 29.1187 78.1608 29.3088 77.6661 29.689C77.1819 30.0587 76.8134 30.534 76.5608 31.1149C76.3187 31.6958 76.1976 32.3031 76.1976 32.9368C76.1976 33.5705 76.3187 34.1831 76.5608 34.7746C76.8134 35.3554 77.1819 35.836 77.6661 36.2162C78.1608 36.5859 78.7713 36.7707 79.4976 36.7707C80.0028 36.7707 80.4236 36.7021 80.7607 36.5648C81.1081 36.4275 81.382 36.2585 81.5818 36.0578C81.7926 35.8465 81.9504 35.6406 82.0554 35.4399C82.1604 35.2287 82.2291 35.0544 82.2607 34.9171C82.3026 34.7799 82.3239 34.7112 82.3239 34.7112H84.7397C84.7397 34.7112 84.7183 34.8168 84.6765 35.028C84.6449 35.2287 84.5715 35.4928 84.4554 35.8202C84.3394 36.137 84.161 36.4803 83.9186 36.8499C83.6873 37.209 83.3762 37.5523 82.987 37.8797C82.6081 38.1966 82.1289 38.4606 81.5502 38.6719C80.9818 38.8725 80.2926 38.9729 79.4818 38.9729ZM91.9128 38.9729C90.9441 38.9729 90.0915 38.8039 89.3549 38.4659C88.6176 38.1174 87.997 37.6579 87.4918 37.0876C86.9968 36.5067 86.6233 35.8572 86.3707 35.1389C86.1283 34.4207 86.0076 33.6867 86.0076 32.9368C86.0076 32.1869 86.1283 31.4581 86.3707 30.7505C86.6233 30.0323 86.9968 29.388 87.4918 28.8177C87.997 28.2474 88.6176 27.7932 89.3549 27.4552C90.0915 27.1067 90.9441 26.9324 91.9128 26.9324C92.8918 26.9324 93.7491 27.1067 94.4865 27.4552C95.2231 27.7932 95.8389 28.2474 96.3339 28.8177C96.8281 29.388 97.1968 30.0323 97.4391 30.7505C97.6918 31.4581 97.8181 32.1869 97.8181 32.9368C97.8181 33.6867 97.6918 34.4207 97.4391 35.1389C97.1968 35.8572 96.8281 36.5067 96.3339 37.0876C95.8389 37.6579 95.2231 38.1174 94.4865 38.4659C93.7491 38.8039 92.8918 38.9729 91.9128 38.9729ZM91.9128 36.7707C92.6494 36.7707 93.2707 36.5859 93.776 36.2162C94.2812 35.8465 94.6602 35.3713 94.9128 34.7904C95.1655 34.1989 95.2918 33.581 95.2918 32.9368C95.2918 32.2926 95.1655 31.6799 94.9128 31.099C94.6602 30.5182 94.2812 30.0429 93.776 29.6732C93.2707 29.3035 92.6494 29.1187 91.9128 29.1187C91.1754 29.1187 90.5549 29.3035 90.0497 29.6732C89.5547 30.0429 89.1812 30.5182 88.9286 31.099C88.676 31.6799 88.5497 32.2926 88.5497 32.9368C88.5497 33.581 88.676 34.1989 88.9286 34.7904C89.1812 35.3713 89.5547 35.8465 90.0497 36.2162C90.5549 36.5859 91.1754 36.7707 91.9128 36.7707ZM99.367 38.8144V37.1351L101.388 35.4083C102.23 34.7006 102.951 34.0986 103.551 33.6022C104.151 33.1058 104.609 32.6411 104.925 32.208C105.241 31.775 105.399 31.3103 105.399 30.8139C105.399 30.4337 105.309 30.1168 105.13 29.8633C104.951 29.5993 104.72 29.4039 104.435 29.2771C104.162 29.1399 103.873 29.0712 103.567 29.0712C103.198 29.0712 102.888 29.1399 102.635 29.2771C102.393 29.4144 102.199 29.594 102.051 29.8158C101.915 30.0271 101.814 30.2488 101.751 30.4812C101.688 30.7135 101.657 30.9142 101.657 31.0832H99.3197C99.3197 30.6396 99.4041 30.1802 99.5723 29.7049C99.7404 29.2191 99.9986 28.7702 100.346 28.3583C100.693 27.9358 101.141 27.5925 101.688 27.3285C102.235 27.0645 102.888 26.9324 103.646 26.9324C104.414 26.9324 105.114 27.0855 105.746 27.3919C106.378 27.6876 106.883 28.1153 107.262 28.6751C107.651 29.2349 107.846 29.895 107.846 30.6555C107.846 31.3737 107.667 32.0285 107.309 32.6199C106.962 33.2008 106.472 33.7712 105.841 34.331C105.209 34.8801 104.483 35.4769 103.662 36.1212L102.999 36.6757H108.004V38.8144H99.367ZM113.649 38.8144V27.0908H121.702V29.2138H116.081V31.8437H120.976V33.8874H116.081V36.6915H121.781V38.8144H113.649ZM123.622 38.8144V30.4178H126.022V31.5585H126.101C126.279 31.2522 126.548 30.9618 126.906 30.6871C127.264 30.402 127.753 30.2594 128.375 30.2594C129.006 30.2594 129.512 30.4073 129.89 30.703C130.28 30.9987 130.564 31.3631 130.743 31.7961H130.775C130.911 31.5532 131.09 31.3155 131.312 31.0832C131.543 30.8403 131.827 30.6449 132.164 30.497C132.512 30.3386 132.916 30.2594 133.38 30.2594C133.959 30.2594 134.438 30.3914 134.817 30.6555C135.196 30.9195 135.474 31.268 135.654 31.7011C135.843 32.1235 135.938 32.5777 135.938 33.0635V38.8144H133.538V33.6656C133.538 33.2537 133.432 32.9157 133.222 32.6516C133.022 32.377 132.717 32.2397 132.306 32.2397C131.99 32.2397 131.732 32.3189 131.533 32.4774C131.343 32.6358 131.201 32.8417 131.106 33.0952C131.022 33.3382 130.98 33.5917 130.98 33.8557V38.8144H128.58V33.6656C128.58 33.2537 128.474 32.9157 128.264 32.6516C128.064 32.377 127.759 32.2397 127.348 32.2397C127.033 32.2397 126.774 32.3189 126.575 32.4774C126.385 32.6358 126.243 32.8417 126.148 33.0952C126.064 33.3382 126.022 33.5917 126.022 33.8557V38.8144H123.622ZM139.198 29.2771C138.777 29.2771 138.435 29.1451 138.171 28.8811C137.908 28.6064 137.776 28.2844 137.776 27.9147C137.776 27.5239 137.908 27.1964 138.171 26.9324C138.435 26.6578 138.777 26.5205 139.198 26.5205C139.598 26.5205 139.935 26.6578 140.208 26.9324C140.482 27.1964 140.619 27.5239 140.619 27.9147C140.619 28.2844 140.482 28.6064 140.208 28.8811C139.935 29.1451 139.598 29.2771 139.198 29.2771ZM137.998 38.8144V30.4178H140.398V38.8144H137.998ZM145.97 38.9729C145.275 38.9729 144.702 38.8778 144.249 38.6877C143.796 38.4976 143.433 38.2653 143.159 37.9906C142.896 37.7055 142.697 37.4256 142.559 37.151C142.433 36.8658 142.349 36.6281 142.306 36.438C142.275 36.2479 142.259 36.1529 142.259 36.1529H144.485C144.485 36.1529 144.501 36.2057 144.533 36.3113C144.564 36.4169 144.633 36.5384 144.738 36.6757C144.854 36.813 145.018 36.9345 145.228 37.0401C145.438 37.1456 145.723 37.1985 146.08 37.1985C146.522 37.1985 146.822 37.1087 146.98 36.9292C147.149 36.7496 147.233 36.5701 147.233 36.3905C147.233 36.0103 146.923 35.7568 146.301 35.6301L145.164 35.4083C144.68 35.3132 144.223 35.1759 143.791 34.9964C143.37 34.8062 143.028 34.5474 142.764 34.2201C142.512 33.8821 142.385 33.4491 142.385 32.921C142.385 32.414 142.517 31.9599 142.78 31.5585C143.044 31.1571 143.417 30.8403 143.901 30.6079C144.396 30.3756 144.986 30.2594 145.67 30.2594C146.312 30.2594 146.844 30.3491 147.264 30.5287C147.696 30.6977 148.038 30.9142 148.291 31.1783C148.543 31.4317 148.733 31.6905 148.859 31.9546C148.985 32.208 149.064 32.4245 149.096 32.6041C149.139 32.7731 149.159 32.8576 149.159 32.8576H147.012C147.012 32.8576 146.98 32.7889 146.917 32.6516C146.854 32.5037 146.723 32.3612 146.522 32.2239C146.333 32.076 146.038 32.0021 145.638 32.0021C145.228 32.0021 144.943 32.0866 144.785 32.2556C144.628 32.414 144.549 32.583 144.549 32.7625C144.549 32.9738 144.639 33.1322 144.817 33.2378C145.006 33.3434 145.249 33.4279 145.543 33.4913L146.633 33.7131C147.433 33.8715 148.091 34.1514 148.607 34.5528C149.123 34.9435 149.38 35.5139 149.38 36.2638C149.38 36.7707 149.249 37.2302 148.985 37.6421C148.723 38.054 148.338 38.3814 147.833 38.6243C147.328 38.8567 146.707 38.9729 145.97 38.9729ZM154.358 38.9729C153.663 38.9729 153.09 38.8778 152.637 38.6877C152.184 38.4976 151.821 38.2653 151.547 37.9906C151.284 37.7055 151.085 37.4256 150.947 37.151C150.821 36.8658 150.737 36.6281 150.695 36.438C150.663 36.2479 150.647 36.1529 150.647 36.1529H152.874C152.874 36.1529 152.889 36.2057 152.921 36.3113C152.953 36.4169 153.021 36.5384 153.126 36.6757C153.242 36.813 153.406 36.9345 153.616 37.0401C153.827 37.1456 154.111 37.1985 154.468 37.1985C154.91 37.1985 155.21 37.1087 155.368 36.9292C155.537 36.7496 155.621 36.5701 155.621 36.3905C155.621 36.0103 155.311 35.7568 154.689 35.6301L153.553 35.4083C153.069 35.3132 152.611 35.1759 152.179 34.9964C151.758 34.8062 151.416 34.5474 151.153 34.2201C150.9 33.8821 150.774 33.4491 150.774 32.921C150.774 32.414 150.905 31.9599 151.168 31.5585C151.432 31.1571 151.805 30.8403 152.289 30.6079C152.784 30.3756 153.374 30.2594 154.058 30.2594C154.7 30.2594 155.232 30.3491 155.653 30.5287C156.084 30.6977 156.426 30.9142 156.679 31.1783C156.932 31.4317 157.121 31.6905 157.247 31.9546C157.374 32.208 157.453 32.4245 157.484 32.6041C157.527 32.7731 157.547 32.8576 157.547 32.8576H155.4C155.4 32.8576 155.368 32.7889 155.305 32.6516C155.242 32.5037 155.111 32.3612 154.91 32.2239C154.721 32.076 154.426 32.0021 154.026 32.0021C153.616 32.0021 153.332 32.0866 153.174 32.2556C153.016 32.414 152.937 32.583 152.937 32.7625C152.937 32.9738 153.027 33.1322 153.205 33.2378C153.395 33.3434 153.637 33.4279 153.932 33.4913L155.021 33.7131C155.822 33.8715 156.479 34.1514 156.995 34.5528C157.511 34.9435 157.768 35.5139 157.768 36.2638C157.768 36.7707 157.637 37.2302 157.374 37.6421C157.111 38.054 156.726 38.3814 156.221 38.6243C155.716 38.8567 155.095 38.9729 154.358 38.9729ZM160.739 29.2771C160.318 29.2771 159.976 29.1451 159.713 28.8811C159.449 28.6064 159.318 28.2844 159.318 27.9147C159.318 27.5239 159.449 27.1964 159.713 26.9324C159.976 26.6578 160.318 26.5205 160.739 26.5205C161.139 26.5205 161.476 26.6578 161.75 26.9324C162.023 27.1964 162.16 27.5239 162.16 27.9147C162.16 28.2844 162.023 28.6064 161.75 28.8811C161.476 29.1451 161.139 29.2771 160.739 29.2771ZM159.539 38.8144V30.4178H161.939V38.8144H159.539ZM168.269 38.9729C167.332 38.9729 166.537 38.7722 165.885 38.3708C165.232 37.9589 164.732 37.4256 164.385 36.7707C164.048 36.1053 163.88 35.3871 163.88 34.6161C163.88 33.8451 164.048 33.1322 164.385 32.4774C164.732 31.812 165.232 31.2786 165.885 30.8772C166.537 30.4653 167.332 30.2594 168.269 30.2594C169.205 30.2594 170 30.4653 170.653 30.8772C171.305 31.2786 171.8 31.812 172.138 32.4774C172.485 33.1322 172.659 33.8451 172.659 34.6161C172.659 35.3871 172.485 36.1053 172.138 36.7707C171.8 37.4256 171.305 37.9589 170.653 38.3708C170 38.7722 169.205 38.9729 168.269 38.9729ZM168.269 37.0084C168.69 37.0084 169.043 36.8975 169.327 36.6757C169.622 36.4539 169.848 36.1634 170.006 35.8043C170.164 35.4346 170.243 35.0386 170.243 34.6161C170.243 34.1831 170.164 33.787 170.006 33.4279C169.848 33.0688 169.622 32.7784 169.327 32.5566C169.043 32.3348 168.69 32.2239 168.269 32.2239C167.848 32.2239 167.49 32.3348 167.195 32.5566C166.9 32.7784 166.674 33.0688 166.517 33.4279C166.369 33.787 166.295 34.1831 166.295 34.6161C166.295 35.0386 166.369 35.4346 166.517 35.8043C166.674 36.1634 166.9 36.4539 167.195 36.6757C167.49 36.8975 167.848 37.0084 168.269 37.0084ZM174.29 38.8144V30.4178H176.69V31.6219H176.769C176.863 31.4529 177.001 31.2628 177.179 31.0515C177.369 30.8403 177.617 30.6555 177.921 30.497C178.237 30.3386 178.637 30.2594 179.121 30.2594C179.774 30.2594 180.305 30.4125 180.716 30.7188C181.126 31.0145 181.426 31.4001 181.616 31.8753C181.805 32.3401 181.9 32.8312 181.9 33.3487V38.8144H179.5V33.7606C179.5 33.3592 179.39 33.0055 179.169 32.6992C178.959 32.3928 178.616 32.2397 178.142 32.2397C177.785 32.2397 177.5 32.3242 177.29 32.4932C177.08 32.6622 176.926 32.8787 176.832 33.1428C176.737 33.4068 176.69 33.6867 176.69 33.9824V38.8144H174.29Z" fill="white"/>
<path d="M40.0308 76.4885V109.315H35.7866V83.8522L29.6414 83.8966V81.4124L30.7466 81.0576C32.3087 80.5545 33.5613 80.008 34.5045 79.4162C35.4771 78.8248 36.376 78.0116 37.2014 76.9765L37.5993 76.4885H40.0308ZM59.252 109.758C57.3362 109.758 55.5089 109.388 53.7699 108.649C52.0604 107.91 50.6605 106.786 49.5699 105.278C48.5088 103.74 47.9783 101.803 47.9783 99.4668H52.0899C52.0899 100.975 52.4289 102.217 53.1067 103.193C53.8141 104.169 54.7131 104.894 55.8036 105.367C56.9236 105.839 58.0731 106.076 59.252 106.076C60.5194 106.076 61.6836 105.839 62.7446 105.367C63.8057 104.864 64.6604 104.14 65.3088 103.193C65.9573 102.246 66.2815 101.108 66.2815 99.7773C66.2815 98.0322 65.7067 96.6571 64.5573 95.6518C63.4078 94.6165 61.8752 94.0993 59.9594 94.0993H55.5383V90.6836H59.9594C61.5509 90.6836 62.9068 90.2107 64.0267 89.2641C65.1762 88.3175 65.7509 87.031 65.7509 85.4048C65.7509 84.2221 65.4415 83.2161 64.8225 82.3883C64.2331 81.5305 63.4373 80.8651 62.4351 80.3922C61.4625 79.9193 60.4015 79.6824 59.252 79.6824C58.1615 79.6824 57.1004 79.9335 56.0688 80.4365C55.0668 80.9094 54.2415 81.6342 53.593 82.6101C52.9446 83.586 52.6204 84.8281 52.6204 86.3363H48.5972C48.5972 84.0296 49.1131 82.1222 50.1446 80.614C51.2057 79.0762 52.5468 77.9376 54.1678 77.1983C55.8183 76.4293 57.5425 76.0449 59.3404 76.0449C61.1678 76.0449 62.8773 76.4146 64.4688 77.1539C66.0899 77.8637 67.4015 78.8987 68.4036 80.2591C69.4057 81.5899 69.9067 83.1868 69.9067 85.0499C69.9067 86.8243 69.4646 88.3325 68.5804 89.5746C67.6962 90.7873 66.5763 91.6595 65.2204 92.1918V92.4136C66.7825 92.9459 68.0646 93.8482 69.0667 95.1195C70.0689 96.3909 70.5699 97.9878 70.5699 99.9104C70.5699 101.951 70.0394 103.71 68.9783 105.189C67.9172 106.668 66.532 107.806 64.8225 108.605C63.1131 109.374 61.2562 109.758 59.252 109.758ZM80.3913 109.758C79.5663 109.758 78.8736 109.477 78.3137 108.915C77.7831 108.324 77.5179 107.644 77.5179 106.875C77.5179 106.076 77.7831 105.396 78.3137 104.834C78.8736 104.273 79.5663 103.991 80.3913 103.991C81.2171 103.991 81.8945 104.273 82.425 104.834C82.9855 105.396 83.265 106.076 83.265 106.875C83.265 107.673 82.9855 108.354 82.425 108.915C81.8945 109.477 81.2171 109.758 80.3913 109.758ZM90.3008 109.315V106.254L97.4629 99.5998C99.4666 97.7367 101.221 96.1105 102.724 94.7203C104.256 93.3008 105.45 91.9256 106.305 90.5949C107.159 89.2641 107.587 87.8002 107.587 86.2033C107.587 84.8725 107.263 83.7484 106.614 82.8319C105.996 81.9154 105.185 81.2199 104.183 80.747C103.21 80.244 102.193 79.9929 101.132 79.9929C99.7469 79.9929 98.6124 80.2298 97.7282 80.7027C96.844 81.1756 96.1658 81.7673 95.6945 82.4771C95.2224 83.1575 94.8837 83.8522 94.6777 84.562C94.4708 85.2424 94.3532 85.8191 94.324 86.292C94.294 86.7649 94.2797 87.0017 94.2797 87.0017H90.124C90.124 87.0017 90.1382 86.7356 90.1682 86.2033C90.1974 85.6709 90.3008 84.9905 90.4776 84.1627C90.6837 83.3349 91.0082 82.462 91.4503 81.5455C91.8924 80.5989 92.5113 79.7117 93.3071 78.8839C94.1321 78.0559 95.1782 77.3757 96.4461 76.8434C97.7424 76.3111 99.3197 76.0449 101.177 76.0449C103.063 76.0449 104.816 76.4442 106.438 77.2426C108.088 78.0116 109.414 79.1501 110.417 80.6583C111.418 82.1372 111.92 83.956 111.92 86.1145C111.92 88.0957 111.418 89.9002 110.417 91.5264C109.444 93.1233 108.147 94.691 106.526 96.2285C104.904 97.7661 103.136 99.4224 101.221 101.197L96.7113 105.367H112.627V109.315H90.3008ZM132.614 109.315V101.685L116.61 101.64V97.6924L131.642 76.4885H136.947V97.9142H142.65V101.685H136.947V109.315H132.614ZM121.075 97.9142H132.614V81.5899L121.075 97.9142Z" fill="white"/>
<path d="M157.056 110.107V95.6582H159.936V103.985L163.252 100.031H166.53L162.589 104.632L166.7 110.107H163.309L159.936 105.582V110.107H157.056ZM172.622 114.137C171.687 114.137 170.917 114.023 170.311 113.795C169.717 113.567 169.243 113.275 168.89 112.92C168.536 112.578 168.277 112.236 168.113 111.894C167.949 111.552 167.841 111.26 167.791 111.019C167.753 110.791 167.734 110.677 167.734 110.677H170.538C170.538 110.677 170.557 110.734 170.595 110.848C170.645 110.975 170.74 111.114 170.879 111.266C171.018 111.431 171.22 111.571 171.485 111.685C171.763 111.811 172.13 111.875 172.584 111.875C173.367 111.875 173.942 111.653 174.309 111.209C174.687 110.766 174.877 110.183 174.877 109.46V108.396H174.744C174.618 108.599 174.429 108.82 174.176 109.061C173.923 109.302 173.601 109.505 173.21 109.669C172.818 109.834 172.344 109.917 171.789 109.917C171.043 109.917 170.393 109.777 169.837 109.498C169.281 109.207 168.814 108.82 168.435 108.339C168.069 107.857 167.791 107.318 167.601 106.723C167.424 106.127 167.336 105.512 167.336 104.879C167.336 104.258 167.424 103.649 167.601 103.054C167.791 102.445 168.069 101.9 168.435 101.419C168.814 100.937 169.281 100.557 169.837 100.278C170.393 99.9864 171.043 99.8407 171.789 99.8407C172.344 99.8407 172.818 99.9294 173.21 100.107C173.601 100.272 173.923 100.474 174.176 100.715C174.441 100.943 174.631 101.165 174.744 101.381H174.877V100.031H177.757V109.46C177.757 110.297 177.574 111.07 177.207 111.78C176.841 112.489 176.279 113.06 175.521 113.491C174.763 113.922 173.797 114.137 172.622 114.137ZM172.584 107.635C173.115 107.635 173.551 107.502 173.892 107.236C174.245 106.97 174.511 106.628 174.687 106.209C174.864 105.779 174.953 105.335 174.953 104.879C174.953 104.41 174.864 103.966 174.687 103.548C174.511 103.13 174.245 102.787 173.892 102.521C173.551 102.255 173.115 102.122 172.584 102.122C172.066 102.122 171.631 102.255 171.277 102.521C170.936 102.787 170.677 103.13 170.5 103.548C170.323 103.966 170.235 104.41 170.235 104.879C170.235 105.335 170.323 105.779 170.5 106.209C170.677 106.628 170.936 106.97 171.277 107.236C171.631 107.502 172.066 107.635 172.584 107.635Z" fill="white"/>
</g>
</g>
<defs>
<filter id="filter0_d_11255_2016" x="-1.05273" y="-1.03906" width="227.105" height="143.079" filterUnits="userSpaceOnUse" color-interpolation-filters="sRGB">
<feFlood flood-opacity="0" result="BackgroundImageFix"/>
<feColorMatrix in="SourceAlpha" type="matrix" values="0 0 0 0 0 0 0 0 0 0 0 0 0 0 0 0 0 0 127 0" result="hardAlpha"/>
<feOffset/>
<feGaussianBlur stdDeviation="2.5"/>
<feComposite in2="hardAlpha" operator="out"/>
<feColorMatrix type="matrix" values="0 0 0 0 0 0 0 0 0 0 0 0 0 0 0 0 0 0 0.25 0"/>
<feBlend mode="normal" in2="BackgroundImageFix" result="effect1_dropShadow_11255_2016"/>
<feBlend mode="normal" in="SourceGraphic" in2="effect1_dropShadow_11255_2016" result="shape"/>
</filter>
<clipPath id="clip0_11255_2016">
<rect width="225" height="141" fill="white"/>
</clipPath>
</defs>
</svg>
