<svg width="264" height="168" viewBox="0 0 264 168" fill="none" xmlns="http://www.w3.org/2000/svg">
<path d="M0 32C0 14.3269 14.3269 0 32 0H232C249.673 0 264 14.3269 264 32V136C264 153.673 249.673 168 232 168H32C14.3269 168 0 153.673 0 136V32Z" fill="#F89090"/>
<path d="M34.7741 42V29.88H30.2341V27.2H42.3941V29.88H37.8541V42H34.7741ZM47.7138 42.2C46.5271 42.2 45.5205 41.9467 44.6938 41.44C43.8671 40.92 43.2338 40.2467 42.7938 39.42C42.3671 38.58 42.1538 37.6733 42.1538 36.7C42.1538 35.7267 42.3671 34.8267 42.7938 34C43.2338 33.16 43.8671 32.4867 44.6938 31.98C45.5205 31.46 46.5271 31.2 47.7138 31.2C48.9005 31.2 49.9071 31.46 50.7338 31.98C51.5605 32.4867 52.1871 33.16 52.6138 34C53.0538 34.8267 53.2738 35.7267 53.2738 36.7C53.2738 37.6733 53.0538 38.58 52.6138 39.42C52.1871 40.2467 51.5605 40.92 50.7338 41.44C49.9071 41.9467 48.9005 42.2 47.7138 42.2ZM47.7138 39.72C48.2471 39.72 48.6938 39.58 49.0538 39.3C49.4271 39.02 49.7138 38.6533 49.9138 38.2C50.1138 37.7333 50.2138 37.2333 50.2138 36.7C50.2138 36.1533 50.1138 35.6533 49.9138 35.2C49.7138 34.7467 49.4271 34.38 49.0538 34.1C48.6938 33.82 48.2471 33.68 47.7138 33.68C47.1805 33.68 46.7271 33.82 46.3538 34.1C45.9805 34.38 45.6938 34.7467 45.4938 35.2C45.3071 35.6533 45.2138 36.1533 45.2138 36.7C45.2138 37.2333 45.3071 37.7333 45.4938 38.2C45.6938 38.6533 45.9805 39.02 46.3538 39.3C46.7271 39.58 47.1805 39.72 47.7138 39.72ZM60.2025 42.2C59.3759 42.2 58.7159 42.08 58.2225 41.84C57.7292 41.5867 57.3559 41.2733 57.1025 40.9C56.8492 40.5133 56.6825 40.1067 56.6025 39.68C56.5225 39.2533 56.4825 38.86 56.4825 38.5V33.82H54.6825V31.4H56.4825V28.78H59.5225V31.4H61.7825V33.82H59.5225V38.42C59.5225 38.86 59.6359 39.2 59.8625 39.44C60.1025 39.68 60.4959 39.8 61.0425 39.8C61.2825 39.8 61.5025 39.78 61.7025 39.74C61.9025 39.7 62.0025 39.68 62.0025 39.68V42.02C62.0025 42.02 61.8225 42.0467 61.4625 42.1C61.1025 42.1667 60.6825 42.2 60.2025 42.2ZM68.3958 31.2C69.0758 31.2 69.6358 31.3133 70.0758 31.54C70.5158 31.7533 70.8492 31.9867 71.0758 32.24C71.3158 32.4933 71.4625 32.6667 71.5158 32.76H71.6758V31.4H74.7158V42H71.6758V40.64H71.5158C71.4625 40.7333 71.3158 40.9067 71.0758 41.16C70.8492 41.4133 70.5158 41.6533 70.0758 41.88C69.6358 42.0933 69.0758 42.2 68.3958 42.2C67.6092 42.2 66.9225 42.0467 66.3358 41.74C65.7625 41.42 65.2825 41 64.8958 40.48C64.5092 39.9467 64.2158 39.3533 64.0158 38.7C63.8292 38.0467 63.7358 37.38 63.7358 36.7C63.7358 36.02 63.8292 35.3533 64.0158 34.7C64.2158 34.0467 64.5092 33.46 64.8958 32.94C65.2825 32.4067 65.7625 31.9867 66.3358 31.68C66.9225 31.36 67.6092 31.2 68.3958 31.2ZM69.2758 33.66C68.7292 33.66 68.2692 33.8133 67.8958 34.12C67.5358 34.4133 67.2625 34.7933 67.0758 35.26C66.9025 35.7267 66.8158 36.2067 66.8158 36.7C66.8158 37.1933 66.9025 37.6733 67.0758 38.14C67.2625 38.6067 67.5358 38.9933 67.8958 39.3C68.2692 39.5933 68.7292 39.74 69.2758 39.74C69.8225 39.74 70.2758 39.5933 70.6358 39.3C71.0092 38.9933 71.2825 38.6067 71.4558 38.14C71.6425 37.6733 71.7358 37.1933 71.7358 36.7C71.7358 36.2067 71.6425 35.7267 71.4558 35.26C71.2825 34.7933 71.0092 34.4133 70.6358 34.12C70.2758 33.8133 69.8225 33.66 69.2758 33.66ZM77.2985 42V26.8H80.3385V42H77.2985ZM94.4496 42.2C93.2229 42.2 92.1496 41.9867 91.2296 41.56C90.3229 41.12 89.5629 40.54 88.9496 39.82C88.3362 39.0867 87.8762 38.2667 87.5696 37.36C87.2629 36.4533 87.1096 35.5267 87.1096 34.58C87.1096 33.6467 87.2629 32.7267 87.5696 31.82C87.8762 30.9133 88.3362 30.1 88.9496 29.38C89.5629 28.6467 90.3229 28.0667 91.2296 27.64C92.1496 27.2133 93.2229 27 94.4496 27C95.4762 27 96.3496 27.1333 97.0696 27.4C97.8029 27.6533 98.4096 27.9867 98.8896 28.4C99.3829 28.8 99.7762 29.2333 100.07 29.7C100.376 30.1533 100.603 30.5867 100.75 31C100.896 31.4 100.99 31.7333 101.03 32C101.083 32.2533 101.11 32.38 101.11 32.38H98.0496C98.0496 32.38 98.0229 32.2933 97.9696 32.12C97.9296 31.9333 97.8429 31.7133 97.7096 31.46C97.5762 31.1933 97.3762 30.9333 97.1096 30.68C96.8562 30.4267 96.5096 30.2133 96.0696 30.04C95.6429 29.8533 95.1096 29.76 94.4696 29.76C93.5496 29.76 92.7762 30 92.1496 30.48C91.5362 30.9467 91.0696 31.5467 90.7496 32.28C90.4429 33.0133 90.2896 33.78 90.2896 34.58C90.2896 35.38 90.4429 36.1533 90.7496 36.9C91.0696 37.6333 91.5362 38.24 92.1496 38.72C92.7762 39.1867 93.5496 39.42 94.4696 39.42C95.1096 39.42 95.6429 39.3333 96.0696 39.16C96.5096 38.9867 96.8562 38.7733 97.1096 38.52C97.3762 38.2533 97.5762 37.9933 97.7096 37.74C97.8429 37.4733 97.9296 37.2533 97.9696 37.08C98.0229 36.9067 98.0496 36.82 98.0496 36.82H101.11C101.11 36.82 101.083 36.9533 101.03 37.22C100.99 37.4733 100.896 37.8067 100.75 38.22C100.603 38.62 100.376 39.0533 100.07 39.52C99.7762 39.9733 99.3829 40.4067 98.8896 40.82C98.4096 41.22 97.8029 41.5533 97.0696 41.82C96.3496 42.0733 95.4762 42.2 94.4496 42.2ZM103.275 42V27.2H109.375C110.588 27.2 111.595 27.44 112.395 27.92C113.208 28.4 113.815 29.02 114.215 29.78C114.628 30.5267 114.835 31.3067 114.835 32.12C114.835 32.96 114.628 33.76 114.215 34.52C113.815 35.2667 113.208 35.88 112.395 36.36C111.595 36.84 110.588 37.08 109.375 37.08H106.355V42H103.275ZM109.375 29.9H106.355V34.4H109.375C109.895 34.4 110.328 34.2933 110.675 34.08C111.022 33.8533 111.282 33.5733 111.455 33.24C111.642 32.8933 111.735 32.5267 111.735 32.14C111.735 31.7667 111.642 31.4067 111.455 31.06C111.282 30.7133 111.022 30.4333 110.675 30.22C110.328 30.0067 109.895 29.9 109.375 29.9ZM122.869 42.2C121.789 42.2 120.789 41.9933 119.869 41.58C118.963 41.1667 118.229 40.5267 117.669 39.66C117.123 38.7933 116.849 37.6667 116.849 36.28V27.2H119.929V36.28C119.929 37.1333 120.169 37.8533 120.649 38.44C121.129 39.0133 121.869 39.3 122.869 39.3C123.869 39.3 124.603 39.0133 125.069 38.44C125.549 37.8533 125.789 37.1333 125.789 36.28V27.2H128.889V36.28C128.889 37.6667 128.609 38.7933 128.049 39.66C127.503 40.5267 126.769 41.1667 125.849 41.58C124.929 41.9933 123.936 42.2 122.869 42.2ZM142.244 42.2C141.164 42.2 140.164 41.9933 139.244 41.58C138.338 41.1667 137.604 40.5267 137.044 39.66C136.498 38.7933 136.224 37.6667 136.224 36.28V27.2H139.304V36.28C139.304 37.1333 139.544 37.8533 140.024 38.44C140.504 39.0133 141.244 39.3 142.244 39.3C143.244 39.3 143.978 39.0133 144.444 38.44C144.924 37.8533 145.164 37.1333 145.164 36.28V27.2H148.264V36.28C148.264 37.6667 147.984 38.7933 147.424 39.66C146.878 40.5267 146.144 41.1667 145.224 41.58C144.304 41.9933 143.311 42.2 142.244 42.2ZM155.73 42.2C154.903 42.2 154.243 42.08 153.75 41.84C153.257 41.5867 152.883 41.2733 152.63 40.9C152.377 40.5133 152.21 40.1067 152.13 39.68C152.05 39.2533 152.01 38.86 152.01 38.5V33.82H150.21V31.4H152.01V28.78H155.05V31.4H157.31V33.82H155.05V38.42C155.05 38.86 155.163 39.2 155.39 39.44C155.63 39.68 156.023 39.8 156.57 39.8C156.81 39.8 157.03 39.78 157.23 39.74C157.43 39.7 157.53 39.68 157.53 39.68V42.02C157.53 42.02 157.35 42.0467 156.99 42.1C156.63 42.1667 156.21 42.2 155.73 42.2ZM161.359 29.96C160.826 29.96 160.393 29.7933 160.059 29.46C159.726 29.1133 159.559 28.7067 159.559 28.24C159.559 27.7467 159.726 27.3333 160.059 27C160.393 26.6533 160.826 26.48 161.359 26.48C161.866 26.48 162.293 26.6533 162.639 27C162.986 27.3333 163.159 27.7467 163.159 28.24C163.159 28.7067 162.986 29.1133 162.639 29.46C162.293 29.7933 161.866 29.96 161.359 29.96ZM159.839 42V31.4H162.879V42H159.839ZM165.677 42V26.8H168.717V42H165.677ZM173.039 29.96C172.506 29.96 172.072 29.7933 171.739 29.46C171.406 29.1133 171.239 28.7067 171.239 28.24C171.239 27.7467 171.406 27.3333 171.739 27C172.072 26.6533 172.506 26.48 173.039 26.48C173.546 26.48 173.972 26.6533 174.319 27C174.666 27.3333 174.839 27.7467 174.839 28.24C174.839 28.7067 174.666 29.1133 174.319 29.46C173.972 29.7933 173.546 29.96 173.039 29.96ZM171.519 42V31.4H174.559V42H171.519ZM176.877 42V39.92L182.197 33.78H177.077V31.4H185.837V33.48L180.517 39.62H185.837V42H176.877ZM192.029 31.2C192.709 31.2 193.269 31.3133 193.709 31.54C194.149 31.7533 194.482 31.9867 194.709 32.24C194.949 32.4933 195.095 32.6667 195.149 32.76H195.309V31.4H198.349V42H195.309V40.64H195.149C195.095 40.7333 194.949 40.9067 194.709 41.16C194.482 41.4133 194.149 41.6533 193.709 41.88C193.269 42.0933 192.709 42.2 192.029 42.2C191.242 42.2 190.555 42.0467 189.969 41.74C189.395 41.42 188.915 41 188.529 40.48C188.142 39.9467 187.849 39.3533 187.649 38.7C187.462 38.0467 187.369 37.38 187.369 36.7C187.369 36.02 187.462 35.3533 187.649 34.7C187.849 34.0467 188.142 33.46 188.529 32.94C188.915 32.4067 189.395 31.9867 189.969 31.68C190.555 31.36 191.242 31.2 192.029 31.2ZM192.909 33.66C192.362 33.66 191.902 33.8133 191.529 34.12C191.169 34.4133 190.895 34.7933 190.709 35.26C190.535 35.7267 190.449 36.2067 190.449 36.7C190.449 37.1933 190.535 37.6733 190.709 38.14C190.895 38.6067 191.169 38.9933 191.529 39.3C191.902 39.5933 192.362 39.74 192.909 39.74C193.455 39.74 193.909 39.5933 194.269 39.3C194.642 38.9933 194.915 38.6067 195.089 38.14C195.275 37.6733 195.369 37.1933 195.369 36.7C195.369 36.2067 195.275 35.7267 195.089 35.26C194.915 34.7933 194.642 34.4133 194.269 34.12C193.909 33.8133 193.455 33.66 192.909 33.66ZM205.456 42.2C204.63 42.2 203.97 42.08 203.476 41.84C202.983 41.5867 202.61 41.2733 202.356 40.9C202.103 40.5133 201.936 40.1067 201.856 39.68C201.776 39.2533 201.736 38.86 201.736 38.5V33.82H199.936V31.4H201.736V28.78H204.776V31.4H207.036V33.82H204.776V38.42C204.776 38.86 204.89 39.2 205.116 39.44C205.356 39.68 205.75 39.8 206.296 39.8C206.536 39.8 206.756 39.78 206.956 39.74C207.156 39.7 207.256 39.68 207.256 39.68V42.02C207.256 42.02 207.076 42.0467 206.716 42.1C206.356 42.1667 205.936 42.2 205.456 42.2ZM211.086 29.96C210.553 29.96 210.119 29.7933 209.786 29.46C209.453 29.1133 209.286 28.7067 209.286 28.24C209.286 27.7467 209.453 27.3333 209.786 27C210.119 26.6533 210.553 26.48 211.086 26.48C211.593 26.48 212.019 26.6533 212.366 27C212.713 27.3333 212.886 27.7467 212.886 28.24C212.886 28.7067 212.713 29.1133 212.366 29.46C212.019 29.7933 211.593 29.96 211.086 29.96ZM209.566 42V31.4H212.606V42H209.566ZM220.624 42.2C219.437 42.2 218.431 41.9467 217.604 41.44C216.777 40.92 216.144 40.2467 215.704 39.42C215.277 38.58 215.064 37.6733 215.064 36.7C215.064 35.7267 215.277 34.8267 215.704 34C216.144 33.16 216.777 32.4867 217.604 31.98C218.431 31.46 219.437 31.2 220.624 31.2C221.811 31.2 222.817 31.46 223.644 31.98C224.471 32.4867 225.097 33.16 225.524 34C225.964 34.8267 226.184 35.7267 226.184 36.7C226.184 37.6733 225.964 38.58 225.524 39.42C225.097 40.2467 224.471 40.92 223.644 41.44C222.817 41.9467 221.811 42.2 220.624 42.2ZM220.624 39.72C221.157 39.72 221.604 39.58 221.964 39.3C222.337 39.02 222.624 38.6533 222.824 38.2C223.024 37.7333 223.124 37.2333 223.124 36.7C223.124 36.1533 223.024 35.6533 222.824 35.2C222.624 34.7467 222.337 34.38 221.964 34.1C221.604 33.82 221.157 33.68 220.624 33.68C220.091 33.68 219.637 33.82 219.264 34.1C218.891 34.38 218.604 34.7467 218.404 35.2C218.217 35.6533 218.124 36.1533 218.124 36.7C218.124 37.2333 218.217 37.7333 218.404 38.2C218.604 38.6533 218.891 39.02 219.264 39.3C219.637 39.58 220.091 39.72 220.624 39.72ZM228.251 42V31.4H231.291V32.92H231.391C231.511 32.7067 231.684 32.4667 231.911 32.2C232.151 31.9333 232.464 31.7 232.851 31.5C233.251 31.3 233.757 31.2 234.371 31.2C235.197 31.2 235.871 31.3933 236.391 31.78C236.911 32.1533 237.291 32.64 237.531 33.24C237.771 33.8267 237.891 34.4467 237.891 35.1V42H234.851V35.62C234.851 35.1133 234.711 34.6667 234.431 34.28C234.164 33.8933 233.731 33.7 233.131 33.7C232.677 33.7 232.317 33.8067 232.051 34.02C231.784 34.2333 231.591 34.5067 231.471 34.84C231.351 35.1733 231.291 35.5267 231.291 35.9V42H228.251Z" fill="white"/>
<path d="M42.9139 91C45.5646 91 47.8606 91.504 49.8019 92.512C51.7806 93.52 53.4046 94.92 54.6739 96.712C55.9432 98.4667 56.8766 100.483 57.4739 102.76C58.1086 105 58.4259 107.389 58.4259 109.928C58.4259 111.981 58.2019 114.109 57.7539 116.312C57.3059 118.515 56.5966 120.643 55.6259 122.696C54.6926 124.749 53.4232 126.597 51.8179 128.24C50.2499 129.845 48.3272 131.133 46.0499 132.104C43.8099 133.075 41.1779 133.56 38.1539 133.56C36.9966 133.56 35.9139 133.485 34.9059 133.336C33.8979 133.187 33.0952 133.056 32.4979 132.944C31.9006 132.795 31.6019 132.72 31.6019 132.72V127.68C31.6019 127.68 31.9379 127.755 32.6099 127.904C33.2819 128.016 34.1219 128.147 35.1299 128.296C36.1752 128.445 37.2206 128.52 38.2659 128.52C40.5432 128.52 42.4846 128.184 44.0899 127.512C45.7326 126.803 47.0952 125.888 48.1779 124.768C49.2979 123.611 50.1752 122.379 50.8099 121.072C51.4819 119.728 51.9672 118.421 52.2659 117.152C52.5646 115.845 52.7326 114.725 52.7699 113.792C52.5086 114.24 51.9859 114.856 51.2019 115.64C50.4179 116.424 49.3166 117.133 47.8979 117.768C46.4792 118.403 44.6686 118.72 42.4659 118.72C39.4419 118.72 36.9032 118.067 34.8499 116.76C32.8339 115.416 31.3032 113.699 30.2579 111.608C29.2499 109.48 28.7459 107.277 28.7459 105C28.7459 102.648 29.2686 100.408 30.3139 98.28C31.3592 96.152 32.9272 94.416 35.0179 93.072C37.1459 91.6907 39.7779 91 42.9139 91ZM43.0259 95.704C41.5326 95.704 40.0952 96.04 38.7139 96.712C37.3699 97.384 36.2499 98.392 35.3539 99.736C34.4952 101.08 34.0659 102.779 34.0659 104.832C34.0659 106.885 34.4952 108.603 35.3539 109.984C36.2499 111.328 37.3699 112.336 38.7139 113.008C40.0952 113.68 41.5326 114.016 43.0259 114.016C44.5192 114.016 45.9379 113.68 47.2819 113.008C48.6632 112.336 49.7832 111.328 50.6419 109.984C51.5379 108.603 51.9859 106.885 51.9859 104.832C51.9859 102.779 51.5379 101.08 50.6419 99.736C49.7832 98.392 48.6632 97.384 47.2819 96.712C45.9379 96.04 44.5192 95.704 43.0259 95.704ZM80.3604 133.56C77.4484 133.56 74.9097 133.037 72.7444 131.992C70.6164 130.909 68.9551 129.472 67.7604 127.68C66.5657 125.851 65.9684 123.797 65.9684 121.52C65.9684 119.504 66.3231 117.843 67.0324 116.536C67.7417 115.192 68.5631 114.128 69.4964 113.344C70.4671 112.523 71.3071 111.944 72.0164 111.608C72.7257 111.272 73.0804 111.104 73.0804 111.104V110.824C73.0804 110.824 72.7817 110.693 72.1844 110.432C71.5871 110.133 70.8777 109.648 70.0564 108.976C69.2724 108.304 68.5817 107.408 67.9844 106.288C67.3871 105.168 67.0884 103.787 67.0884 102.144C67.0884 100.016 67.6297 98.112 68.7124 96.432C69.7951 94.752 71.3257 93.4267 73.3044 92.456C75.3204 91.4853 77.6724 91 80.3604 91C83.0484 91 85.3817 91.4853 87.3604 92.456C89.3764 93.4267 90.9257 94.752 92.0084 96.432C93.0911 98.112 93.6324 100.016 93.6324 102.144C93.6324 103.787 93.3337 105.168 92.7364 106.288C92.1391 107.408 91.4297 108.304 90.6084 108.976C89.8244 109.648 89.1337 110.133 88.5364 110.432C87.9391 110.693 87.6404 110.824 87.6404 110.824V111.104C87.6404 111.104 87.9951 111.272 88.7044 111.608C89.4137 111.944 90.2351 112.523 91.1684 113.344C92.1391 114.128 92.9791 115.192 93.6884 116.536C94.3977 117.843 94.7524 119.504 94.7524 121.52C94.7524 123.797 94.1551 125.851 92.9604 127.68C91.7657 129.472 90.0857 130.909 87.9204 131.992C85.7924 133.037 83.2724 133.56 80.3604 133.56ZM80.3604 108.976C82.1524 108.976 83.6457 108.64 84.8404 107.968C86.0351 107.296 86.9311 106.437 87.5284 105.392C88.1257 104.347 88.4244 103.283 88.4244 102.2C88.4244 101.043 88.1257 99.9413 87.5284 98.896C86.9311 97.8507 86.0351 97.0107 84.8404 96.376C83.6457 95.704 82.1524 95.368 80.3604 95.368C78.6057 95.368 77.1124 95.704 75.8804 96.376C74.6857 97.0107 73.7897 97.8507 73.1924 98.896C72.5951 99.9413 72.2964 101.043 72.2964 102.2C72.2964 103.283 72.5951 104.347 73.1924 105.392C73.7897 106.437 74.6857 107.296 75.8804 107.968C77.1124 108.64 78.6057 108.976 80.3604 108.976ZM80.3604 129.136C82.3764 129.136 84.0564 128.744 85.4004 127.96C86.7817 127.176 87.8084 126.168 88.4804 124.936C89.1897 123.667 89.5444 122.36 89.5444 121.016C89.5444 119.709 89.2084 118.477 88.5364 117.32C87.8644 116.125 86.8377 115.155 85.4564 114.408C84.1124 113.624 82.4137 113.232 80.3604 113.232C78.3071 113.232 76.5897 113.624 75.2084 114.408C73.8644 115.155 72.8564 116.125 72.1844 117.32C71.5124 118.477 71.1764 119.709 71.1764 121.016C71.1764 122.36 71.5124 123.667 72.1844 124.936C72.8937 126.168 73.9204 127.176 75.2644 127.96C76.6457 128.744 78.3444 129.136 80.3604 129.136ZM106.109 133.56C105.063 133.56 104.186 133.205 103.477 132.496C102.805 131.749 102.469 130.891 102.469 129.92C102.469 128.912 102.805 128.053 103.477 127.344C104.186 126.635 105.063 126.28 106.109 126.28C107.154 126.28 108.013 126.635 108.685 127.344C109.394 128.053 109.749 128.912 109.749 129.92C109.749 130.928 109.394 131.787 108.685 132.496C108.013 133.205 107.154 133.56 106.109 133.56ZM132.492 91C135.143 91 137.439 91.504 139.38 92.512C141.359 93.52 142.983 94.92 144.252 96.712C145.521 98.4667 146.455 100.483 147.052 102.76C147.687 105 148.004 107.389 148.004 109.928C148.004 111.981 147.78 114.109 147.332 116.312C146.884 118.515 146.175 120.643 145.204 122.696C144.271 124.749 143.001 126.597 141.396 128.24C139.828 129.845 137.905 131.133 135.628 132.104C133.388 133.075 130.756 133.56 127.732 133.56C126.575 133.56 125.492 133.485 124.484 133.336C123.476 133.187 122.673 133.056 122.076 132.944C121.479 132.795 121.18 132.72 121.18 132.72V127.68C121.18 127.68 121.516 127.755 122.188 127.904C122.86 128.016 123.7 128.147 124.708 128.296C125.753 128.445 126.799 128.52 127.844 128.52C130.121 128.52 132.063 128.184 133.668 127.512C135.311 126.803 136.673 125.888 137.756 124.768C138.876 123.611 139.753 122.379 140.388 121.072C141.06 119.728 141.545 118.421 141.844 117.152C142.143 115.845 142.311 114.725 142.348 113.792C142.087 114.24 141.564 114.856 140.78 115.64C139.996 116.424 138.895 117.133 137.476 117.768C136.057 118.403 134.247 118.72 132.044 118.72C129.02 118.72 126.481 118.067 124.428 116.76C122.412 115.416 120.881 113.699 119.836 111.608C118.828 109.48 118.324 107.277 118.324 105C118.324 102.648 118.847 100.408 119.892 98.28C120.937 96.152 122.505 94.416 124.596 93.072C126.724 91.6907 129.356 91 132.492 91ZM132.604 95.704C131.111 95.704 129.673 96.04 128.292 96.712C126.948 97.384 125.828 98.392 124.932 99.736C124.073 101.08 123.644 102.779 123.644 104.832C123.644 106.885 124.073 108.603 124.932 109.984C125.828 111.328 126.948 112.336 128.292 113.008C129.673 113.68 131.111 114.016 132.604 114.016C134.097 114.016 135.516 113.68 136.86 113.008C138.241 112.336 139.361 111.328 140.22 109.984C141.116 108.603 141.564 106.885 141.564 104.832C141.564 102.779 141.116 101.08 140.22 99.736C139.361 98.392 138.241 97.384 136.86 96.712C135.516 96.04 134.097 95.704 132.604 95.704ZM170.555 91C173.205 91 175.501 91.504 177.443 92.512C179.421 93.52 181.045 94.92 182.315 96.712C183.584 98.4667 184.517 100.483 185.115 102.76C185.749 105 186.067 107.389 186.067 109.928C186.067 111.981 185.843 114.109 185.395 116.312C184.947 118.515 184.237 120.643 183.267 122.696C182.333 124.749 181.064 126.597 179.459 128.24C177.891 129.845 175.968 131.133 173.691 132.104C171.451 133.075 168.819 133.56 165.795 133.56C164.637 133.56 163.555 133.485 162.547 133.336C161.539 133.187 160.736 133.056 160.139 132.944C159.541 132.795 159.243 132.72 159.243 132.72V127.68C159.243 127.68 159.579 127.755 160.251 127.904C160.923 128.016 161.763 128.147 162.771 128.296C163.816 128.445 164.861 128.52 165.907 128.52C168.184 128.52 170.125 128.184 171.731 127.512C173.373 126.803 174.736 125.888 175.819 124.768C176.939 123.611 177.816 122.379 178.451 121.072C179.123 119.728 179.608 118.421 179.907 117.152C180.205 115.845 180.373 114.725 180.411 113.792C180.149 114.24 179.627 114.856 178.843 115.64C178.059 116.424 176.957 117.133 175.539 117.768C174.12 118.403 172.309 118.72 170.107 118.72C167.083 118.72 164.544 118.067 162.491 116.76C160.475 115.416 158.944 113.699 157.899 111.608C156.891 109.48 156.387 107.277 156.387 105C156.387 102.648 156.909 100.408 157.955 98.28C159 96.152 160.568 94.416 162.659 93.072C164.787 91.6907 167.419 91 170.555 91ZM170.667 95.704C169.173 95.704 167.736 96.04 166.355 96.712C165.011 97.384 163.891 98.392 162.995 99.736C162.136 101.08 161.707 102.779 161.707 104.832C161.707 106.885 162.136 108.603 162.995 109.984C163.891 111.328 165.011 112.336 166.355 113.008C167.736 113.68 169.173 114.016 170.667 114.016C172.16 114.016 173.579 113.68 174.923 113.008C176.304 112.336 177.424 111.328 178.283 109.984C179.179 108.603 179.627 106.885 179.627 104.832C179.627 102.779 179.179 101.08 178.283 99.736C177.424 98.392 176.304 97.384 174.923 96.712C173.579 96.04 172.16 95.704 170.667 95.704Z" fill="white"/>
<path d="M203.57 116.28C202.53 116.28 201.63 116.06 200.87 115.62C200.13 115.16 199.55 114.56 199.13 113.82C198.73 113.08 198.53 112.26 198.53 111.36C198.53 110.48 198.73 109.67 199.13 108.93C199.53 108.19 200.11 107.6 200.87 107.16C201.63 106.72 202.53 106.5 203.57 106.5C204.63 106.5 205.53 106.72 206.27 107.16C207.03 107.6 207.61 108.19 208.01 108.93C208.41 109.67 208.61 110.48 208.61 111.36C208.61 112.26 208.41 113.08 208.01 113.82C207.61 114.56 207.03 115.16 206.27 115.62C205.51 116.06 204.61 116.28 203.57 116.28ZM202.01 129L214.46 106.8H218.09L205.67 129H202.01ZM203.57 113.58C204.19 113.58 204.69 113.37 205.07 112.95C205.45 112.51 205.64 111.99 205.64 111.39C205.64 110.79 205.45 110.28 205.07 109.86C204.69 109.44 204.19 109.23 203.57 109.23C202.93 109.23 202.42 109.44 202.04 109.86C201.66 110.28 201.47 110.79 201.47 111.39C201.47 111.99 201.66 112.51 202.04 112.95C202.42 113.37 202.93 113.58 203.57 113.58ZM216.56 129.3C215.52 129.3 214.62 129.08 213.86 128.64C213.1 128.18 212.52 127.58 212.12 126.84C211.72 126.1 211.52 125.29 211.52 124.41C211.52 123.53 211.72 122.72 212.12 121.98C212.52 121.24 213.1 120.65 213.86 120.21C214.62 119.75 215.52 119.52 216.56 119.52C217.6 119.52 218.49 119.75 219.23 120.21C219.99 120.65 220.57 121.24 220.97 121.98C221.39 122.72 221.6 123.53 221.6 124.41C221.6 125.29 221.39 126.1 220.97 126.84C220.57 127.58 219.99 128.18 219.23 128.64C218.49 129.08 217.6 129.3 216.56 129.3ZM216.53 126.6C217.17 126.6 217.68 126.39 218.06 125.97C218.44 125.55 218.63 125.03 218.63 124.41C218.63 123.81 218.44 123.3 218.06 122.88C217.68 122.46 217.17 122.25 216.53 122.25C215.91 122.25 215.41 122.46 215.03 122.88C214.65 123.3 214.46 123.81 214.46 124.41C214.46 125.03 214.65 125.55 215.03 125.97C215.41 126.39 215.91 126.6 216.53 126.6Z" fill="white"/>
</svg>
