<svg width="245" height="234" viewBox="0 0 245 234" fill="none" xmlns="http://www.w3.org/2000/svg">
<g clip-path="url(#clip0_11255_2036)">
<g filter="url(#filter0_d_11255_2036)">
<path d="M1.95996 17.5502C1.95996 8.93456 8.98014 1.9502 17.64 1.9502H227.36C236.02 1.9502 243.04 8.93456 243.04 17.5502V216.45C243.04 225.066 236.02 232.05 227.36 232.05H17.64C8.98014 232.05 1.95996 225.066 1.95996 216.45V17.5502Z" fill="white"/>
<path d="M21.1803 25.6369C20.6994 25.6369 20.2787 25.5537 19.918 25.3873C19.5626 25.2157 19.2647 24.9895 19.0243 24.7087C18.7838 24.4227 18.6035 24.1029 18.4833 23.7493C18.3631 23.3957 18.303 23.0343 18.303 22.6651C18.303 22.3011 18.3631 21.9423 18.4833 21.5887C18.6035 21.2351 18.7838 20.9179 19.0243 20.6371C19.2647 20.3511 19.5626 20.1249 19.918 19.9585C20.2787 19.7921 20.6994 19.7089 21.1803 19.7089C21.5827 19.7089 21.9251 19.7609 22.2073 19.8649C22.4948 19.9637 22.7326 20.0937 22.9207 20.2549C23.1141 20.4109 23.2683 20.5799 23.3833 20.7619C23.5035 20.9387 23.5924 21.1077 23.6499 21.2689C23.7073 21.4249 23.7439 21.5549 23.7596 21.6589C23.7805 21.7577 23.791 21.8071 23.791 21.8071H22.5915C22.5915 21.8071 22.581 21.7733 22.5601 21.7057C22.5444 21.6329 22.5105 21.5471 22.4582 21.4483C22.4059 21.3443 22.3275 21.2429 22.223 21.1441C22.1237 21.0453 21.9878 20.9621 21.8153 20.8945C21.6481 20.8217 21.439 20.7853 21.1881 20.7853C20.8275 20.7853 20.5243 20.8789 20.2787 21.0661C20.0382 21.2481 19.8553 21.4821 19.7299 21.7681C19.6097 22.0541 19.5495 22.3531 19.5495 22.6651C19.5495 22.9771 19.6097 23.2787 19.7299 23.5699C19.8553 23.8559 20.0382 24.0925 20.2787 24.2797C20.5243 24.4617 20.8275 24.5527 21.1881 24.5527C21.439 24.5527 21.6481 24.5189 21.8153 24.4513C21.9878 24.3837 22.1237 24.3005 22.223 24.2017C22.3275 24.0977 22.4059 23.9963 22.4582 23.8975C22.5105 23.7935 22.5444 23.7077 22.5601 23.6401C22.581 23.5725 22.5915 23.5387 22.5915 23.5387H23.791C23.791 23.5387 23.7805 23.5907 23.7596 23.6947C23.7439 23.7935 23.7073 23.9235 23.6499 24.0847C23.5924 24.2407 23.5035 24.4097 23.3833 24.5917C23.2683 24.7685 23.1141 24.9375 22.9207 25.0987C22.7326 25.2547 22.4948 25.3847 22.2073 25.4887C21.9251 25.5875 21.5827 25.6369 21.1803 25.6369ZM24.6399 25.5589V19.7869H27.0311C27.5066 19.7869 27.9013 19.8805 28.2149 20.0677C28.5337 20.2549 28.7715 20.4967 28.9283 20.7931C29.0903 21.0843 29.1714 21.3885 29.1714 21.7057C29.1714 22.0333 29.0903 22.3453 28.9283 22.6417C28.7715 22.9329 28.5337 23.1721 28.2149 23.3593C27.9013 23.5465 27.5066 23.6401 27.0311 23.6401H25.8472V25.5589H24.6399ZM27.0311 20.8399H25.8472V22.5949H27.0311C27.2349 22.5949 27.4047 22.5533 27.5407 22.4701C27.6765 22.3817 27.7785 22.2725 27.8464 22.1425C27.9196 22.0073 27.9562 21.8643 27.9562 21.7135C27.9562 21.5679 27.9196 21.4275 27.8464 21.2923C27.7785 21.1571 27.6765 21.0479 27.5407 20.9647C27.4047 20.8815 27.2349 20.8399 27.0311 20.8399ZM32.3208 25.6369C31.8974 25.6369 31.5054 25.5563 31.1448 25.3951C30.7894 25.2339 30.5019 24.9843 30.2823 24.6463C30.0681 24.3083 29.9609 23.8689 29.9609 23.3281V19.7869H31.1683V23.3281C31.1683 23.6609 31.2624 23.9417 31.4505 24.1705C31.6387 24.3941 31.9288 24.5059 32.3208 24.5059C32.7128 24.5059 33.0002 24.3941 33.1831 24.1705C33.3713 23.9417 33.4654 23.6609 33.4654 23.3281V19.7869H34.6806V23.3281C34.6806 23.8689 34.5708 24.3083 34.3513 24.6463C34.137 24.9843 33.8495 25.2339 33.4889 25.3951C33.1283 25.5563 32.7389 25.6369 32.3208 25.6369ZM39.9158 25.6369C39.4924 25.6369 39.1004 25.5563 38.7397 25.3951C38.3844 25.2339 38.0969 24.9843 37.8773 24.6463C37.6631 24.3083 37.5559 23.8689 37.5559 23.3281V19.7869H38.7633V23.3281C38.7633 23.6609 38.8574 23.9417 39.0455 24.1705C39.2337 24.3941 39.5238 24.5059 39.9158 24.5059C40.3078 24.5059 40.5952 24.3941 40.7781 24.1705C40.9663 23.9417 41.0604 23.6609 41.0604 23.3281V19.7869H42.2756V23.3281C42.2756 23.8689 42.1658 24.3083 41.9463 24.6463C41.732 24.9843 41.4445 25.2339 41.0839 25.3951C40.7233 25.5563 40.3339 25.6369 39.9158 25.6369ZM45.014 25.6369C44.669 25.6369 44.3842 25.5901 44.1594 25.4965C43.9347 25.4029 43.7544 25.2885 43.6184 25.1533C43.4878 25.0129 43.3885 24.8751 43.3205 24.7399C43.2578 24.5995 43.216 24.4825 43.1951 24.3889C43.1794 24.2953 43.1716 24.2485 43.1716 24.2485H44.277C44.277 24.2485 44.2848 24.2745 44.3005 24.3265C44.3162 24.3785 44.3502 24.4383 44.4024 24.5059C44.46 24.5735 44.541 24.6333 44.6455 24.6853C44.75 24.7373 44.8912 24.7633 45.0688 24.7633C45.2884 24.7633 45.4373 24.7191 45.5157 24.6307C45.5994 24.5423 45.6412 24.4539 45.6412 24.3655C45.6412 24.1783 45.487 24.0535 45.1786 23.9911L44.6141 23.8819C44.3737 23.8351 44.1464 23.7675 43.932 23.6791C43.723 23.5855 43.5531 23.4581 43.4224 23.2969C43.297 23.1305 43.2343 22.9173 43.2343 22.6573C43.2343 22.4077 43.2996 22.1841 43.4303 21.9865C43.561 21.7889 43.7465 21.6329 43.9869 21.5185C44.2326 21.4041 44.5253 21.3469 44.865 21.3469C45.1838 21.3469 45.4478 21.3911 45.6568 21.4795C45.8712 21.5627 46.041 21.6693 46.1664 21.7993C46.2919 21.9241 46.386 22.0515 46.4487 22.1815C46.5114 22.3063 46.5506 22.4129 46.5663 22.5013C46.5872 22.5845 46.5976 22.6261 46.5976 22.6261H45.5314C45.5314 22.6261 45.5157 22.5923 45.4844 22.5247C45.453 22.4519 45.3877 22.3817 45.2884 22.3141C45.1943 22.2413 45.048 22.2049 44.8493 22.2049C44.6455 22.2049 44.5044 22.2465 44.426 22.3297C44.3476 22.4077 44.3084 22.4909 44.3084 22.5793C44.3084 22.6833 44.3528 22.7613 44.4416 22.8133C44.5357 22.8653 44.656 22.9069 44.8023 22.9381L45.3432 23.0473C45.7405 23.1253 46.0672 23.2631 46.3232 23.4607C46.5794 23.6531 46.7074 23.9339 46.7074 24.3031C46.7074 24.5527 46.6421 24.7789 46.5114 24.9817C46.3808 25.1845 46.19 25.3457 45.9391 25.4653C45.6882 25.5797 45.3798 25.6369 45.014 25.6369ZM49.2176 21.3469C49.4842 21.3469 49.7037 21.3911 49.8762 21.4795C50.0487 21.5627 50.1795 21.6537 50.2682 21.7525C50.3623 21.8513 50.4201 21.9189 50.4407 21.9553H50.5034V21.4249H51.6951V25.5589H50.5034V25.0285H50.4407C50.4201 25.0649 50.3623 25.1325 50.2682 25.2313C50.1795 25.3301 50.0487 25.4237 49.8762 25.5121C49.7037 25.5953 49.4842 25.6369 49.2176 25.6369C48.9095 25.6369 48.6402 25.5771 48.4103 25.4575C48.1855 25.3327 47.9974 25.1689 47.8458 24.9661C47.6943 24.7581 47.5793 24.5267 47.5009 24.2719C47.4277 24.0171 47.3911 23.7571 47.3911 23.4919C47.3911 23.2267 47.4277 22.9667 47.5009 22.7119C47.5793 22.4571 47.6943 22.2283 47.8458 22.0255C47.9974 21.8175 48.1855 21.6537 48.4103 21.5341C48.6402 21.4093 48.9095 21.3469 49.2176 21.3469ZM49.5626 22.3063C49.3484 22.3063 49.1681 22.3661 49.0216 22.4857C48.8807 22.6001 48.7735 22.7483 48.7004 22.9303C48.6324 23.1123 48.5984 23.2995 48.5984 23.4919C48.5984 23.6843 48.6324 23.8715 48.7004 24.0535C48.7735 24.2355 48.8807 24.3863 49.0216 24.5059C49.1681 24.6203 49.3484 24.6775 49.5626 24.6775C49.7772 24.6775 49.9546 24.6203 50.0957 24.5059C50.2422 24.3863 50.3495 24.2355 50.4171 24.0535C50.4906 23.8715 50.5269 23.6843 50.5269 23.4919C50.5269 23.2995 50.4906 23.1123 50.4171 22.9303C50.3495 22.7483 50.2422 22.6001 50.0957 22.4857C49.9546 22.3661 49.7772 22.3063 49.5626 22.3063ZM54.7845 27.2125C54.3979 27.2125 54.0789 27.1657 53.828 27.0721C53.5825 26.9785 53.3865 26.8589 53.24 26.7133C53.094 26.5729 52.9867 26.4325 52.9186 26.2921C52.851 26.1517 52.8064 26.0321 52.7853 25.9333C52.7696 25.8397 52.7618 25.7929 52.7618 25.7929H53.9221C53.9221 25.7929 53.9299 25.8163 53.9456 25.8631C53.9667 25.9151 54.0059 25.9723 54.0632 26.0347C54.121 26.1023 54.2043 26.1595 54.3141 26.2063C54.4293 26.2583 54.5807 26.2843 54.7688 26.2843C55.0932 26.2843 55.3309 26.1933 55.4823 26.0113C55.6391 25.8293 55.7175 25.5901 55.7175 25.2937V24.8569H55.6626C55.6106 24.9401 55.5322 25.0311 55.4274 25.1299C55.323 25.2287 55.1897 25.3119 55.0275 25.3795C54.8658 25.4471 54.6698 25.4809 54.4395 25.4809C54.1313 25.4809 53.8623 25.4237 53.632 25.3093C53.4022 25.1897 53.2087 25.0311 53.0519 24.8335C52.9005 24.6359 52.7853 24.4149 52.7069 24.1705C52.6339 23.9261 52.5971 23.6739 52.5971 23.4139C52.5971 23.1591 52.6339 22.9095 52.7069 22.6651C52.7853 22.4155 52.9005 22.1919 53.0519 21.9943C53.2087 21.7967 53.4022 21.6407 53.632 21.5263C53.8623 21.4067 54.1313 21.3469 54.4395 21.3469C54.6698 21.3469 54.8658 21.3833 55.0275 21.4561C55.1897 21.5237 55.323 21.6069 55.4274 21.7057C55.5371 21.7993 55.6155 21.8903 55.6626 21.9787H55.7175V21.4249H56.9091V25.2937C56.9091 25.6369 56.8337 25.9541 56.6818 26.2453C56.5304 26.5365 56.2976 26.7705 55.984 26.9473C55.6704 27.1241 55.2706 27.2125 54.7845 27.2125ZM54.7688 24.5449C54.9883 24.5449 55.1687 24.4903 55.3098 24.3811C55.4563 24.2719 55.5661 24.1315 55.6391 23.9599C55.7126 23.7831 55.7488 23.6011 55.7488 23.4139C55.7488 23.2215 55.7126 23.0395 55.6391 22.8679C55.5661 22.6963 55.4563 22.5559 55.3098 22.4467C55.1687 22.3375 54.9883 22.2829 54.7688 22.2829C54.5547 22.2829 54.3744 22.3375 54.2279 22.4467C54.0867 22.5559 53.9799 22.6963 53.9064 22.8679C53.8334 23.0395 53.7967 23.2215 53.7967 23.4139C53.7967 23.6011 53.8334 23.7831 53.9064 23.9599C53.9799 24.1315 54.0867 24.2719 54.2279 24.3811C54.3744 24.4903 54.5547 24.5449 54.7688 24.5449ZM59.8286 25.6369C59.463 25.6369 59.1465 25.5771 58.8799 25.4575C58.6134 25.3327 58.3938 25.1689 58.2214 24.9661C58.0489 24.7581 57.9185 24.5267 57.8294 24.2719C57.7461 24.0171 57.7039 23.7545 57.7039 23.4841C57.7039 23.2241 57.7431 22.9693 57.8215 22.7197C57.9053 22.4649 58.0308 22.2335 58.1978 22.0255C58.3703 21.8175 58.5874 21.6537 58.8486 21.5341C59.1151 21.4093 59.4287 21.3469 59.7894 21.3469C60.1711 21.3469 60.5082 21.4301 60.8007 21.5965C61.0986 21.7629 61.3314 22.0099 61.4985 22.3375C61.6661 22.6599 61.7494 23.0525 61.7494 23.5153V23.8039H58.9034C58.9191 24.0535 59.0054 24.2693 59.1622 24.4513C59.3244 24.6333 59.5463 24.7243 59.8286 24.7243C59.9908 24.7243 60.1216 24.7009 60.2206 24.6541C60.3254 24.6021 60.4063 24.5449 60.4636 24.4825C60.5214 24.4149 60.5606 24.3551 60.5812 24.3031C60.6023 24.2511 60.6126 24.2251 60.6126 24.2251H61.7102C61.7102 24.2251 61.6974 24.2745 61.671 24.3733C61.6504 24.4669 61.6033 24.5839 61.5298 24.7243C61.4568 24.8647 61.3495 25.0051 61.2084 25.1455C61.0727 25.2859 60.8924 25.4029 60.6674 25.4965C60.443 25.5901 60.1632 25.6369 59.8286 25.6369ZM58.9034 23.0863H60.6047C60.589 22.8003 60.5028 22.5871 60.346 22.4467C60.1892 22.3063 59.9961 22.2361 59.7658 22.2361C59.536 22.2361 59.34 22.3115 59.1778 22.4623C59.0161 22.6079 58.9245 22.8159 58.9034 23.0863ZM64.4904 25.5589V19.7869H67.1717C67.548 19.7869 67.8646 19.8519 68.1203 19.9819C68.382 20.1119 68.5805 20.2861 68.7162 20.5045C68.8524 20.7177 68.92 20.9543 68.92 21.2143C68.92 21.4691 68.873 21.6823 68.7789 21.8539C68.6848 22.0203 68.5702 22.1555 68.4339 22.2595C68.3036 22.3583 68.1752 22.4259 68.0498 22.4623V22.5247C68.1909 22.5559 68.3477 22.6235 68.5202 22.7275C68.6927 22.8315 68.8416 22.9797 68.9671 23.1721C69.0925 23.3645 69.1552 23.6141 69.1552 23.9209C69.1552 24.1913 69.0901 24.4513 68.9592 24.7009C68.8338 24.9505 68.6275 25.1559 68.3399 25.3171C68.0576 25.4783 67.6891 25.5589 67.2344 25.5589H64.4904ZM66.9679 20.7931H65.6978V22.1347H66.9679C67.2398 22.1347 67.4383 22.0697 67.5637 21.9397C67.6891 21.8097 67.7519 21.6511 67.7519 21.4639C67.7519 21.2819 67.6891 21.1259 67.5637 20.9959C67.4383 20.8607 67.2398 20.7931 66.9679 20.7931ZM67.0619 23.0551H65.6978V24.5527H67.0619C67.3706 24.5527 67.5926 24.4799 67.7283 24.3343C67.8695 24.1835 67.94 24.0041 67.94 23.7961C67.94 23.5933 67.8695 23.4191 67.7283 23.2735C67.5926 23.1279 67.3706 23.0551 67.0619 23.0551ZM69.9706 25.5589V21.4249H71.1544V22.0255H71.1936C71.2407 21.9163 71.3058 21.8097 71.3896 21.7057C71.4734 21.6017 71.5881 21.5159 71.7346 21.4483C71.8811 21.3807 72.0693 21.3469 72.2991 21.3469C72.4142 21.3469 72.5053 21.3547 72.5735 21.3703C72.6416 21.3807 72.6754 21.3859 72.6754 21.3859V22.5559C72.6754 22.5559 72.6362 22.5481 72.5578 22.5325C72.4848 22.5169 72.3878 22.5091 72.2677 22.5091C71.8968 22.5091 71.6194 22.6105 71.4367 22.8133C71.2539 23.0109 71.1623 23.3359 71.1623 23.7883V25.5589H69.9706ZM75.2253 25.6369C74.8593 25.6369 74.5433 25.5771 74.2767 25.4575C74.0101 25.3327 73.7906 25.1689 73.6181 24.9661C73.4457 24.7581 73.3148 24.5267 73.2261 24.2719C73.1423 24.0171 73.1007 23.7545 73.1007 23.4841C73.1007 23.2241 73.1399 22.9693 73.2183 22.7197C73.3021 22.4649 73.4275 22.2335 73.5946 22.0255C73.7671 21.8175 73.9842 21.6537 74.2453 21.5341C74.5119 21.4093 74.8255 21.3469 75.1861 21.3469C75.5678 21.3469 75.905 21.4301 76.1975 21.5965C76.4954 21.7629 76.7282 22.0099 76.8953 22.3375C77.0624 22.6599 77.1461 23.0525 77.1461 23.5153V23.8039H74.3002C74.3159 24.0535 74.4021 24.2693 74.5589 24.4513C74.7211 24.6333 74.9431 24.7243 75.2253 24.7243C75.3875 24.7243 75.5179 24.7009 75.6173 24.6541C75.7217 24.6021 75.8031 24.5449 75.8604 24.4825C75.9177 24.4149 75.9569 24.3551 75.978 24.3031C75.9991 24.2511 76.0093 24.2251 76.0093 24.2251H77.1069C77.1069 24.2251 77.0937 24.2745 77.0677 24.3733C77.0467 24.4669 76.9996 24.5839 76.9266 24.7243C76.8536 24.8647 76.7463 25.0051 76.6052 25.1455C76.4695 25.2859 76.2891 25.4029 76.0642 25.4965C75.8393 25.5901 75.56 25.6369 75.2253 25.6369ZM74.3002 23.0863H76.0015C75.9858 22.8003 75.8996 22.5871 75.7428 22.4467C75.586 22.3063 75.3924 22.2361 75.1626 22.2361C74.9328 22.2361 74.7368 22.3115 74.5746 22.4623C74.4124 22.6079 74.3213 22.8159 74.3002 23.0863ZM79.7358 21.3469C80.0023 21.3469 80.2219 21.3911 80.3944 21.4795C80.5668 21.5627 80.6972 21.6537 80.7864 21.7525C80.8804 21.8513 80.9378 21.9189 80.9588 21.9553H81.0216V21.4249H82.2132V25.5589H81.0216V25.0285H80.9588C80.9378 25.0649 80.8804 25.1325 80.7864 25.2313C80.6972 25.3301 80.5668 25.4237 80.3944 25.5121C80.2219 25.5953 80.0023 25.6369 79.7358 25.6369C79.4271 25.6369 79.1581 25.5771 78.9283 25.4575C78.7034 25.3327 78.5152 25.1689 78.3638 24.9661C78.2119 24.7581 78.0972 24.5267 78.0188 24.2719C77.9453 24.0171 77.9091 23.7571 77.9091 23.4919C77.9091 23.2267 77.9453 22.9667 78.0188 22.7119C78.0972 22.4571 78.2119 22.2283 78.3638 22.0255C78.5152 21.8175 78.7034 21.6537 78.9283 21.5341C79.1581 21.4093 79.4271 21.3469 79.7358 21.3469ZM80.0807 22.3063C79.8661 22.3063 79.6858 22.3661 79.5398 22.4857C79.3987 22.6001 79.2914 22.7483 79.2184 22.9303C79.1502 23.1123 79.1164 23.2995 79.1164 23.4919C79.1164 23.6843 79.1502 23.8715 79.2184 24.0535C79.2914 24.2355 79.3987 24.3863 79.5398 24.5059C79.6858 24.6203 79.8661 24.6775 80.0807 24.6775C80.2949 24.6775 80.4728 24.6203 80.6139 24.5059C80.7599 24.3863 80.8672 24.2355 80.9353 24.0535C81.0083 23.8715 81.0451 23.6843 81.0451 23.4919C81.0451 23.2995 81.0083 23.1123 80.9353 22.9303C80.8672 22.7483 80.7599 22.6001 80.6139 22.4857C80.4728 22.3661 80.2949 22.3063 80.0807 22.3063ZM83.2256 25.5589V19.6309H84.4173V23.0473L85.7893 21.4249H87.1456L85.5149 23.3125L87.2161 25.5589H85.8128L84.4173 23.7025V25.5589H83.2256ZM89.306 25.6369C88.9978 25.6369 88.7283 25.5771 88.4985 25.4575C88.2736 25.3327 88.0854 25.1689 87.934 24.9661C87.7826 24.7581 87.6674 24.5267 87.589 24.2719C87.516 24.0171 87.4793 23.7571 87.4793 23.4919C87.4793 23.2267 87.516 22.9667 87.589 22.7119C87.6674 22.4571 87.7826 22.2283 87.934 22.0255C88.0854 21.8175 88.2736 21.6537 88.4985 21.5341C88.7283 21.4093 88.9978 21.3469 89.306 21.3469C89.5725 21.3469 89.7921 21.3911 89.9645 21.4795C90.137 21.5627 90.2679 21.6537 90.3565 21.7525C90.4506 21.8513 90.508 21.9189 90.529 21.9553H90.5917V19.6309H91.7834V25.5589H90.5917V25.0285H90.529C90.508 25.0649 90.4506 25.1325 90.3565 25.2313C90.2679 25.3301 90.137 25.4237 89.9645 25.5121C89.7921 25.5953 89.5725 25.6369 89.306 25.6369ZM89.6509 24.6775C89.8651 24.6775 90.0429 24.6203 90.1841 24.5059C90.3306 24.3863 90.4374 24.2355 90.5055 24.0535C90.5785 23.8715 90.6153 23.6843 90.6153 23.4919C90.6153 23.2995 90.5785 23.1123 90.5055 22.9303C90.4374 22.7483 90.3306 22.6001 90.1841 22.4857C90.0429 22.3661 89.8651 22.3063 89.6509 22.3063C89.4368 22.3063 89.2565 22.3661 89.11 22.4857C88.9689 22.6001 88.8616 22.7483 88.7885 22.9303C88.7204 23.1123 88.6866 23.2995 88.6866 23.4919C88.6866 23.6843 88.7204 23.8715 88.7885 24.0535C88.8616 24.2355 88.9689 24.3863 89.11 24.5059C89.2565 24.6203 89.4368 24.6775 89.6509 24.6775ZM94.8498 25.6369C94.3843 25.6369 93.9899 25.5381 93.666 25.3405C93.3416 25.1377 93.0937 24.8751 92.9212 24.5527C92.7536 24.2251 92.6703 23.8715 92.6703 23.4919C92.6703 23.1123 92.7536 22.7613 92.9212 22.4389C93.0937 22.1113 93.3416 21.8487 93.666 21.6511C93.9899 21.4483 94.3843 21.3469 94.8498 21.3469C95.3148 21.3469 95.7093 21.4483 96.0337 21.6511C96.3576 21.8487 96.6031 22.1113 96.7706 22.4389C96.9431 22.7613 97.0294 23.1123 97.0294 23.4919C97.0294 23.8715 96.9431 24.2251 96.7706 24.5527C96.6031 24.8751 96.3576 25.1377 96.0337 25.3405C95.7093 25.5381 95.3148 25.6369 94.8498 25.6369ZM94.8498 24.6697C95.0586 24.6697 95.234 24.6151 95.3751 24.5059C95.5211 24.3967 95.6338 24.2537 95.7122 24.0769C95.7906 23.8949 95.8298 23.6999 95.8298 23.4919C95.8298 23.2787 95.7906 23.0837 95.7122 22.9069C95.6338 22.7301 95.5211 22.5871 95.3751 22.4779C95.234 22.3687 95.0586 22.3141 94.8498 22.3141C94.6406 22.3141 94.4627 22.3687 94.3167 22.4779C94.1702 22.5871 94.058 22.7301 93.9796 22.9069C93.9061 23.0837 93.8698 23.2787 93.8698 23.4919C93.8698 23.6999 93.9061 23.8949 93.9796 24.0769C94.058 24.2537 94.1702 24.3967 94.3167 24.5059C94.4627 24.6151 94.6406 24.6697 94.8498 24.6697ZM98.69 25.5589L97.4042 21.4249H98.5959L99.3407 24.1081L100.148 21.4249H101.23L102.038 24.1081L102.782 21.4249H103.974L102.688 25.5589H101.426L100.689 23.1409L99.9522 25.5589H98.69ZM104.608 25.5589V21.4249H105.799V22.0177H105.839C105.886 21.9345 105.953 21.8409 106.042 21.7369C106.136 21.6329 106.259 21.5419 106.411 21.4639C106.568 21.3859 106.766 21.3469 107.007 21.3469C107.331 21.3469 107.595 21.4223 107.799 21.5731C108.002 21.7187 108.151 21.9085 108.245 22.1425C108.34 22.3713 108.387 22.6131 108.387 22.8679V25.5589H107.195V23.0707C107.195 22.8731 107.14 22.6989 107.03 22.5481C106.925 22.3973 106.756 22.3219 106.521 22.3219C106.343 22.3219 106.202 22.3635 106.097 22.4467C105.992 22.5299 105.917 22.6365 105.87 22.7665C105.823 22.8965 105.799 23.0343 105.799 23.1799V25.5589H104.608ZM113.656 25.6369C113.389 25.6369 113.17 25.5953 112.997 25.5121C112.825 25.4237 112.692 25.3301 112.598 25.2313C112.508 25.1325 112.451 25.0649 112.425 25.0285H112.37V25.5589H111.179V19.6309H112.37V21.9553H112.425C112.451 21.9189 112.508 21.8513 112.598 21.7525C112.692 21.6537 112.825 21.5627 112.997 21.4795C113.17 21.3911 113.389 21.3469 113.656 21.3469C113.964 21.3469 114.231 21.4093 114.456 21.5341C114.686 21.6537 114.876 21.8175 115.028 22.0255C115.179 22.2283 115.292 22.4571 115.365 22.7119C115.444 22.9667 115.483 23.2267 115.483 23.4919C115.483 23.7571 115.444 24.0171 115.365 24.2719C115.292 24.5267 115.179 24.7581 115.028 24.9661C114.876 25.1689 114.686 25.3327 114.456 25.4575C114.231 25.5771 113.964 25.6369 113.656 25.6369ZM113.311 24.6775C113.525 24.6775 113.703 24.6203 113.844 24.5059C113.99 24.3863 114.098 24.2355 114.166 24.0535C114.239 23.8715 114.275 23.6843 114.275 23.4919C114.275 23.2995 114.239 23.1123 114.166 22.9303C114.098 22.7483 113.99 22.6001 113.844 22.4857C113.703 22.3661 113.525 22.3063 113.311 22.3063C113.096 22.3063 112.916 22.3661 112.77 22.4857C112.629 22.6001 112.522 22.7483 112.449 22.9303C112.381 23.1123 112.347 23.2995 112.347 23.4919C112.347 23.6843 112.381 23.8715 112.449 24.0535C112.522 24.2355 112.629 24.3863 112.77 24.5059C112.916 24.6203 113.096 24.6775 113.311 24.6775ZM116.444 27.0799C116.303 27.0799 116.191 27.0747 116.107 27.0643C116.024 27.0539 115.982 27.0487 115.982 27.0487V26.0971C115.982 26.0971 116.016 26.0997 116.084 26.1049C116.157 26.1101 116.246 26.1127 116.35 26.1127C116.601 26.1127 116.808 26.0763 116.969 26.0035C117.132 25.9359 117.273 25.8007 117.393 25.5979L115.856 21.4249H117.048L118.012 24.2251L118.953 21.4249H120.152L118.663 25.3951C118.527 25.7747 118.362 26.0893 118.169 26.3389C117.981 26.5885 117.749 26.7731 117.471 26.8927C117.194 27.0175 116.852 27.0799 116.444 27.0799ZM122.671 25.5589V19.7869H125.062C125.537 19.7869 125.932 19.8805 126.246 20.0677C126.564 20.2549 126.802 20.4967 126.959 20.7931C127.121 21.0843 127.202 21.3885 127.202 21.7057C127.202 22.0333 127.121 22.3453 126.959 22.6417C126.802 22.9329 126.564 23.1721 126.246 23.3593C125.932 23.5465 125.537 23.6401 125.062 23.6401H123.878V25.5589H122.671ZM125.062 20.8399H123.878V22.5949H125.062C125.266 22.5949 125.435 22.5533 125.571 22.4701C125.707 22.3817 125.809 22.2725 125.877 22.1425C125.95 22.0073 125.987 21.8643 125.987 21.7135C125.987 21.5679 125.95 21.4275 125.877 21.2923C125.809 21.1571 125.707 21.0479 125.571 20.9647C125.435 20.8815 125.266 20.8399 125.062 20.8399ZM127.913 25.5589V21.4249H129.097V22.0255H129.136C129.183 21.9163 129.248 21.8097 129.332 21.7057C129.416 21.6017 129.531 21.5159 129.677 21.4483C129.824 21.3807 130.012 21.3469 130.242 21.3469C130.357 21.3469 130.448 21.3547 130.516 21.3703C130.584 21.3807 130.618 21.3859 130.618 21.3859V22.5559C130.618 22.5559 130.579 22.5481 130.5 22.5325C130.427 22.5169 130.33 22.5091 130.21 22.5091C129.839 22.5091 129.562 22.6105 129.379 22.8133C129.196 23.0109 129.105 23.3359 129.105 23.7883V25.5589H127.913ZM133.223 25.6369C132.758 25.6369 132.363 25.5381 132.039 25.3405C131.715 25.1377 131.467 24.8751 131.294 24.5527C131.127 24.2251 131.043 23.8715 131.043 23.4919C131.043 23.1123 131.127 22.7613 131.294 22.4389C131.467 22.1113 131.715 21.8487 132.039 21.6511C132.363 21.4483 132.758 21.3469 133.223 21.3469C133.688 21.3469 134.083 21.4483 134.407 21.6511C134.73 21.8487 134.976 22.1113 135.144 22.4389C135.316 22.7613 135.402 23.1123 135.402 23.4919C135.402 23.8715 135.316 24.2251 135.144 24.5527C134.976 24.8751 134.73 25.1377 134.407 25.3405C134.083 25.5381 133.688 25.6369 133.223 25.6369ZM133.223 24.6697C133.432 24.6697 133.607 24.6151 133.748 24.5059C133.895 24.3967 134.007 24.2537 134.085 24.0769C134.164 23.8949 134.203 23.6999 134.203 23.4919C134.203 23.2787 134.164 23.0837 134.085 22.9069C134.007 22.7301 133.895 22.5871 133.748 22.4779C133.607 22.3687 133.432 22.3141 133.223 22.3141C133.013 22.3141 132.836 22.3687 132.69 22.4779C132.543 22.5871 132.431 22.7301 132.352 22.9069C132.279 23.0837 132.243 23.2787 132.243 23.4919C132.243 23.6999 132.279 23.8949 132.352 24.0769C132.431 24.2537 132.543 24.3967 132.69 24.5059C132.836 24.6151 133.013 24.6697 133.223 24.6697ZM138.329 25.6369C137.963 25.6369 137.644 25.5771 137.373 25.4575C137.101 25.3327 136.876 25.1689 136.698 24.9661C136.521 24.7633 136.388 24.5345 136.298 24.2797C136.21 24.0197 136.165 23.7571 136.165 23.4919C136.165 23.2267 136.21 22.9667 136.298 22.7119C136.388 22.4571 136.521 22.2283 136.698 22.0255C136.876 21.8175 137.101 21.6537 137.373 21.5341C137.644 21.4093 137.963 21.3469 138.329 21.3469C138.7 21.3469 139.006 21.4015 139.246 21.5107C139.487 21.6147 139.677 21.7473 139.819 21.9085C139.965 22.0645 140.072 22.2231 140.14 22.3843C140.208 22.5403 140.25 22.6729 140.265 22.7821C140.287 22.8861 140.297 22.9381 140.297 22.9381H139.184C139.184 22.9381 139.173 22.9069 139.152 22.8445C139.137 22.7769 139.1 22.7015 139.042 22.6183C138.991 22.5299 138.909 22.4545 138.799 22.3921C138.69 22.3245 138.544 22.2907 138.36 22.2907C138.136 22.2907 137.948 22.3479 137.796 22.4623C137.65 22.5715 137.54 22.7171 137.467 22.8991C137.394 23.0811 137.357 23.2787 137.357 23.4919C137.357 23.7051 137.394 23.9027 137.467 24.0847C137.54 24.2667 137.65 24.4149 137.796 24.5293C137.948 24.6385 138.136 24.6931 138.36 24.6931C138.544 24.6931 138.69 24.6619 138.799 24.5995C138.909 24.5319 138.991 24.4565 139.042 24.3733C139.1 24.2849 139.137 24.2095 139.152 24.1471C139.173 24.0795 139.184 24.0457 139.184 24.0457H140.297C140.297 24.0457 140.287 24.1003 140.265 24.2095C140.25 24.3135 140.208 24.4461 140.14 24.6073C140.072 24.7633 139.965 24.9219 139.819 25.0831C139.677 25.2391 139.487 25.3717 139.246 25.4809C139.006 25.5849 138.7 25.6369 138.329 25.6369ZM143.175 25.6369C142.809 25.6369 142.493 25.5771 142.226 25.4575C141.959 25.3327 141.74 25.1689 141.567 24.9661C141.395 24.7581 141.264 24.5267 141.175 24.2719C141.092 24.0171 141.05 23.7545 141.05 23.4841C141.05 23.2241 141.089 22.9693 141.168 22.7197C141.251 22.4649 141.377 22.2335 141.544 22.0255C141.716 21.8175 141.933 21.6537 142.195 21.5341C142.461 21.4093 142.775 21.3469 143.135 21.3469C143.517 21.3469 143.854 21.4301 144.147 21.5965C144.445 21.7629 144.677 22.0099 144.845 22.3375C145.012 22.6599 145.095 23.0525 145.095 23.5153V23.8039H142.249C142.265 24.0535 142.351 24.2693 142.508 24.4513C142.67 24.6333 142.892 24.7243 143.175 24.7243C143.337 24.7243 143.467 24.7009 143.567 24.6541C143.671 24.6021 143.752 24.5449 143.81 24.4825C143.867 24.4149 143.906 24.3551 143.927 24.3031C143.948 24.2511 143.959 24.2251 143.959 24.2251H145.056C145.056 24.2251 145.043 24.2745 145.017 24.3733C144.996 24.4669 144.949 24.5839 144.876 24.7243C144.803 24.8647 144.696 25.0051 144.554 25.1455C144.419 25.2859 144.238 25.4029 144.013 25.4965C143.789 25.5901 143.509 25.6369 143.175 25.6369ZM142.249 23.0863H143.951C143.935 22.8003 143.849 22.5871 143.692 22.4467C143.535 22.3063 143.342 22.2361 143.112 22.2361C142.882 22.2361 142.686 22.3115 142.524 22.4623C142.362 22.6079 142.271 22.8159 142.249 23.0863ZM147.7 25.6369C147.355 25.6369 147.07 25.5901 146.845 25.4965C146.62 25.4029 146.44 25.2885 146.304 25.1533C146.173 25.0129 146.074 24.8751 146.006 24.7399C145.944 24.5995 145.901 24.4825 145.881 24.3889C145.865 24.2953 145.857 24.2485 145.857 24.2485H146.963C146.963 24.2485 146.971 24.2745 146.986 24.3265C147.002 24.3785 147.036 24.4383 147.088 24.5059C147.146 24.5735 147.226 24.6333 147.331 24.6853C147.436 24.7373 147.577 24.7633 147.755 24.7633C147.974 24.7633 148.123 24.7191 148.202 24.6307C148.285 24.5423 148.327 24.4539 148.327 24.3655C148.327 24.1783 148.173 24.0535 147.864 23.9911L147.3 23.8819C147.059 23.8351 146.832 23.7675 146.618 23.6791C146.409 23.5855 146.239 23.4581 146.108 23.2969C145.983 23.1305 145.92 22.9173 145.92 22.6573C145.92 22.4077 145.985 22.1841 146.116 21.9865C146.246 21.7889 146.432 21.6329 146.673 21.5185C146.918 21.4041 147.211 21.3469 147.551 21.3469C147.869 21.3469 148.133 21.3911 148.343 21.4795C148.557 21.5627 148.727 21.6693 148.852 21.7993C148.978 21.9241 149.072 22.0515 149.134 22.1815C149.197 22.3063 149.236 22.4129 149.252 22.5013C149.273 22.5845 149.283 22.6261 149.283 22.6261H148.217C148.217 22.6261 148.202 22.5923 148.17 22.5247C148.139 22.4519 148.073 22.3817 147.974 22.3141C147.88 22.2413 147.734 22.2049 147.535 22.2049C147.331 22.2049 147.19 22.2465 147.112 22.3297C147.033 22.4077 146.994 22.4909 146.994 22.5793C146.994 22.6833 147.038 22.7613 147.127 22.8133C147.222 22.8653 147.342 22.9069 147.488 22.9381L148.029 23.0473C148.426 23.1253 148.753 23.2631 149.009 23.4607C149.265 23.6531 149.393 23.9339 149.393 24.3031C149.393 24.5527 149.328 24.7789 149.197 24.9817C149.066 25.1845 148.876 25.3457 148.625 25.4653C148.374 25.5797 148.065 25.6369 147.7 25.6369ZM151.865 25.6369C151.52 25.6369 151.235 25.5901 151.01 25.4965C150.785 25.4029 150.605 25.2885 150.469 25.1533C150.338 25.0129 150.239 24.8751 150.171 24.7399C150.109 24.5995 150.066 24.4825 150.046 24.3889C150.03 24.2953 150.022 24.2485 150.022 24.2485H151.128C151.128 24.2485 151.136 24.2745 151.151 24.3265C151.167 24.3785 151.201 24.4383 151.253 24.5059C151.311 24.5735 151.391 24.6333 151.496 24.6853C151.601 24.7373 151.742 24.7633 151.92 24.7633C152.139 24.7633 152.288 24.7191 152.367 24.6307C152.45 24.5423 152.492 24.4539 152.492 24.3655C152.492 24.1783 152.338 24.0535 152.029 23.9911L151.465 23.8819C151.224 23.8351 150.997 23.7675 150.783 23.6791C150.574 23.5855 150.404 23.4581 150.273 23.2969C150.148 23.1305 150.085 22.9173 150.085 22.6573C150.085 22.4077 150.15 22.1841 150.281 21.9865C150.411 21.7889 150.597 21.6329 150.838 21.5185C151.083 21.4041 151.376 21.3469 151.716 21.3469C152.034 21.3469 152.298 21.3911 152.508 21.4795C152.722 21.5627 152.892 21.6693 153.017 21.7993C153.143 21.9241 153.237 22.0515 153.299 22.1815C153.362 22.3063 153.401 22.4129 153.417 22.5013C153.438 22.5845 153.448 22.6261 153.448 22.6261H152.382C152.382 22.6261 152.367 22.5923 152.335 22.5247C152.304 22.4519 152.238 22.3817 152.139 22.3141C152.045 22.2413 151.899 22.2049 151.7 22.2049C151.496 22.2049 151.355 22.2465 151.277 22.3297C151.198 22.4077 151.159 22.4909 151.159 22.5793C151.159 22.6833 151.203 22.7613 151.292 22.8133C151.387 22.8653 151.507 22.9069 151.653 22.9381L152.194 23.0473C152.591 23.1253 152.918 23.2631 153.174 23.4607C153.43 23.6531 153.558 23.9339 153.558 24.3031C153.558 24.5527 153.493 24.7789 153.362 24.9817C153.231 25.1845 153.041 25.3457 152.79 25.4653C152.539 25.5797 152.23 25.6369 151.865 25.6369ZM156.366 25.6369C156 25.6369 155.684 25.5771 155.418 25.4575C155.151 25.3327 154.932 25.1689 154.759 24.9661C154.587 24.7581 154.456 24.5267 154.367 24.2719C154.283 24.0171 154.242 23.7545 154.242 23.4841C154.242 23.2241 154.281 22.9693 154.359 22.7197C154.443 22.4649 154.569 22.2335 154.736 22.0255C154.908 21.8175 155.125 21.6537 155.386 21.5341C155.653 21.4093 155.967 21.3469 156.327 21.3469C156.709 21.3469 157.046 21.4301 157.339 21.5965C157.636 21.7629 157.869 22.0099 158.036 22.3375C158.203 22.6599 158.287 23.0525 158.287 23.5153V23.8039H155.441C155.457 24.0535 155.543 24.2693 155.7 24.4513C155.862 24.6333 156.084 24.7243 156.366 24.7243C156.529 24.7243 156.659 24.7009 156.758 24.6541C156.863 24.6021 156.944 24.5449 157.001 24.4825C157.059 24.4149 157.098 24.3551 157.119 24.3031C157.14 24.2511 157.15 24.2251 157.15 24.2251H158.248C158.248 24.2251 158.235 24.2745 158.209 24.3733C158.188 24.4669 158.141 24.5839 158.068 24.7243C157.995 24.8647 157.887 25.0051 157.746 25.1455C157.611 25.2859 157.43 25.4029 157.205 25.4965C156.98 25.5901 156.701 25.6369 156.366 25.6369ZM155.441 23.0863H157.143C157.127 22.8003 157.041 22.5871 156.884 22.4467C156.727 22.3063 156.533 22.2361 156.304 22.2361C156.074 22.2361 155.878 22.3115 155.716 22.4623C155.553 22.6079 155.462 22.8159 155.441 23.0863ZM160.892 25.6369C160.547 25.6369 160.261 25.5901 160.037 25.4965C159.812 25.4029 159.632 25.2885 159.496 25.1533C159.365 25.0129 159.266 24.8751 159.198 24.7399C159.135 24.5995 159.093 24.4825 159.073 24.3889C159.057 24.2953 159.049 24.2485 159.049 24.2485H160.155C160.155 24.2485 160.162 24.2745 160.178 24.3265C160.194 24.3785 160.228 24.4383 160.28 24.5059C160.337 24.5735 160.418 24.6333 160.523 24.6853C160.627 24.7373 160.769 24.7633 160.946 24.7633C161.166 24.7633 161.315 24.7191 161.393 24.6307C161.477 24.5423 161.519 24.4539 161.519 24.3655C161.519 24.1783 161.364 24.0535 161.056 23.9911L160.492 23.8819C160.251 23.8351 160.024 23.7675 159.81 23.6791C159.6 23.5855 159.43 23.4581 159.3 23.2969C159.175 23.1305 159.112 22.9173 159.112 22.6573C159.112 22.4077 159.177 22.1841 159.308 21.9865C159.438 21.7889 159.624 21.6329 159.865 21.5185C160.11 21.4041 160.403 21.3469 160.743 21.3469C161.061 21.3469 161.325 21.3911 161.534 21.4795C161.749 21.5627 161.919 21.6693 162.044 21.7993C162.169 21.9241 162.264 22.0515 162.326 22.1815C162.389 22.3063 162.428 22.4129 162.444 22.5013C162.464 22.5845 162.475 22.6261 162.475 22.6261H161.409C161.409 22.6261 161.393 22.5923 161.362 22.5247C161.331 22.4519 161.265 22.3817 161.166 22.3141C161.072 22.2413 160.925 22.2049 160.727 22.2049C160.523 22.2049 160.382 22.2465 160.304 22.3297C160.225 22.4077 160.186 22.4909 160.186 22.5793C160.186 22.6833 160.23 22.7613 160.319 22.8133C160.413 22.8653 160.533 22.9069 160.68 22.9381L161.221 23.0473C161.618 23.1253 161.945 23.2631 162.201 23.4607C162.457 23.6531 162.585 23.9339 162.585 24.3031C162.585 24.5527 162.519 24.7789 162.389 24.9817C162.258 25.1845 162.068 25.3457 161.817 25.4653C161.566 25.5797 161.257 25.6369 160.892 25.6369Z" fill="#082639"/>
<path d="M231.085 21.2473C231.721 21.2473 232.206 20.7709 232.206 20.148C232.206 19.5252 231.721 19.0488 231.085 19.0488C230.45 19.0488 229.965 19.5252 229.965 20.148C229.965 20.7709 230.45 21.2473 231.085 21.2473Z" fill="#CACED3"/>
<path d="M231.085 22.3467C230.45 22.3467 229.965 22.823 229.965 23.4459C229.965 24.0688 230.45 24.5451 231.085 24.5451C231.721 24.5451 232.206 24.0688 232.206 23.4459C232.206 22.823 231.721 22.3467 231.085 22.3467Z" fill="#CACED3"/>
<path d="M231.085 25.6445C230.45 25.6445 229.965 26.1209 229.965 26.7437C229.965 27.3666 230.45 27.843 231.085 27.843C231.721 27.843 232.206 27.3666 232.206 26.7437C232.206 26.1209 231.721 25.6445 231.085 25.6445Z" fill="#CACED3"/>
<path d="M127.052 152.242C127.052 159.273 125.481 166.218 122.45 172.589C119.419 178.96 115.001 184.603 109.508 189.119C104.014 193.636 97.5781 196.917 90.6529 198.732C83.7273 200.546 76.4807 200.851 69.4222 199.624C62.3643 198.396 55.666 195.666 49.7992 191.627C43.932 187.587 39.0388 182.335 35.4636 176.242C31.8885 170.148 29.7182 163.359 29.1056 156.355C28.4929 149.35 29.4527 142.298 31.9174 135.696L54.0377 143.64C52.7563 147.073 52.257 150.738 52.5755 154.38C52.894 158.022 54.0225 161.551 55.8811 164.719C57.7396 167.887 60.2837 170.617 63.3335 172.717C66.3837 174.817 69.8662 176.236 73.5353 176.874C77.2049 177.513 80.972 177.354 84.5725 176.411C88.1726 175.468 91.5188 173.762 94.3745 171.413C97.2302 169.065 99.5268 166.132 101.103 162.82C102.679 159.508 103.495 155.897 103.495 152.242H127.052Z" fill="#ADBCF2"/>
<path d="M77.9889 200.363C70.8207 200.363 63.7392 198.822 57.2433 195.849C50.7473 192.876 44.9943 188.543 40.3893 183.155C35.7842 177.767 32.4389 171.455 30.5886 164.662C28.7383 157.87 28.4281 150.762 29.6797 143.84C30.9312 136.917 33.7143 130.347 37.833 124.593C41.9517 118.839 47.306 114.039 53.5193 110.533C59.7325 107.027 66.6532 104.898 73.7955 104.297C80.9377 103.696 88.127 104.638 94.8586 107.055L86.7589 128.75C83.2593 127.493 79.5216 127.005 75.8089 127.317C72.0957 127.629 68.4976 128.736 65.2675 130.558C62.0374 132.382 59.2542 134.877 57.1129 137.868C54.9716 140.86 53.5251 144.275 52.8744 147.874C52.2237 151.473 52.3849 155.168 53.3468 158.699C54.3087 162.23 56.0477 165.512 58.4418 168.313C60.8359 171.114 63.8269 173.366 67.204 174.912C70.5811 176.458 74.2619 177.258 77.9889 177.258V200.363Z" fill="#82E6AC"/>
<path d="M30.5974 139.788C33.6999 128.431 40.9343 118.581 50.9344 112.098C60.9348 105.615 73.0089 102.947 84.8777 104.598C96.746 106.249 107.588 112.104 115.356 121.059C123.124 130.014 127.281 141.448 127.041 153.203L103.49 152.741C103.614 146.631 101.453 140.686 97.4148 136.031C93.3763 131.376 87.7403 128.331 81.5697 127.473C75.3996 126.615 69.1227 128.002 63.9238 131.372C58.7249 134.743 54.9642 139.863 53.3511 145.767L30.5974 139.788Z" fill="#F6D8FE"/>
<path d="M30.5974 139.788C32.265 133.684 35.142 127.961 39.0643 122.948C42.9865 117.934 47.8772 113.728 53.4569 110.568L65.2351 130.577C62.3343 132.22 59.7917 134.407 57.7528 137.013C55.7139 139.619 54.2179 142.594 53.3511 145.767L30.5974 139.788Z" fill="#FBD5C0"/>
<path d="M191.602 99.1562V94.8271H193.154C193.487 94.8271 193.764 94.8954 193.983 95.0319C194.207 95.1684 194.373 95.3459 194.483 95.5643C194.597 95.7788 194.654 96.003 194.654 96.237C194.654 96.4749 194.597 96.7031 194.483 96.9215C194.373 97.136 194.207 97.3134 193.983 97.4538C193.764 97.5903 193.487 97.6585 193.154 97.6585H192.178V99.1562H191.602ZM193.154 95.3302H192.178V97.1554H193.154C193.362 97.1554 193.534 97.1106 193.672 97.0209C193.809 96.9312 193.911 96.8181 193.977 96.6816C194.048 96.5412 194.083 96.395 194.083 96.2429C194.083 96.0908 194.048 95.9445 193.977 95.8041C193.911 95.6637 193.809 95.5506 193.672 95.4648C193.534 95.3751 193.362 95.3302 193.154 95.3302ZM195.327 99.1562V96.0557H195.886V96.4417H195.909C195.976 96.3247 196.074 96.2214 196.203 96.1317C196.333 96.042 196.515 95.9972 196.75 95.9972C196.817 95.9972 196.878 96.001 196.933 96.0088C196.987 96.0127 197.015 96.0147 197.015 96.0147V96.547C197.015 96.547 196.983 96.5451 196.921 96.5412C196.862 96.5334 196.799 96.5295 196.733 96.5295C196.462 96.5295 196.252 96.6075 196.103 96.7635C195.958 96.9156 195.886 97.1652 195.886 97.5123V99.1562H195.327ZM198.87 99.2146C198.537 99.2146 198.257 99.1386 198.03 98.9865C197.802 98.8305 197.63 98.6297 197.512 98.384C197.395 98.1383 197.336 97.8789 197.336 97.6059C197.336 97.329 197.395 97.0697 197.512 96.8279C197.63 96.5822 197.802 96.3833 198.03 96.2312C198.257 96.0752 198.537 95.9972 198.87 95.9972C199.204 95.9972 199.484 96.0752 199.711 96.2312C199.939 96.3833 200.111 96.5822 200.229 96.8279C200.346 97.0697 200.405 97.329 200.405 97.6059C200.405 97.8789 200.346 98.1383 200.229 98.384C200.111 98.6297 199.939 98.8305 199.711 98.9865C199.484 99.1386 199.204 99.2146 198.87 99.2146ZM198.87 98.7291C199.082 98.7291 199.259 98.6765 199.4 98.5712C199.545 98.462 199.653 98.3215 199.723 98.1499C199.798 97.9783 199.835 97.797 199.835 97.6059C199.835 97.4109 199.798 97.2295 199.723 97.0618C199.653 96.8902 199.545 96.7518 199.4 96.6465C199.259 96.5373 199.082 96.4827 198.87 96.4827C198.663 96.4827 198.486 96.5373 198.341 96.6465C198.196 96.7518 198.086 96.8902 198.012 97.0618C197.941 97.2295 197.906 97.4109 197.906 97.6059C197.906 97.797 197.941 97.9783 198.012 98.1499C198.086 98.3215 198.196 98.462 198.341 98.5712C198.486 98.6765 198.663 98.7291 198.87 98.7291ZM202.614 99.2146C202.359 99.2146 202.136 99.1698 201.944 99.0801C201.752 98.9865 201.591 98.8636 201.462 98.7115C201.336 98.5555 201.24 98.382 201.173 98.1909C201.111 97.9998 201.079 97.8048 201.079 97.6059C201.079 97.407 201.111 97.214 201.173 97.0268C201.236 96.8357 201.33 96.6621 201.456 96.5061C201.585 96.3501 201.746 96.2273 201.938 96.1376C202.13 96.044 202.355 95.9972 202.614 95.9972C202.865 95.9972 203.073 96.0342 203.237 96.1083C203.402 96.1824 203.533 96.276 203.631 96.3891C203.733 96.4983 203.808 96.6094 203.855 96.7225C203.906 96.8317 203.939 96.9234 203.955 96.9975C203.97 97.0716 203.978 97.1087 203.978 97.1087H203.437C203.437 97.1087 203.427 97.0775 203.408 97.0151C203.388 96.9488 203.351 96.8746 203.296 96.7927C203.241 96.7108 203.159 96.6387 203.049 96.5763C202.939 96.51 202.794 96.4768 202.614 96.4768C202.398 96.4768 202.216 96.5314 202.067 96.6406C201.922 96.7459 201.812 96.8844 201.738 97.056C201.667 97.2276 201.632 97.4109 201.632 97.6059C201.632 97.8009 201.667 97.9842 201.738 98.1558C201.812 98.3274 201.922 98.4678 202.067 98.577C202.216 98.6823 202.398 98.735 202.614 98.735C202.794 98.735 202.939 98.7038 203.049 98.6414C203.159 98.5751 203.241 98.5009 203.296 98.419C203.351 98.3371 203.388 98.265 203.408 98.2026C203.427 98.1363 203.437 98.1031 203.437 98.1031H203.978C203.978 98.1031 203.97 98.1402 203.955 98.2143C203.939 98.2884 203.906 98.382 203.855 98.4951C203.808 98.6043 203.733 98.7155 203.631 98.8286C203.533 98.9378 203.402 99.0294 203.237 99.1035C203.073 99.1776 202.865 99.2146 202.614 99.2146ZM206.162 99.2146C205.907 99.2146 205.685 99.1698 205.497 99.0801C205.313 98.9865 205.16 98.8617 205.039 98.7057C204.921 98.5497 204.833 98.3781 204.774 98.1909C204.715 97.9998 204.686 97.8048 204.686 97.6059C204.686 97.4109 204.713 97.2179 204.768 97.0268C204.827 96.8357 204.915 96.6621 205.033 96.5061C205.154 96.3501 205.305 96.2273 205.485 96.1376C205.67 96.044 205.887 95.9972 206.138 95.9972C206.405 95.9972 206.64 96.0576 206.844 96.1785C207.048 96.2994 207.208 96.4788 207.326 96.7167C207.444 96.9546 207.502 97.253 207.502 97.6118V97.7756H205.25C205.262 97.9511 205.303 98.1129 205.374 98.2611C205.448 98.4054 205.552 98.5224 205.685 98.6121C205.819 98.6979 205.977 98.7408 206.162 98.7408C206.322 98.7408 206.452 98.7155 206.55 98.6648C206.652 98.6102 206.732 98.5478 206.791 98.4776C206.85 98.4074 206.889 98.3469 206.908 98.2962C206.932 98.2416 206.944 98.2143 206.944 98.2143H207.467C207.467 98.2143 207.457 98.2494 207.438 98.3196C207.418 98.3859 207.383 98.4678 207.332 98.5653C207.281 98.6628 207.206 98.7622 207.108 98.8636C207.01 98.9611 206.885 99.045 206.732 99.1152C206.579 99.1815 206.389 99.2146 206.162 99.2146ZM205.256 97.3427H206.955C206.948 97.1399 206.905 96.9761 206.826 96.8513C206.748 96.7226 206.648 96.627 206.526 96.5646C206.405 96.5022 206.275 96.471 206.138 96.471C205.891 96.471 205.689 96.5509 205.533 96.7108C205.376 96.8668 205.284 97.0775 205.256 97.3427ZM209.405 99.2146C209.166 99.2146 208.968 99.1815 208.811 99.1152C208.658 99.0489 208.537 98.967 208.447 98.8695C208.356 98.7681 208.29 98.6687 208.247 98.5712C208.204 98.4698 208.176 98.3859 208.164 98.3196C208.153 98.2533 208.147 98.2202 208.147 98.2202H208.711C208.711 98.2202 208.717 98.2475 208.729 98.3021C208.744 98.3528 208.774 98.4132 208.817 98.4834C208.864 98.5497 208.935 98.6102 209.029 98.6648C209.127 98.7155 209.256 98.7408 209.417 98.7408C209.601 98.7408 209.744 98.6979 209.846 98.6121C209.948 98.5224 209.999 98.4132 209.999 98.2845C209.999 98.1714 209.958 98.0817 209.875 98.0154C209.797 97.9491 209.683 97.8984 209.534 97.8633L209.111 97.7638C208.954 97.7248 208.807 97.6722 208.67 97.6059C208.533 97.5396 208.421 97.4499 208.335 97.3368C208.253 97.2198 208.211 97.0755 208.211 96.9039C208.211 96.6387 208.311 96.4223 208.511 96.2546C208.711 96.083 208.972 95.9972 209.293 95.9972C209.509 95.9972 209.687 96.0283 209.828 96.0907C209.969 96.1492 210.081 96.2234 210.164 96.3131C210.25 96.4028 210.312 96.4925 210.352 96.5822C210.395 96.6719 210.422 96.7479 210.434 96.8103C210.446 96.8688 210.452 96.898 210.452 96.898H209.911C209.911 96.898 209.905 96.8766 209.893 96.8337C209.881 96.7869 209.854 96.7362 209.811 96.6816C209.772 96.6231 209.711 96.5724 209.628 96.5295C209.546 96.4827 209.436 96.4593 209.299 96.4593C209.111 96.4593 208.974 96.5022 208.888 96.588C208.801 96.6738 208.758 96.7674 208.758 96.8688C208.758 96.9663 208.797 97.0463 208.876 97.1087C208.958 97.1672 209.064 97.212 209.193 97.2432L209.623 97.3427C209.889 97.4051 210.109 97.5084 210.281 97.6527C210.457 97.7931 210.546 97.9959 210.546 98.2611C210.546 98.4327 210.501 98.5926 210.41 98.7408C210.32 98.8851 210.191 99.0002 210.022 99.086C209.854 99.1718 209.648 99.2146 209.405 99.2146ZM212.391 99.2146C212.152 99.2146 211.954 99.1815 211.797 99.1152C211.644 99.0489 211.523 98.967 211.433 98.8695C211.342 98.7681 211.276 98.6687 211.233 98.5712C211.19 98.4698 211.162 98.3859 211.15 98.3196C211.139 98.2533 211.133 98.2202 211.133 98.2202H211.697C211.697 98.2202 211.703 98.2475 211.715 98.3021C211.731 98.3528 211.76 98.4132 211.803 98.4834C211.85 98.5497 211.921 98.6102 212.015 98.6648C212.113 98.7155 212.242 98.7408 212.403 98.7408C212.587 98.7408 212.73 98.6979 212.832 98.6121C212.934 98.5224 212.985 98.4132 212.985 98.2845C212.985 98.1714 212.944 98.0817 212.861 98.0154C212.783 97.9491 212.669 97.8984 212.52 97.8633L212.097 97.7638C211.94 97.7248 211.793 97.6722 211.656 97.6059C211.519 97.5396 211.407 97.4499 211.321 97.3368C211.239 97.2198 211.197 97.0755 211.197 96.9039C211.197 96.6387 211.297 96.4223 211.497 96.2546C211.697 96.083 211.958 95.9972 212.279 95.9972C212.495 95.9972 212.673 96.0283 212.814 96.0907C212.956 96.1492 213.067 96.2234 213.15 96.3131C213.236 96.4028 213.299 96.4925 213.338 96.5822C213.381 96.6719 213.408 96.7479 213.42 96.8103C213.432 96.8688 213.438 96.898 213.438 96.898H212.897C212.897 96.898 212.891 96.8766 212.879 96.8337C212.867 96.7869 212.84 96.7362 212.797 96.6816C212.758 96.6231 212.697 96.5724 212.614 96.5295C212.532 96.4827 212.422 96.4593 212.285 96.4593C212.097 96.4593 211.96 96.5022 211.874 96.588C211.787 96.6738 211.744 96.7674 211.744 96.8688C211.744 96.9663 211.783 97.0463 211.862 97.1087C211.944 97.1672 212.05 97.212 212.179 97.2432L212.609 97.3427C212.875 97.4051 213.095 97.5084 213.267 97.6527C213.444 97.7931 213.532 97.9959 213.532 98.2611C213.532 98.4327 213.487 98.5926 213.397 98.7408C213.306 98.8851 213.177 99.0002 213.008 99.086C212.84 99.1718 212.634 99.2146 212.391 99.2146ZM216.797 94.8271V99.1562H216.233V95.7983L215.415 95.8041V95.4765L215.562 95.4297C215.77 95.3634 215.937 95.2913 216.062 95.2133C216.191 95.1353 216.311 95.028 216.421 94.8915L216.474 94.8271H216.797Z" fill="#4F4F4F"/>
<path d="M186.721 95.2559H176.431V99.1559H186.721V95.2559Z" fill="#FBD5C0"/>
<path d="M191.602 110.856V106.527H193.154C193.487 106.527 193.764 106.595 193.983 106.732C194.207 106.868 194.373 107.046 194.483 107.264C194.597 107.479 194.654 107.703 194.654 107.937C194.654 108.175 194.597 108.403 194.483 108.622C194.373 108.836 194.207 109.013 193.983 109.154C193.764 109.29 193.487 109.359 193.154 109.359H192.178V110.856H191.602ZM193.154 107.03H192.178V108.856H193.154C193.362 108.856 193.534 108.811 193.672 108.721C193.809 108.631 193.911 108.518 193.977 108.382C194.048 108.241 194.083 108.095 194.083 107.943C194.083 107.791 194.048 107.645 193.977 107.504C193.911 107.364 193.809 107.251 193.672 107.165C193.534 107.075 193.362 107.03 193.154 107.03ZM195.327 110.856V107.756H195.886V108.142H195.909C195.976 108.025 196.074 107.921 196.203 107.832C196.333 107.742 196.515 107.697 196.75 107.697C196.817 107.697 196.878 107.701 196.933 107.709C196.987 107.713 197.015 107.715 197.015 107.715V108.247C197.015 108.247 196.983 108.245 196.921 108.241C196.862 108.234 196.799 108.23 196.733 108.23C196.462 108.23 196.252 108.308 196.103 108.464C195.958 108.616 195.886 108.865 195.886 109.212V110.856H195.327ZM198.87 110.915C198.537 110.915 198.257 110.839 198.03 110.687C197.802 110.531 197.63 110.33 197.512 110.084C197.395 109.838 197.336 109.579 197.336 109.306C197.336 109.029 197.395 108.77 197.512 108.528C197.63 108.282 197.802 108.083 198.03 107.931C198.257 107.775 198.537 107.697 198.87 107.697C199.204 107.697 199.484 107.775 199.711 107.931C199.939 108.083 200.111 108.282 200.229 108.528C200.346 108.77 200.405 109.029 200.405 109.306C200.405 109.579 200.346 109.838 200.229 110.084C200.111 110.33 199.939 110.531 199.711 110.687C199.484 110.839 199.204 110.915 198.87 110.915ZM198.87 110.429C199.082 110.429 199.259 110.377 199.4 110.271C199.545 110.162 199.653 110.022 199.723 109.85C199.798 109.678 199.835 109.497 199.835 109.306C199.835 109.111 199.798 108.93 199.723 108.762C199.653 108.59 199.545 108.452 199.4 108.347C199.259 108.237 199.082 108.183 198.87 108.183C198.663 108.183 198.486 108.237 198.341 108.347C198.196 108.452 198.086 108.59 198.012 108.762C197.941 108.93 197.906 109.111 197.906 109.306C197.906 109.497 197.941 109.678 198.012 109.85C198.086 110.022 198.196 110.162 198.341 110.271C198.486 110.377 198.663 110.429 198.87 110.429ZM202.614 110.915C202.359 110.915 202.136 110.87 201.944 110.78C201.752 110.687 201.591 110.564 201.462 110.412C201.336 110.256 201.24 110.082 201.173 109.891C201.111 109.7 201.079 109.505 201.079 109.306C201.079 109.107 201.111 108.914 201.173 108.727C201.236 108.536 201.33 108.362 201.456 108.206C201.585 108.05 201.746 107.927 201.938 107.838C202.13 107.744 202.355 107.697 202.614 107.697C202.865 107.697 203.073 107.734 203.237 107.808C203.402 107.883 203.533 107.976 203.631 108.089C203.733 108.198 203.808 108.31 203.855 108.423C203.906 108.532 203.939 108.623 203.955 108.698C203.97 108.772 203.978 108.809 203.978 108.809H203.437C203.437 108.809 203.427 108.778 203.408 108.715C203.388 108.649 203.351 108.575 203.296 108.493C203.241 108.411 203.159 108.339 203.049 108.276C202.939 108.21 202.794 108.177 202.614 108.177C202.398 108.177 202.216 108.232 202.067 108.341C201.922 108.446 201.812 108.585 201.738 108.756C201.667 108.928 201.632 109.111 201.632 109.306C201.632 109.501 201.667 109.684 201.738 109.856C201.812 110.027 201.922 110.168 202.067 110.277C202.216 110.382 202.398 110.435 202.614 110.435C202.794 110.435 202.939 110.404 203.049 110.341C203.159 110.275 203.241 110.201 203.296 110.119C203.351 110.037 203.388 109.965 203.408 109.903C203.427 109.836 203.437 109.803 203.437 109.803H203.978C203.978 109.803 203.97 109.84 203.955 109.914C203.939 109.988 203.906 110.082 203.855 110.195C203.808 110.304 203.733 110.416 203.631 110.529C203.533 110.638 203.402 110.729 203.237 110.804C203.073 110.878 202.865 110.915 202.614 110.915ZM206.162 110.915C205.907 110.915 205.685 110.87 205.497 110.78C205.313 110.687 205.16 110.562 205.039 110.406C204.921 110.25 204.833 110.078 204.774 109.891C204.715 109.7 204.686 109.505 204.686 109.306C204.686 109.111 204.713 108.918 204.768 108.727C204.827 108.536 204.915 108.362 205.033 108.206C205.154 108.05 205.305 107.927 205.485 107.838C205.67 107.744 205.887 107.697 206.138 107.697C206.405 107.697 206.64 107.758 206.844 107.879C207.048 107.999 207.208 108.179 207.326 108.417C207.444 108.655 207.502 108.953 207.502 109.312V109.476H205.25C205.262 109.651 205.303 109.813 205.374 109.961C205.448 110.106 205.552 110.223 205.685 110.312C205.819 110.398 205.977 110.441 206.162 110.441C206.322 110.441 206.452 110.416 206.55 110.365C206.652 110.31 206.732 110.248 206.791 110.178C206.85 110.107 206.889 110.047 206.908 109.996C206.932 109.942 206.944 109.914 206.944 109.914H207.467C207.467 109.914 207.457 109.949 207.438 110.02C207.418 110.086 207.383 110.168 207.332 110.265C207.281 110.363 207.206 110.462 207.108 110.564C207.01 110.661 206.885 110.745 206.732 110.815C206.579 110.882 206.389 110.915 206.162 110.915ZM205.256 109.043H206.955C206.948 108.84 206.905 108.676 206.826 108.551C206.748 108.423 206.648 108.327 206.526 108.265C206.405 108.202 206.275 108.171 206.138 108.171C205.891 108.171 205.689 108.251 205.533 108.411C205.376 108.567 205.284 108.778 205.256 109.043ZM209.405 110.915C209.166 110.915 208.968 110.882 208.811 110.815C208.658 110.749 208.537 110.667 208.447 110.57C208.356 110.468 208.29 110.369 208.247 110.271C208.204 110.17 208.176 110.086 208.164 110.02C208.153 109.953 208.147 109.92 208.147 109.92H208.711C208.711 109.92 208.717 109.948 208.729 110.002C208.744 110.053 208.774 110.113 208.817 110.183C208.864 110.25 208.935 110.31 209.029 110.365C209.127 110.416 209.256 110.441 209.417 110.441C209.601 110.441 209.744 110.398 209.846 110.312C209.948 110.223 209.999 110.113 209.999 109.985C209.999 109.871 209.958 109.782 209.875 109.716C209.797 109.649 209.683 109.598 209.534 109.563L209.111 109.464C208.954 109.425 208.807 109.372 208.67 109.306C208.533 109.24 208.421 109.15 208.335 109.037C208.253 108.92 208.211 108.776 208.211 108.604C208.211 108.339 208.311 108.122 208.511 107.955C208.711 107.783 208.972 107.697 209.293 107.697C209.509 107.697 209.687 107.728 209.828 107.791C209.969 107.849 210.081 107.923 210.164 108.013C210.25 108.103 210.312 108.193 210.352 108.282C210.395 108.372 210.422 108.448 210.434 108.51C210.446 108.569 210.452 108.598 210.452 108.598H209.911C209.911 108.598 209.905 108.577 209.893 108.534C209.881 108.487 209.854 108.436 209.811 108.382C209.772 108.323 209.711 108.272 209.628 108.23C209.546 108.183 209.436 108.159 209.299 108.159C209.111 108.159 208.974 108.202 208.888 108.288C208.801 108.374 208.758 108.467 208.758 108.569C208.758 108.666 208.797 108.746 208.876 108.809C208.958 108.867 209.064 108.912 209.193 108.943L209.623 109.043C209.889 109.105 210.109 109.209 210.281 109.353C210.457 109.493 210.546 109.696 210.546 109.961C210.546 110.133 210.501 110.293 210.41 110.441C210.32 110.585 210.191 110.7 210.022 110.786C209.854 110.872 209.648 110.915 209.405 110.915ZM212.391 110.915C212.152 110.915 211.954 110.882 211.797 110.815C211.644 110.749 211.523 110.667 211.433 110.57C211.342 110.468 211.276 110.369 211.233 110.271C211.19 110.17 211.162 110.086 211.15 110.02C211.139 109.953 211.133 109.92 211.133 109.92H211.697C211.697 109.92 211.703 109.948 211.715 110.002C211.731 110.053 211.76 110.113 211.803 110.183C211.85 110.25 211.921 110.31 212.015 110.365C212.113 110.416 212.242 110.441 212.403 110.441C212.587 110.441 212.73 110.398 212.832 110.312C212.934 110.223 212.985 110.113 212.985 109.985C212.985 109.871 212.944 109.782 212.861 109.716C212.783 109.649 212.669 109.598 212.52 109.563L212.097 109.464C211.94 109.425 211.793 109.372 211.656 109.306C211.519 109.24 211.407 109.15 211.321 109.037C211.239 108.92 211.197 108.776 211.197 108.604C211.197 108.339 211.297 108.122 211.497 107.955C211.697 107.783 211.958 107.697 212.279 107.697C212.495 107.697 212.673 107.728 212.814 107.791C212.956 107.849 213.067 107.923 213.15 108.013C213.236 108.103 213.299 108.193 213.338 108.282C213.381 108.372 213.408 108.448 213.42 108.51C213.432 108.569 213.438 108.598 213.438 108.598H212.897C212.897 108.598 212.891 108.577 212.879 108.534C212.867 108.487 212.84 108.436 212.797 108.382C212.758 108.323 212.697 108.272 212.614 108.23C212.532 108.183 212.422 108.159 212.285 108.159C212.097 108.159 211.96 108.202 211.874 108.288C211.787 108.374 211.744 108.467 211.744 108.569C211.744 108.666 211.783 108.746 211.862 108.809C211.944 108.867 212.05 108.912 212.179 108.943L212.609 109.043C212.875 109.105 213.095 109.209 213.267 109.353C213.444 109.493 213.532 109.696 213.532 109.961C213.532 110.133 213.487 110.293 213.397 110.441C213.306 110.585 213.177 110.7 213.008 110.786C212.84 110.872 212.634 110.915 212.391 110.915ZM215.656 110.856V110.453L216.609 109.575C216.876 109.329 217.109 109.115 217.309 108.932C217.513 108.744 217.671 108.563 217.785 108.388C217.899 108.212 217.955 108.019 217.955 107.808C217.955 107.633 217.912 107.485 217.826 107.364C217.744 107.243 217.636 107.151 217.503 107.089C217.373 107.023 217.238 106.989 217.097 106.989C216.913 106.989 216.762 107.021 216.644 107.083C216.527 107.145 216.436 107.223 216.374 107.317C216.311 107.407 216.266 107.498 216.239 107.592C216.211 107.682 216.195 107.758 216.191 107.82C216.188 107.883 216.186 107.914 216.186 107.914H215.633C215.633 107.914 215.635 107.879 215.639 107.808C215.643 107.738 215.656 107.648 215.68 107.539C215.707 107.43 215.75 107.315 215.809 107.194C215.868 107.069 215.95 106.952 216.056 106.843C216.166 106.734 216.305 106.644 216.474 106.574C216.646 106.504 216.856 106.469 217.103 106.469C217.354 106.469 217.587 106.521 217.803 106.627C218.022 106.728 218.199 106.878 218.332 107.077C218.465 107.272 218.532 107.512 218.532 107.797C218.532 108.058 218.465 108.296 218.332 108.51C218.202 108.721 218.03 108.928 217.814 109.13C217.599 109.333 217.364 109.552 217.109 109.786L216.509 110.336H218.626V110.856H215.656Z" fill="#4F4F4F"/>
<path d="M186.721 106.956H176.431V110.856H186.721V106.956Z" fill="#ADBCF2"/>
<path d="M191.602 123.044V118.715H193.154C193.487 118.715 193.764 118.783 193.983 118.919C194.207 119.056 194.373 119.233 194.483 119.452C194.597 119.666 194.654 119.891 194.654 120.125C194.654 120.362 194.597 120.591 194.483 120.809C194.373 121.024 194.207 121.201 193.983 121.341C193.764 121.478 193.487 121.546 193.154 121.546H192.178V123.044H191.602ZM193.154 119.218H192.178V121.043H193.154C193.362 121.043 193.534 120.998 193.672 120.908C193.809 120.819 193.911 120.706 193.977 120.569C194.048 120.429 194.083 120.283 194.083 120.13C194.083 119.978 194.048 119.832 193.977 119.692C193.911 119.551 193.809 119.438 193.672 119.352C193.534 119.263 193.362 119.218 193.154 119.218ZM195.327 123.044V119.943H195.886V120.329H195.909C195.976 120.212 196.074 120.109 196.203 120.019C196.333 119.93 196.515 119.885 196.75 119.885C196.817 119.885 196.878 119.889 196.933 119.896C196.987 119.9 197.015 119.902 197.015 119.902V120.435C197.015 120.435 196.983 120.433 196.921 120.429C196.862 120.421 196.799 120.417 196.733 120.417C196.462 120.417 196.252 120.495 196.103 120.651C195.958 120.803 195.886 121.053 195.886 121.4V123.044H195.327ZM198.87 123.102C198.537 123.102 198.257 123.026 198.03 122.874C197.802 122.718 197.63 122.517 197.512 122.272C197.395 122.026 197.336 121.766 197.336 121.493C197.336 121.217 197.395 120.957 197.512 120.715C197.63 120.47 197.802 120.271 198.03 120.119C198.257 119.963 198.537 119.885 198.87 119.885C199.204 119.885 199.484 119.963 199.711 120.119C199.939 120.271 200.111 120.47 200.229 120.715C200.346 120.957 200.405 121.217 200.405 121.493C200.405 121.766 200.346 122.026 200.229 122.272C200.111 122.517 199.939 122.718 199.711 122.874C199.484 123.026 199.204 123.102 198.87 123.102ZM198.87 122.617C199.082 122.617 199.259 122.564 199.4 122.459C199.545 122.35 199.653 122.209 199.723 122.038C199.798 121.866 199.835 121.685 199.835 121.493C199.835 121.298 199.798 121.117 199.723 120.949C199.653 120.778 199.545 120.639 199.4 120.534C199.259 120.425 199.082 120.37 198.87 120.37C198.663 120.37 198.486 120.425 198.341 120.534C198.196 120.639 198.086 120.778 198.012 120.949C197.941 121.117 197.906 121.298 197.906 121.493C197.906 121.685 197.941 121.866 198.012 122.038C198.086 122.209 198.196 122.35 198.341 122.459C198.486 122.564 198.663 122.617 198.87 122.617ZM202.614 123.102C202.359 123.102 202.136 123.057 201.944 122.968C201.752 122.874 201.591 122.751 201.462 122.599C201.336 122.443 201.24 122.27 201.173 122.079C201.111 121.887 201.079 121.692 201.079 121.493C201.079 121.295 201.111 121.102 201.173 120.914C201.236 120.723 201.33 120.55 201.456 120.394C201.585 120.238 201.746 120.115 201.938 120.025C202.13 119.932 202.355 119.885 202.614 119.885C202.865 119.885 203.073 119.922 203.237 119.996C203.402 120.07 203.533 120.164 203.631 120.277C203.733 120.386 203.808 120.497 203.855 120.61C203.906 120.719 203.939 120.811 203.955 120.885C203.97 120.959 203.978 120.996 203.978 120.996H203.437C203.437 120.996 203.427 120.965 203.408 120.903C203.388 120.836 203.351 120.762 203.296 120.68C203.241 120.598 203.159 120.526 203.049 120.464C202.939 120.398 202.794 120.364 202.614 120.364C202.398 120.364 202.216 120.419 202.067 120.528C201.922 120.634 201.812 120.772 201.738 120.944C201.667 121.115 201.632 121.298 201.632 121.493C201.632 121.688 201.667 121.872 201.738 122.043C201.812 122.215 201.922 122.355 202.067 122.465C202.216 122.57 202.398 122.623 202.614 122.623C202.794 122.623 202.939 122.591 203.049 122.529C203.159 122.463 203.241 122.389 203.296 122.307C203.351 122.225 203.388 122.153 203.408 122.09C203.427 122.024 203.437 121.991 203.437 121.991H203.978C203.978 121.991 203.97 122.028 203.955 122.102C203.939 122.176 203.906 122.27 203.855 122.383C203.808 122.492 203.733 122.603 203.631 122.716C203.533 122.825 203.402 122.917 203.237 122.991C203.073 123.065 202.865 123.102 202.614 123.102ZM206.162 123.102C205.907 123.102 205.685 123.057 205.497 122.968C205.313 122.874 205.16 122.749 205.039 122.593C204.921 122.437 204.833 122.266 204.774 122.079C204.715 121.887 204.686 121.692 204.686 121.493C204.686 121.298 204.713 121.105 204.768 120.914C204.827 120.723 204.915 120.55 205.033 120.394C205.154 120.238 205.305 120.115 205.485 120.025C205.67 119.932 205.887 119.885 206.138 119.885C206.405 119.885 206.64 119.945 206.844 120.066C207.048 120.187 207.208 120.366 207.326 120.604C207.444 120.842 207.502 121.141 207.502 121.499V121.663H205.25C205.262 121.839 205.303 122.001 205.374 122.149C205.448 122.293 205.552 122.41 205.685 122.5C205.819 122.586 205.977 122.628 206.162 122.628C206.322 122.628 206.452 122.603 206.55 122.552C206.652 122.498 206.732 122.435 206.791 122.365C206.85 122.295 206.889 122.234 206.908 122.184C206.932 122.129 206.944 122.102 206.944 122.102H207.467C207.467 122.102 207.457 122.137 207.438 122.207C207.418 122.273 207.383 122.355 207.332 122.453C207.281 122.55 207.206 122.65 207.108 122.751C207.01 122.849 206.885 122.933 206.732 123.003C206.579 123.069 206.389 123.102 206.162 123.102ZM205.256 121.23H206.955C206.948 121.027 206.905 120.864 206.826 120.739C206.748 120.61 206.648 120.515 206.526 120.452C206.405 120.39 206.275 120.359 206.138 120.359C205.891 120.359 205.689 120.439 205.533 120.598C205.376 120.754 205.284 120.965 205.256 121.23ZM209.405 123.102C209.166 123.102 208.968 123.069 208.811 123.003C208.658 122.937 208.537 122.855 208.447 122.757C208.356 122.656 208.29 122.556 208.247 122.459C208.204 122.357 208.176 122.273 208.164 122.207C208.153 122.141 208.147 122.108 208.147 122.108H208.711C208.711 122.108 208.717 122.135 208.729 122.19C208.744 122.24 208.774 122.301 208.817 122.371C208.864 122.437 208.935 122.498 209.029 122.552C209.127 122.603 209.256 122.628 209.417 122.628C209.601 122.628 209.744 122.586 209.846 122.5C209.948 122.41 209.999 122.301 209.999 122.172C209.999 122.059 209.958 121.969 209.875 121.903C209.797 121.837 209.683 121.786 209.534 121.751L209.111 121.651C208.954 121.612 208.807 121.56 208.67 121.493C208.533 121.427 208.421 121.337 208.335 121.224C208.253 121.107 208.211 120.963 208.211 120.791C208.211 120.526 208.311 120.31 208.511 120.142C208.711 119.971 208.972 119.885 209.293 119.885C209.509 119.885 209.687 119.916 209.828 119.978C209.969 120.037 210.081 120.111 210.164 120.201C210.25 120.29 210.312 120.38 210.352 120.47C210.395 120.559 210.422 120.636 210.434 120.698C210.446 120.756 210.452 120.786 210.452 120.786H209.911C209.911 120.786 209.905 120.764 209.893 120.721C209.881 120.674 209.854 120.624 209.811 120.569C209.772 120.511 209.711 120.46 209.628 120.417C209.546 120.37 209.436 120.347 209.299 120.347C209.111 120.347 208.974 120.39 208.888 120.476C208.801 120.561 208.758 120.655 208.758 120.756C208.758 120.854 208.797 120.934 208.876 120.996C208.958 121.055 209.064 121.1 209.193 121.131L209.623 121.23C209.889 121.293 210.109 121.396 210.281 121.54C210.457 121.681 210.546 121.884 210.546 122.149C210.546 122.32 210.501 122.48 210.41 122.628C210.32 122.773 210.191 122.888 210.022 122.974C209.854 123.059 209.648 123.102 209.405 123.102ZM212.391 123.102C212.152 123.102 211.954 123.069 211.797 123.003C211.644 122.937 211.523 122.855 211.433 122.757C211.342 122.656 211.276 122.556 211.233 122.459C211.19 122.357 211.162 122.273 211.15 122.207C211.139 122.141 211.133 122.108 211.133 122.108H211.697C211.697 122.108 211.703 122.135 211.715 122.19C211.731 122.24 211.76 122.301 211.803 122.371C211.85 122.437 211.921 122.498 212.015 122.552C212.113 122.603 212.242 122.628 212.403 122.628C212.587 122.628 212.73 122.586 212.832 122.5C212.934 122.41 212.985 122.301 212.985 122.172C212.985 122.059 212.944 121.969 212.861 121.903C212.783 121.837 212.669 121.786 212.52 121.751L212.097 121.651C211.94 121.612 211.793 121.56 211.656 121.493C211.519 121.427 211.407 121.337 211.321 121.224C211.239 121.107 211.197 120.963 211.197 120.791C211.197 120.526 211.297 120.31 211.497 120.142C211.697 119.971 211.958 119.885 212.279 119.885C212.495 119.885 212.673 119.916 212.814 119.978C212.956 120.037 213.067 120.111 213.15 120.201C213.236 120.29 213.299 120.38 213.338 120.47C213.381 120.559 213.408 120.636 213.42 120.698C213.432 120.756 213.438 120.786 213.438 120.786H212.897C212.897 120.786 212.891 120.764 212.879 120.721C212.867 120.674 212.84 120.624 212.797 120.569C212.758 120.511 212.697 120.46 212.614 120.417C212.532 120.37 212.422 120.347 212.285 120.347C212.097 120.347 211.96 120.39 211.874 120.476C211.787 120.561 211.744 120.655 211.744 120.756C211.744 120.854 211.783 120.934 211.862 120.996C211.944 121.055 212.05 121.1 212.179 121.131L212.609 121.23C212.875 121.293 213.095 121.396 213.267 121.54C213.444 121.681 213.532 121.884 213.532 122.149C213.532 122.32 213.487 122.48 213.397 122.628C213.306 122.773 213.177 122.888 213.008 122.974C212.84 123.059 212.634 123.102 212.391 123.102ZM217.091 123.102C216.836 123.102 216.593 123.053 216.362 122.956C216.135 122.858 215.948 122.71 215.803 122.511C215.662 122.309 215.592 122.053 215.592 121.745H216.139C216.139 121.944 216.184 122.108 216.274 122.236C216.368 122.365 216.487 122.461 216.632 122.523C216.781 122.585 216.934 122.617 217.091 122.617C217.26 122.617 217.415 122.585 217.556 122.523C217.697 122.457 217.81 122.361 217.897 122.236C217.983 122.112 218.026 121.961 218.026 121.786C218.026 121.556 217.95 121.375 217.797 121.242C217.644 121.105 217.44 121.037 217.185 121.037H216.597V120.587H217.185C217.397 120.587 217.577 120.524 217.726 120.4C217.879 120.275 217.955 120.105 217.955 119.891C217.955 119.735 217.914 119.602 217.832 119.493C217.754 119.38 217.648 119.292 217.514 119.23C217.385 119.167 217.244 119.136 217.091 119.136C216.946 119.136 216.805 119.169 216.668 119.235C216.534 119.298 216.425 119.393 216.338 119.522C216.252 119.651 216.209 119.815 216.209 120.013H215.674C215.674 119.709 215.743 119.458 215.88 119.259C216.021 119.056 216.199 118.906 216.415 118.808C216.634 118.707 216.864 118.656 217.103 118.656C217.346 118.656 217.573 118.705 217.785 118.803C218.001 118.896 218.175 119.033 218.308 119.212C218.442 119.387 218.508 119.598 218.508 119.844C218.508 120.078 218.449 120.277 218.332 120.441C218.214 120.6 218.065 120.715 217.885 120.786V120.815C218.093 120.885 218.263 121.004 218.396 121.172C218.53 121.339 218.596 121.55 218.596 121.804C218.596 122.073 218.526 122.305 218.385 122.5C218.244 122.695 218.059 122.845 217.832 122.95C217.605 123.052 217.358 123.102 217.091 123.102Z" fill="#4F4F4F"/>
<path d="M186.721 119.144H176.431V123.044H186.721V119.144Z" fill="#82E6AC"/>
<path d="M191.602 135.231V130.902H193.154C193.487 130.902 193.764 130.971 193.983 131.107C194.207 131.244 194.373 131.421 194.483 131.639C194.597 131.854 194.654 132.078 194.654 132.312C194.654 132.55 194.597 132.778 194.483 132.997C194.373 133.211 194.207 133.389 193.983 133.529C193.764 133.665 193.487 133.734 193.154 133.734H192.178V135.231H191.602ZM193.154 131.405H192.178V133.231H193.154C193.362 133.231 193.534 133.186 193.672 133.096C193.809 133.006 193.911 132.893 193.977 132.757C194.048 132.616 194.083 132.47 194.083 132.318C194.083 132.166 194.048 132.02 193.977 131.879C193.911 131.739 193.809 131.626 193.672 131.54C193.534 131.45 193.362 131.405 193.154 131.405ZM195.327 135.231V132.131H195.886V132.517H195.909C195.976 132.4 196.074 132.297 196.203 132.207C196.333 132.117 196.515 132.072 196.75 132.072C196.817 132.072 196.878 132.076 196.933 132.084C196.987 132.088 197.015 132.09 197.015 132.09V132.622C197.015 132.622 196.983 132.62 196.921 132.616C196.862 132.609 196.799 132.605 196.733 132.605C196.462 132.605 196.252 132.683 196.103 132.839C195.958 132.991 195.886 133.24 195.886 133.587V135.231H195.327ZM198.87 135.29C198.537 135.29 198.257 135.214 198.03 135.062C197.802 134.906 197.63 134.705 197.512 134.459C197.395 134.213 197.336 133.954 197.336 133.681C197.336 133.404 197.395 133.145 197.512 132.903C197.63 132.657 197.802 132.458 198.03 132.306C198.257 132.15 198.537 132.072 198.87 132.072C199.204 132.072 199.484 132.15 199.711 132.306C199.939 132.458 200.111 132.657 200.229 132.903C200.346 133.145 200.405 133.404 200.405 133.681C200.405 133.954 200.346 134.213 200.229 134.459C200.111 134.705 199.939 134.906 199.711 135.062C199.484 135.214 199.204 135.29 198.87 135.29ZM198.87 134.804C199.082 134.804 199.259 134.752 199.4 134.646C199.545 134.537 199.653 134.397 199.723 134.225C199.798 134.054 199.835 133.872 199.835 133.681C199.835 133.486 199.798 133.305 199.723 133.137C199.653 132.965 199.545 132.827 199.4 132.722C199.259 132.612 199.082 132.558 198.87 132.558C198.663 132.558 198.486 132.612 198.341 132.722C198.196 132.827 198.086 132.965 198.012 133.137C197.941 133.305 197.906 133.486 197.906 133.681C197.906 133.872 197.941 134.054 198.012 134.225C198.086 134.397 198.196 134.537 198.341 134.646C198.486 134.752 198.663 134.804 198.87 134.804ZM202.614 135.29C202.359 135.29 202.136 135.245 201.944 135.155C201.752 135.062 201.591 134.939 201.462 134.787C201.336 134.631 201.24 134.457 201.173 134.266C201.111 134.075 201.079 133.88 201.079 133.681C201.079 133.482 201.111 133.289 201.173 133.102C201.236 132.911 201.33 132.737 201.456 132.581C201.585 132.425 201.746 132.302 201.938 132.213C202.13 132.119 202.355 132.072 202.614 132.072C202.865 132.072 203.073 132.109 203.237 132.183C203.402 132.258 203.533 132.351 203.631 132.464C203.733 132.573 203.808 132.685 203.855 132.798C203.906 132.907 203.939 132.999 203.955 133.073C203.97 133.147 203.978 133.184 203.978 133.184H203.437C203.437 133.184 203.427 133.153 203.408 133.09C203.388 133.024 203.351 132.95 203.296 132.868C203.241 132.786 203.159 132.714 203.049 132.652C202.939 132.585 202.794 132.552 202.614 132.552C202.398 132.552 202.216 132.607 202.067 132.716C201.922 132.821 201.812 132.96 201.738 133.131C201.667 133.303 201.632 133.486 201.632 133.681C201.632 133.876 201.667 134.059 201.738 134.231C201.812 134.403 201.922 134.543 202.067 134.652C202.216 134.758 202.398 134.81 202.614 134.81C202.794 134.81 202.939 134.779 203.049 134.717C203.159 134.65 203.241 134.576 203.296 134.494C203.351 134.412 203.388 134.34 203.408 134.278C203.427 134.211 203.437 134.178 203.437 134.178H203.978C203.978 134.178 203.97 134.215 203.955 134.289C203.939 134.364 203.906 134.457 203.855 134.57C203.808 134.679 203.733 134.791 203.631 134.904C203.533 135.013 203.402 135.105 203.237 135.179C203.073 135.253 202.865 135.29 202.614 135.29ZM206.162 135.29C205.907 135.29 205.685 135.245 205.497 135.155C205.313 135.062 205.16 134.937 205.039 134.781C204.921 134.625 204.833 134.453 204.774 134.266C204.715 134.075 204.686 133.88 204.686 133.681C204.686 133.486 204.713 133.293 204.768 133.102C204.827 132.911 204.915 132.737 205.033 132.581C205.154 132.425 205.305 132.302 205.485 132.213C205.67 132.119 205.887 132.072 206.138 132.072C206.405 132.072 206.64 132.133 206.844 132.254C207.048 132.375 207.208 132.554 207.326 132.792C207.444 133.03 207.502 133.328 207.502 133.687V133.851H205.25C205.262 134.026 205.303 134.188 205.374 134.336C205.448 134.481 205.552 134.598 205.685 134.687C205.819 134.773 205.977 134.816 206.162 134.816C206.322 134.816 206.452 134.791 206.55 134.74C206.652 134.685 206.732 134.623 206.791 134.553C206.85 134.483 206.889 134.422 206.908 134.371C206.932 134.317 206.944 134.289 206.944 134.289H207.467C207.467 134.289 207.457 134.325 207.438 134.395C207.418 134.461 207.383 134.543 207.332 134.64C207.281 134.738 207.206 134.837 207.108 134.939C207.01 135.036 206.885 135.12 206.732 135.19C206.579 135.257 206.389 135.29 206.162 135.29ZM205.256 133.418H206.955C206.948 133.215 206.905 133.051 206.826 132.926C206.748 132.798 206.648 132.702 206.526 132.64C206.405 132.577 206.275 132.546 206.138 132.546C205.891 132.546 205.689 132.626 205.533 132.786C205.376 132.942 205.284 133.153 205.256 133.418ZM209.405 135.29C209.166 135.29 208.968 135.257 208.811 135.19C208.658 135.124 208.537 135.042 208.447 134.945C208.356 134.843 208.29 134.744 208.247 134.646C208.204 134.545 208.176 134.461 208.164 134.395C208.153 134.328 208.147 134.295 208.147 134.295H208.711C208.711 134.295 208.717 134.323 208.729 134.377C208.744 134.428 208.774 134.488 208.817 134.559C208.864 134.625 208.935 134.685 209.029 134.74C209.127 134.791 209.256 134.816 209.417 134.816C209.601 134.816 209.744 134.773 209.846 134.687C209.948 134.598 209.999 134.488 209.999 134.36C209.999 134.247 209.958 134.157 209.875 134.091C209.797 134.024 209.683 133.974 209.534 133.938L209.111 133.839C208.954 133.8 208.807 133.747 208.67 133.681C208.533 133.615 208.421 133.525 208.335 133.412C208.253 133.295 208.211 133.151 208.211 132.979C208.211 132.714 208.311 132.497 208.511 132.33C208.711 132.158 208.972 132.072 209.293 132.072C209.509 132.072 209.687 132.104 209.828 132.166C209.969 132.224 210.081 132.299 210.164 132.388C210.25 132.478 210.312 132.568 210.352 132.657C210.395 132.747 210.422 132.823 210.434 132.885C210.446 132.944 210.452 132.973 210.452 132.973H209.911C209.911 132.973 209.905 132.952 209.893 132.909C209.881 132.862 209.854 132.811 209.811 132.757C209.772 132.698 209.711 132.648 209.628 132.605C209.546 132.558 209.436 132.534 209.299 132.534C209.111 132.534 208.974 132.577 208.888 132.663C208.801 132.749 208.758 132.843 208.758 132.944C208.758 133.041 208.797 133.121 208.876 133.184C208.958 133.242 209.064 133.287 209.193 133.318L209.623 133.418C209.889 133.48 210.109 133.584 210.281 133.728C210.457 133.868 210.546 134.071 210.546 134.336C210.546 134.508 210.501 134.668 210.41 134.816C210.32 134.96 210.191 135.075 210.022 135.161C209.854 135.247 209.648 135.29 209.405 135.29ZM212.391 135.29C212.152 135.29 211.954 135.257 211.797 135.19C211.644 135.124 211.523 135.042 211.433 134.945C211.342 134.843 211.276 134.744 211.233 134.646C211.19 134.545 211.162 134.461 211.15 134.395C211.139 134.328 211.133 134.295 211.133 134.295H211.697C211.697 134.295 211.703 134.323 211.715 134.377C211.731 134.428 211.76 134.488 211.803 134.559C211.85 134.625 211.921 134.685 212.015 134.74C212.113 134.791 212.242 134.816 212.403 134.816C212.587 134.816 212.73 134.773 212.832 134.687C212.934 134.598 212.985 134.488 212.985 134.36C212.985 134.247 212.944 134.157 212.861 134.091C212.783 134.024 212.669 133.974 212.52 133.938L212.097 133.839C211.94 133.8 211.793 133.747 211.656 133.681C211.519 133.615 211.407 133.525 211.321 133.412C211.239 133.295 211.197 133.151 211.197 132.979C211.197 132.714 211.297 132.497 211.497 132.33C211.697 132.158 211.958 132.072 212.279 132.072C212.495 132.072 212.673 132.104 212.814 132.166C212.956 132.224 213.067 132.299 213.15 132.388C213.236 132.478 213.299 132.568 213.338 132.657C213.381 132.747 213.408 132.823 213.42 132.885C213.432 132.944 213.438 132.973 213.438 132.973H212.897C212.897 132.973 212.891 132.952 212.879 132.909C212.867 132.862 212.84 132.811 212.797 132.757C212.758 132.698 212.697 132.648 212.614 132.605C212.532 132.558 212.422 132.534 212.285 132.534C212.097 132.534 211.96 132.577 211.874 132.663C211.787 132.749 211.744 132.843 211.744 132.944C211.744 133.041 211.783 133.121 211.862 133.184C211.944 133.242 212.05 133.287 212.179 133.318L212.609 133.418C212.875 133.48 213.095 133.584 213.267 133.728C213.444 133.868 213.532 134.071 213.532 134.336C213.532 134.508 213.487 134.668 213.397 134.816C213.306 134.96 213.177 135.075 213.008 135.161C212.84 135.247 212.634 135.29 212.391 135.29ZM217.632 135.231V134.225L215.504 134.219V133.699L217.503 130.902H218.208V133.728H218.967V134.225H218.208V135.231H217.632ZM216.097 133.728H217.632V131.575L216.097 133.728Z" fill="#4F4F4F"/>
<path d="M186.721 131.331H176.431V135.231H186.721V131.331Z" fill="#F6D8FE"/>
<path d="M18.342 48.9788L20.3883 43.2069H21.3526L23.4067 48.9788H22.5913L22.1052 47.5983H19.6435L19.1574 48.9788H18.342ZM19.8787 46.9119H21.87L20.8744 44.0805L19.8787 46.9119ZM25.3391 48.9788L23.2929 43.2069H24.1082L25.8252 48.1053L27.5421 43.2069H28.3575L26.3034 48.9788H25.3391ZM29.2203 48.9788V43.2069H32.9051V43.8777H29.9887V45.7029H32.5445V46.3737H29.9887V48.3081H32.9443V48.9788H29.2203ZM34.0821 48.9788V43.2069H36.1361C36.5491 43.2069 36.8914 43.2875 37.1632 43.4487C37.435 43.6099 37.6388 43.8179 37.7747 44.0727C37.9106 44.3275 37.9785 44.5953 37.9785 44.8761C37.9785 45.1101 37.9315 45.3363 37.8374 45.5547C37.7433 45.7731 37.6022 45.9655 37.4141 46.1319C37.2311 46.2931 36.9985 46.4101 36.7163 46.4829L38.1824 48.9788H37.3121L35.9088 46.5531H34.8504V48.9788H34.0821ZM36.1283 43.8777H34.8504V45.8979H36.1283C36.3687 45.8979 36.5673 45.8485 36.7241 45.7497C36.8809 45.6509 36.9985 45.5261 37.0769 45.3753C37.1553 45.2193 37.1945 45.0581 37.1945 44.8917C37.1945 44.7201 37.1553 44.5589 37.0769 44.4081C36.9985 44.2521 36.8809 44.1247 36.7241 44.0259C36.5673 43.9271 36.3687 43.8777 36.1283 43.8777ZM39.0445 48.9788L41.0908 43.2069H42.0551L44.1092 48.9788H43.2938L42.8077 47.5983H40.346L39.8599 48.9788H39.0445ZM40.5812 46.9119H42.5725L41.5769 44.0805L40.5812 46.9119ZM47.365 49.0568C46.8946 49.0568 46.4844 48.9739 46.1342 48.8072C45.784 48.6409 45.4939 48.4173 45.2639 48.1365C45.034 47.8505 44.8615 47.5333 44.7465 47.1849C44.6367 46.8313 44.5818 46.4699 44.5818 46.1007C44.5818 45.7315 44.6367 45.3701 44.7465 45.0165C44.8615 44.6629 45.034 44.3457 45.2639 44.0649C45.4991 43.7789 45.7918 43.5527 46.142 43.3863C46.4974 43.2147 46.9129 43.1289 47.3886 43.1289C47.7544 43.1289 48.068 43.1757 48.3294 43.2693C48.5959 43.3629 48.818 43.4825 48.9958 43.6281C49.1734 43.7737 49.3174 43.9297 49.4272 44.0961C49.537 44.2573 49.6203 44.4107 49.6781 44.5563C49.7354 44.7019 49.7722 44.8215 49.7878 44.9151C49.8084 45.0087 49.8192 45.0555 49.8192 45.0555H49.043C49.043 45.0555 49.0323 45.0139 49.0117 44.9307C48.9905 44.8475 48.9487 44.7461 48.886 44.6265C48.8233 44.5017 48.7292 44.3795 48.6038 44.2599C48.4836 44.1351 48.3241 44.0311 48.1255 43.9479C47.9321 43.8647 47.6891 43.8231 47.3964 43.8231C47.0514 43.8231 46.7509 43.8881 46.4948 44.0181C46.2387 44.1481 46.027 44.3223 45.8598 44.5407C45.6925 44.7539 45.5671 44.9957 45.4834 45.2661C45.3998 45.5313 45.358 45.8043 45.358 46.0851C45.358 46.3711 45.3998 46.6519 45.4834 46.9275C45.5671 47.1979 45.6925 47.4423 45.8598 47.6607C46.0322 47.8739 46.2439 48.0455 46.4948 48.1755C46.7457 48.3003 47.0358 48.3627 47.365 48.3627C47.9034 48.3627 48.3294 48.2067 48.643 47.8947C48.9618 47.5775 49.1342 47.1511 49.1606 46.6155H47.4356V45.9837H49.8976V46.3815C49.8976 46.9743 49.7824 47.4683 49.5526 47.8635C49.3277 48.2587 49.0244 48.5577 48.643 48.7604C48.2614 48.9583 47.8354 49.0568 47.365 49.0568ZM50.9183 48.9788V43.2069H54.6031V43.8777H51.6866V45.7029H54.2424V46.3737H51.6866V48.3081H54.6423V48.9788H50.9183ZM60.1347 49.0568C59.68 49.0568 59.2801 48.9739 58.9352 48.8072C58.5902 48.6357 58.3026 48.4095 58.0728 48.1287C57.8479 47.8427 57.6783 47.5255 57.5632 47.1771C57.448 46.8235 57.3907 46.4621 57.3907 46.0929C57.3907 45.7237 57.448 45.3623 57.5632 45.0087C57.6783 44.6551 57.8479 44.3379 58.0728 44.0571C58.3026 43.7711 58.5902 43.5449 58.9352 43.3785C59.2801 43.2121 59.68 43.1289 60.1347 43.1289C60.511 43.1289 60.8324 43.1783 61.099 43.2771C61.371 43.3707 61.5954 43.4929 61.7732 43.6437C61.956 43.7945 62.1025 43.9557 62.2123 44.1273C62.3274 44.2989 62.4107 44.4601 62.4632 44.6109C62.5205 44.7617 62.5572 44.8865 62.5729 44.9853C62.594 45.0789 62.6043 45.1257 62.6043 45.1257H61.836C61.836 45.1257 61.8257 45.0841 61.8046 45.0009C61.7835 44.9125 61.7419 44.8059 61.6792 44.6811C61.6164 44.5511 61.5224 44.4211 61.3969 44.2911C61.2715 44.1611 61.1068 44.0545 60.903 43.9713C60.6992 43.8829 60.4458 43.8387 60.1425 43.8387C59.8132 43.8387 59.5256 43.9037 59.2801 44.0337C59.0346 44.1585 58.8279 44.3301 58.6608 44.5485C58.4986 44.7617 58.3761 45.0035 58.2923 45.2739C58.2139 45.5391 58.1747 45.8121 58.1747 46.0929C58.1747 46.3737 58.2139 46.6493 58.2923 46.9197C58.3761 47.1849 58.4986 47.4267 58.6608 47.6451C58.8279 47.8583 59.0346 48.0299 59.2801 48.1599C59.5256 48.2847 59.8132 48.3471 60.1425 48.3471C60.4458 48.3471 60.6992 48.3029 60.903 48.2145C61.1068 48.1261 61.2715 48.0195 61.3969 47.8947C61.5224 47.7647 61.6164 47.6373 61.6792 47.5125C61.7419 47.3825 61.7835 47.2733 61.8046 47.1849C61.8257 47.0965 61.836 47.0523 61.836 47.0523H62.6043C62.6043 47.0523 62.594 47.1017 62.5729 47.2005C62.5572 47.2941 62.5205 47.4189 62.4632 47.5749C62.4107 47.7257 62.3274 47.8869 62.2123 48.0585C62.1025 48.2249 61.956 48.3861 61.7732 48.5421C61.5954 48.6929 61.371 48.8179 61.099 48.9164C60.8324 49.01 60.511 49.0568 60.1347 49.0568ZM63.6656 48.9788V43.2069H65.7354C66.1798 43.2069 66.5483 43.2979 66.8408 43.4799C67.1387 43.6619 67.3612 43.8985 67.5072 44.1897C67.6591 44.4757 67.7346 44.7747 67.7346 45.0867C67.7346 45.4039 67.6591 45.7081 67.5072 45.9993C67.3612 46.2853 67.1387 46.5219 66.8408 46.7091C66.5483 46.8911 66.1798 46.9821 65.7354 46.9821H64.4339V48.9788H63.6656ZM65.7354 43.8777H64.4339V46.3113H65.7354C66.0127 46.3113 66.2425 46.2515 66.4253 46.1319C66.6086 46.0123 66.7443 45.8615 66.833 45.6795C66.9271 45.4923 66.9741 45.2973 66.9741 45.0945C66.9741 44.8917 66.9271 44.6967 66.833 44.5095C66.7443 44.3223 66.6086 44.1715 66.4253 44.0571C66.2425 43.9375 66.0127 43.8777 65.7354 43.8777ZM70.922 49.0568C70.4673 49.0568 70.0753 48.971 69.746 48.7994C69.4168 48.6227 69.161 48.3757 68.9777 48.0585C68.8003 47.7361 68.7112 47.3565 68.7112 46.9197V43.2069H69.4795V46.9197C69.4795 47.3201 69.5971 47.6555 69.8323 47.9259C70.0729 48.1963 70.436 48.3315 70.922 48.3315C71.4135 48.3315 71.7766 48.1963 72.0118 47.9259C72.2524 47.6555 72.3724 47.3201 72.3724 46.9197V43.2069H73.1408V46.9197C73.1408 47.3565 73.0496 47.7361 72.8664 48.0585C72.689 48.3757 72.4352 48.6227 72.1059 48.7994C71.7766 48.971 71.3821 49.0568 70.922 49.0568ZM78.4102 49.0568C77.9555 49.0568 77.5635 48.971 77.2342 48.7994C76.9049 48.6227 76.6487 48.3757 76.4659 48.0585C76.288 47.7361 76.1993 47.3565 76.1993 46.9197V43.2069H76.9676V46.9197C76.9676 47.3201 77.0853 47.6555 77.3204 47.9259C77.5606 48.1963 77.9241 48.3315 78.4102 48.3315C78.9012 48.3315 79.2648 48.1963 79.5 47.9259C79.7401 47.6555 79.8606 47.3201 79.8606 46.9197V43.2069H80.6289V46.9197C80.6289 47.3565 80.5373 47.7361 80.3545 48.0585C80.1767 48.3757 79.9233 48.6227 79.5941 48.7994C79.2648 48.971 78.8698 49.0568 78.4102 49.0568ZM83.4165 48.9788V43.8777H81.6055V43.2069H85.9959V43.8777H84.1849V48.9788H83.4165ZM86.9793 48.9788V43.2069H87.7477V48.9788H86.9793ZM89.0006 48.9788V43.2069H89.7689V48.3081H92.756V48.9788H89.0006ZM93.8927 48.9788V43.2069H94.6611V48.9788H93.8927ZM95.7886 48.9788V48.3939L98.9951 43.8777H95.7886V43.2069H99.9437V43.7919L96.7293 48.3081H99.9437V48.9788H95.7886ZM100.815 48.9788L102.861 43.2069H103.826L105.88 48.9788H105.064L104.578 47.5983H102.116L101.63 48.9788H100.815ZM102.352 46.9119H104.343L103.347 44.0805L102.352 46.9119ZM107.695 48.9788V43.8777H105.884V43.2069H110.274V43.8777H108.463V48.9788H107.695ZM111.257 48.9788V43.2069H112.025V48.9788H111.257ZM115.889 49.0568C115.429 49.0568 115.024 48.9739 114.674 48.8072C114.324 48.6357 114.031 48.4095 113.796 48.1287C113.56 47.8427 113.383 47.5229 113.262 47.1693C113.142 46.8157 113.082 46.4543 113.082 46.0851C113.082 45.7159 113.142 45.3571 113.262 45.0087C113.383 44.6551 113.56 44.3379 113.796 44.0571C114.031 43.7763 114.324 43.5527 114.674 43.3863C115.024 43.2147 115.429 43.1289 115.889 43.1289C116.349 43.1289 116.754 43.2147 117.104 43.3863C117.454 43.5527 117.747 43.7763 117.982 44.0571C118.217 44.3379 118.395 44.6551 118.515 45.0087C118.636 45.3571 118.696 45.7159 118.696 46.0851C118.696 46.4543 118.636 46.8157 118.515 47.1693C118.395 47.5229 118.217 47.8427 117.982 48.1287C117.747 48.4095 117.454 48.6357 117.104 48.8072C116.754 48.9739 116.349 49.0568 115.889 49.0568ZM115.889 48.3471C116.218 48.3471 116.508 48.2847 116.759 48.1599C117.01 48.0351 117.219 47.8661 117.386 47.6529C117.559 47.4397 117.69 47.1979 117.778 46.9275C117.867 46.6571 117.912 46.3763 117.912 46.0851C117.912 45.7991 117.867 45.5235 117.778 45.2583C117.69 44.9879 117.559 44.7461 117.386 44.5329C117.219 44.3197 117.01 44.1507 116.759 44.0259C116.508 43.9011 116.218 43.8387 115.889 43.8387C115.56 43.8387 115.269 43.9011 115.019 44.0259C114.768 44.1507 114.556 44.3197 114.384 44.5329C114.216 44.7461 114.089 44.9879 113.999 45.2583C113.911 45.5235 113.866 45.7991 113.866 46.0851C113.866 46.3763 113.911 46.6571 113.999 46.9275C114.089 47.1979 114.216 47.4397 114.384 47.6529C114.556 47.8661 114.768 48.0351 115.019 48.1599C115.269 48.2847 115.56 48.3471 115.889 48.3471ZM119.755 48.9788V43.2069H120.445L123.472 47.5983V43.2069H124.24V48.9788H123.55L120.524 44.5953V48.9788H119.755Z" fill="#828282"/>
<path d="M25.939 60.3018C27.1463 60.3018 28.1969 60.5202 29.0906 60.957C29.9844 61.3782 30.7214 61.9632 31.3015 62.712C31.8817 63.4452 32.3129 64.2876 32.5951 65.2392C32.893 66.1752 33.042 67.158 33.042 68.1876C33.042 69.3264 32.8617 70.4808 32.501 71.6508C32.1404 72.8052 31.5837 73.8738 30.8311 74.8566C30.0785 75.8238 29.0985 76.6038 27.8911 77.1966C26.6994 77.7894 25.2647 78.0858 23.587 78.0858C22.897 78.0858 22.3012 78.039 21.7994 77.9454C21.2977 77.8674 21.0468 77.8284 21.0468 77.8284V74.6226C21.0468 74.6226 21.1722 74.646 21.4231 74.6928C21.6897 74.724 22.019 74.763 22.411 74.8098C22.803 74.8566 23.195 74.88 23.587 74.88C24.7943 74.88 25.8057 74.6382 26.621 74.1546C27.4364 73.671 28.0557 73.0548 28.4791 72.306C28.9181 71.5572 29.1769 70.7694 29.2553 69.9426C29.0985 70.2078 28.8554 70.5042 28.5262 70.8318C28.1969 71.1438 27.75 71.4168 27.1855 71.6508C26.6367 71.8848 25.9311 72.0018 25.0687 72.0018C23.83 72.0018 22.7873 71.7366 21.9406 71.2062C21.0938 70.6602 20.4588 69.9582 20.0354 69.1002C19.6121 68.2422 19.4004 67.3452 19.4004 66.4092C19.4004 65.6604 19.5337 64.9272 19.8002 64.2096C20.0825 63.4764 20.4902 62.8212 21.0233 62.244C21.5721 61.6512 22.2541 61.1832 23.0695 60.84C23.8849 60.4812 24.8414 60.3018 25.939 60.3018ZM25.939 63.2736C25.0609 63.2736 24.3396 63.5544 23.7751 64.116C23.2106 64.6776 22.9284 65.3952 22.9284 66.2688C22.9284 67.158 23.2106 67.8834 23.7751 68.445C24.3396 68.991 25.0609 69.264 25.939 69.264C26.8014 69.264 27.5148 68.991 28.0793 68.445C28.6438 67.8834 28.926 67.158 28.926 66.2688C28.926 65.3952 28.6438 64.6776 28.0793 64.116C27.5148 63.5544 26.8014 63.2736 25.939 63.2736ZM42.29 78.0858C41.0983 78.0858 40.0007 77.8908 38.9972 77.5008C38.0093 77.0952 37.2096 76.5258 36.5981 75.7926C36.0023 75.0438 35.7044 74.1468 35.7044 73.1016C35.7044 72.2904 35.8612 71.6118 36.1748 71.0658C36.4884 70.5198 36.849 70.0908 37.2567 69.7788C37.6644 69.4512 38.025 69.225 38.3386 69.1002C38.6679 68.9598 38.8325 68.8896 38.8325 68.8896V68.7492C38.8325 68.7492 38.6914 68.6868 38.4092 68.562C38.1426 68.4372 37.829 68.2344 37.4684 67.9536C37.1234 67.6728 36.8176 67.2984 36.5511 66.8304C36.2845 66.3468 36.1512 65.7618 36.1512 65.0754C36.1512 64.1082 36.4178 63.2736 36.9509 62.5716C37.4997 61.854 38.2367 61.3002 39.1618 60.9102C40.1026 60.5046 41.1453 60.3018 42.29 60.3018C43.4503 60.3018 44.493 60.5046 45.4181 60.9102C46.3589 61.3002 47.0959 61.854 47.629 62.5716C48.1778 63.2736 48.4522 64.1004 48.4522 65.052C48.4522 65.754 48.3111 66.3468 48.0288 66.8304C47.7623 67.2984 47.4487 67.6728 47.088 67.9536C46.7431 68.2344 46.4295 68.4372 46.1472 68.562C45.8807 68.6868 45.7474 68.7492 45.7474 68.7492V68.8896C45.7631 68.8896 45.9277 68.9598 46.2413 69.1002C46.5549 69.225 46.9156 69.4512 47.3232 69.7788C47.7309 70.0908 48.0916 70.5198 48.4052 71.0658C48.7188 71.6118 48.8756 72.2904 48.8756 73.1016C48.8756 74.1468 48.5776 75.0438 47.9818 75.7926C47.386 76.5258 46.5863 77.0952 45.5828 77.5008C44.5949 77.8908 43.4973 78.0858 42.29 78.0858ZM42.29 67.5558C43.074 67.5558 43.7247 67.3452 44.2421 66.924C44.7752 66.4872 45.0418 65.949 45.0418 65.3094C45.0418 64.6542 44.7831 64.116 44.2656 63.6948C43.7482 63.2736 43.0896 63.063 42.29 63.063C41.506 63.063 40.8552 63.2736 40.3378 63.6948C39.8204 64.116 39.5616 64.6542 39.5616 65.3094C39.5616 65.9646 39.8204 66.5028 40.3378 66.924C40.8552 67.3452 41.506 67.5558 42.29 67.5558ZM42.29 75.2778C42.9799 75.2778 43.5522 75.153 44.0069 74.9034C44.4773 74.6382 44.8223 74.3106 45.0418 73.9206C45.277 73.5306 45.3946 73.1172 45.3946 72.6804C45.3946 72.2748 45.277 71.8848 45.0418 71.5104C44.8223 71.1204 44.4773 70.8006 44.0069 70.551C43.5522 70.3014 42.9799 70.1766 42.29 70.1766C41.6 70.1766 41.0277 70.3014 40.573 70.551C40.1183 70.8006 39.7733 71.1204 39.5381 71.5104C39.3029 71.8848 39.1853 72.2748 39.1853 72.6804C39.1853 73.1172 39.3029 73.5306 39.5381 73.9206C39.7733 74.3106 40.1183 74.6382 40.573 74.9034C41.0434 75.153 41.6157 75.2778 42.29 75.2778ZM54.1199 78.0858C53.524 78.0858 53.038 77.8908 52.6616 77.5008C52.2853 77.0952 52.0972 76.6272 52.0972 76.0968C52.0972 75.5352 52.2853 75.0594 52.6616 74.6694C53.038 74.2794 53.524 74.0844 54.1199 74.0844C54.6844 74.0844 55.1548 74.2794 55.5311 74.6694C55.9231 75.0594 56.1191 75.5352 56.1191 76.0968C56.1191 76.6428 55.9231 77.1108 55.5311 77.5008C55.1548 77.8908 54.6844 78.0858 54.1199 78.0858ZM66.0671 78.0858C64.8911 78.0858 63.8875 77.8986 63.0565 77.5242C62.2255 77.1498 61.5434 76.674 61.0103 76.0968C60.4928 75.5196 60.1087 74.919 59.8578 74.295C59.6226 73.6554 59.505 73.0704 59.505 72.54H62.8683C62.8683 72.54 62.8919 72.6726 62.9389 72.9378C63.0016 73.203 63.1349 73.5072 63.3387 73.8504C63.5426 74.1936 63.8562 74.4978 64.2795 74.763C64.7029 75.0282 65.2752 75.1608 65.9965 75.1608C66.7178 75.1608 67.3136 75.0126 67.784 74.7162C68.2544 74.4042 68.6072 74.0142 68.8424 73.5462C69.0776 73.0782 69.1952 72.5868 69.1952 72.072C69.1952 71.5416 69.0776 71.0424 68.8424 70.5744C68.6072 70.0908 68.2544 69.7008 67.784 69.4044C67.3293 69.0924 66.757 68.9364 66.0671 68.9364C65.5339 68.9364 65.0949 69.0222 64.7499 69.1938C64.405 69.3498 64.1306 69.537 63.9267 69.7554C63.7229 69.9582 63.5739 70.1454 63.4799 70.317C63.4015 70.473 63.3623 70.551 63.3623 70.551H59.7872L61.316 60.5358H71.5707V63.6714H63.7856L63.1741 67.626H63.2682C63.3466 67.548 63.5034 67.392 63.7386 67.158C63.9895 66.924 64.3658 66.7056 64.8675 66.5028C65.3693 66.2844 66.0357 66.1752 66.8667 66.1752C68.1211 66.1752 69.1874 66.456 70.0655 67.0176C70.9435 67.5792 71.6021 68.3046 72.0411 69.1938C72.4959 70.0674 72.7232 70.9956 72.7232 71.9784C72.7232 72.7428 72.5821 73.4838 72.2999 74.2014C72.0333 74.919 71.6256 75.5742 71.0768 76.167C70.528 76.7442 69.8381 77.2122 69.0071 77.571C68.176 77.9142 67.196 78.0858 66.0671 78.0858ZM82.0994 78.0858C80.9234 78.0858 79.9199 77.8986 79.0888 77.5242C78.2578 77.1498 77.5757 76.674 77.0426 76.0968C76.5251 75.5196 76.141 74.919 75.8901 74.295C75.6549 73.6554 75.5373 73.0704 75.5373 72.54H78.9007C78.9007 72.54 78.9242 72.6726 78.9712 72.9378C79.0339 73.203 79.1672 73.5072 79.371 73.8504C79.5749 74.1936 79.8885 74.4978 80.3118 74.763C80.7352 75.0282 81.3075 75.1608 82.0288 75.1608C82.7501 75.1608 83.3459 75.0126 83.8163 74.7162C84.2867 74.4042 84.6395 74.0142 84.8747 73.5462C85.1099 73.0782 85.2275 72.5868 85.2275 72.072C85.2275 71.5416 85.1099 71.0424 84.8747 70.5744C84.6395 70.0908 84.2867 69.7008 83.8163 69.4044C83.3616 69.0924 82.7893 68.9364 82.0994 68.9364C81.5662 68.9364 81.1272 69.0222 80.7822 69.1938C80.4373 69.3498 80.1629 69.537 79.9591 69.7554C79.7552 69.9582 79.6063 70.1454 79.5122 70.317C79.4338 70.473 79.3946 70.551 79.3946 70.551H75.8195L77.3483 60.5358H87.6031V63.6714H79.8179L79.2064 67.626H79.3005C79.3789 67.548 79.5357 67.392 79.7709 67.158C80.0218 66.924 80.3981 66.7056 80.8999 66.5028C81.4016 66.2844 82.068 66.1752 82.8991 66.1752C84.1535 66.1752 85.2197 66.456 86.0978 67.0176C86.9759 67.5792 87.6344 68.3046 88.0734 69.1938C88.5282 70.0674 88.7555 70.9956 88.7555 71.9784C88.7555 72.7428 88.6144 73.4838 88.3322 74.2014C88.0656 74.919 87.6579 75.5742 87.1091 76.167C86.5603 76.7442 85.8704 77.2122 85.0394 77.571C84.2083 77.9142 83.2283 78.0858 82.0994 78.0858ZM100.683 67.9302C99.8673 67.9302 99.1617 67.7586 98.5658 67.4154C97.9857 67.0566 97.5309 66.5886 97.2017 66.0114C96.8881 65.4342 96.7313 64.7946 96.7313 64.0926C96.7313 63.4062 96.8881 62.7744 97.2017 62.1972C97.5153 61.62 97.97 61.1598 98.5658 60.8166C99.1617 60.4734 99.8673 60.3018 100.683 60.3018C101.514 60.3018 102.219 60.4734 102.799 60.8166C103.395 61.1598 103.85 61.62 104.164 62.1972C104.477 62.7744 104.634 63.4062 104.634 64.0926C104.634 64.7946 104.477 65.4342 104.164 66.0114C103.85 66.5886 103.395 67.0566 102.799 67.4154C102.204 67.7586 101.498 67.9302 100.683 67.9302ZM99.4596 77.8518L109.22 60.5358H112.066L102.329 77.8518H99.4596ZM100.683 65.8242C101.169 65.8242 101.561 65.6604 101.859 65.3328C102.157 64.9896 102.305 64.584 102.305 64.116C102.305 63.648 102.157 63.2502 101.859 62.9226C101.561 62.595 101.169 62.4312 100.683 62.4312C100.181 62.4312 99.781 62.595 99.4831 62.9226C99.1852 63.2502 99.0362 63.648 99.0362 64.116C99.0362 64.584 99.1852 64.9896 99.4831 65.3328C99.781 65.6604 100.181 65.8242 100.683 65.8242ZM110.867 78.0858C110.051 78.0858 109.346 77.9142 108.75 77.571C108.154 77.2122 107.699 76.7442 107.386 76.167C107.072 75.5898 106.915 74.958 106.915 74.2716C106.915 73.5852 107.072 72.9534 107.386 72.3762C107.699 71.799 108.154 71.3388 108.75 70.9956C109.346 70.6368 110.051 70.4574 110.867 70.4574C111.682 70.4574 112.38 70.6368 112.96 70.9956C113.556 71.3388 114.011 71.799 114.324 72.3762C114.653 72.9534 114.818 73.5852 114.818 74.2716C114.818 74.958 114.653 75.5898 114.324 76.167C114.011 76.7442 113.556 77.2122 112.96 77.571C112.38 77.9142 111.682 78.0858 110.867 78.0858ZM110.843 75.9798C111.345 75.9798 111.745 75.816 112.043 75.4884C112.341 75.1608 112.49 74.7552 112.49 74.2716C112.49 73.8036 112.341 73.4058 112.043 73.0782C111.745 72.7506 111.345 72.5868 110.843 72.5868C110.357 72.5868 109.965 72.7506 109.667 73.0782C109.369 73.4058 109.22 73.8036 109.22 74.2716C109.22 74.7552 109.369 75.1608 109.667 75.4884C109.965 75.816 110.357 75.9798 110.843 75.9798Z" fill="#0B1354"/>
<path d="M232.346 226.648H235.713V222.902L232.346 226.648Z" fill="#CACED3"/>
</g>
</g>
<defs>
<filter id="filter0_d_11255_2036" x="-2.04004" y="-2.0498" width="249.08" height="238.1" filterUnits="userSpaceOnUse" color-interpolation-filters="sRGB">
<feFlood flood-opacity="0" result="BackgroundImageFix"/>
<feColorMatrix in="SourceAlpha" type="matrix" values="0 0 0 0 0 0 0 0 0 0 0 0 0 0 0 0 0 0 127 0" result="hardAlpha"/>
<feOffset/>
<feGaussianBlur stdDeviation="2"/>
<feComposite in2="hardAlpha" operator="out"/>
<feColorMatrix type="matrix" values="0 0 0 0 0 0 0 0 0 0 0 0 0 0 0 0 0 0 0.25 0"/>
<feBlend mode="normal" in2="BackgroundImageFix" result="effect1_dropShadow_11255_2036"/>
<feBlend mode="normal" in="SourceGraphic" in2="effect1_dropShadow_11255_2036" result="shape"/>
</filter>
<clipPath id="clip0_11255_2036">
<rect width="245" height="234" fill="white"/>
</clipPath>
</defs>
</svg>
