<svg width="301" height="187" viewBox="0 0 301 187" fill="none" xmlns="http://www.w3.org/2000/svg">
<g clip-path="url(#clip0_11255_2174)">
<path d="M10.7982 0.168945H290.202C296.072 0.168945 300.831 4.93795 300.831 10.8208V176.179C300.831 182.062 296.072 186.831 290.202 186.831H10.7982C4.92767 186.831 0.168701 182.062 0.168701 176.179V10.8208C0.168701 4.93795 4.92767 0.168945 10.7982 0.168945Z" fill="white"/>
<path d="M10.7982 0.168945H290.202C296.072 0.168945 300.831 4.93795 300.831 10.8208V176.179C300.831 182.062 296.072 186.831 290.202 186.831H10.7982C4.92767 186.831 0.168701 182.062 0.168701 176.179V10.8208C0.168701 4.93795 4.92767 0.168945 10.7982 0.168945Z" stroke="#CACED3"/>
<path d="M24.7738 54.1047V50.5663H23.5266V50.101H26.5501V50.5663H25.3029V54.1047H24.7738ZM28.6454 54.1588C28.3286 54.1588 28.0497 54.101 27.8085 53.9857C27.5674 53.8667 27.3658 53.7098 27.2038 53.515C27.0419 53.3165 26.9195 53.0947 26.8367 52.8495C26.7539 52.6043 26.7125 52.3534 26.7125 52.0974C26.7125 51.8415 26.7539 51.5926 26.8367 51.3508C26.9195 51.1056 27.0419 50.8855 27.2038 50.6907C27.3658 50.4959 27.5674 50.3407 27.8085 50.2254C28.0497 50.1064 28.3286 50.0469 28.6454 50.0469C28.9621 50.0469 29.2411 50.1064 29.4823 50.2254C29.7234 50.3407 29.925 50.4959 30.087 50.6907C30.2489 50.8855 30.3713 51.1056 30.4541 51.3508C30.5369 51.5926 30.5783 51.8415 30.5783 52.0974C30.5783 52.3534 30.5369 52.6043 30.4541 52.8495C30.3713 53.0947 30.2489 53.3165 30.087 53.515C29.925 53.7098 29.7234 53.8667 29.4823 53.9857C29.2411 54.101 28.9621 54.1588 28.6454 54.1588ZM28.6454 53.6665C28.8722 53.6665 29.0719 53.6232 29.2447 53.5366C29.4175 53.4501 29.5614 53.3327 29.6766 53.185C29.7954 53.0372 29.8854 52.8695 29.9466 52.6818C30.0078 52.4941 30.0384 52.2993 30.0384 52.0974C30.0384 51.899 30.0078 51.7079 29.9466 51.5239C29.8854 51.3363 29.7954 51.1685 29.6766 51.0208C29.5614 50.873 29.4175 50.7556 29.2447 50.6691C29.0719 50.5825 28.8722 50.5392 28.6454 50.5392C28.4186 50.5392 28.2189 50.5825 28.0461 50.6691C27.8733 50.7556 27.7276 50.873 27.6088 51.0208C27.4936 51.1685 27.4054 51.3363 27.3442 51.5239C27.283 51.7079 27.2524 51.899 27.2524 52.0974C27.2524 52.2993 27.283 52.4941 27.3442 52.6818C27.4054 52.8695 27.4936 53.0372 27.6088 53.185C27.7276 53.3327 27.8733 53.4501 28.0461 53.5366C28.2189 53.6232 28.4186 53.6665 28.6454 53.6665ZM31.9867 54.1047V50.5663H30.7395V50.101H33.763V50.5663H32.5158V54.1047H31.9867ZM33.8187 54.1047L35.2278 50.101H35.8919L37.3065 54.1047H36.745L36.4102 53.1471H34.7149L34.3802 54.1047H33.8187ZM34.8769 52.671H36.2482L35.5626 50.707L34.8769 52.671ZM37.983 54.1047V50.101H38.5122V53.6394H40.5692V54.1047H37.983ZM44.3513 54.1588C44.0381 54.1588 43.7628 54.101 43.5252 53.9857C43.2877 53.8667 43.0896 53.7098 42.9313 53.515C42.7764 53.3165 42.6597 53.0967 42.5804 52.8549C42.5011 52.6098 42.4616 52.3588 42.4616 52.1029C42.4616 51.8469 42.5011 51.596 42.5804 51.3508C42.6597 51.1056 42.7764 50.8855 42.9313 50.6907C43.0896 50.4922 43.2877 50.3353 43.5252 50.22C43.7628 50.1047 44.0381 50.0469 44.3513 50.0469C44.6104 50.0469 44.8318 50.081 45.0154 50.1497C45.2027 50.2146 45.3572 50.2995 45.4797 50.404C45.6056 50.5085 45.7065 50.6204 45.7821 50.7394C45.8614 50.8584 45.9187 50.9704 45.9548 51.0749C45.9943 51.1794 46.0196 51.2659 46.0304 51.3346C46.0449 51.3995 46.052 51.432 46.052 51.432H45.5229C45.5229 51.432 45.5158 51.4032 45.5013 51.3454C45.4868 51.2842 45.4581 51.2101 45.4149 51.1236C45.3717 51.0333 45.3069 50.9433 45.2205 50.853C45.1342 50.7628 45.0208 50.689 44.8804 50.6312C44.74 50.57 44.5656 50.5392 44.3567 50.5392C44.1299 50.5392 43.9318 50.5842 43.7628 50.6745C43.5937 50.7611 43.4513 50.8801 43.3363 51.0316C43.2246 51.1794 43.1402 51.3471 43.0825 51.5348C43.0285 51.7187 43.0015 51.9081 43.0015 52.1029C43.0015 52.2976 43.0285 52.4887 43.0825 52.6764C43.1402 52.8603 43.2246 53.0281 43.3363 53.1796C43.4513 53.3273 43.5937 53.4464 43.7628 53.5366C43.9318 53.6232 44.1299 53.6665 44.3567 53.6665C44.5656 53.6665 44.74 53.6357 44.8804 53.5745C45.0208 53.5133 45.1342 53.4393 45.2205 53.3527C45.3069 53.2624 45.3717 53.1741 45.4149 53.0876C45.4581 52.9973 45.4868 52.9215 45.5013 52.8603C45.5158 52.7991 45.5229 52.7684 45.5229 52.7684H46.052C46.052 52.7684 46.0449 52.8025 46.0304 52.8712C46.0196 52.9361 45.9943 53.0226 45.9548 53.1309C45.9187 53.2353 45.8614 53.3473 45.7821 53.4663C45.7065 53.5816 45.6056 53.6935 45.4797 53.8018C45.3572 53.9062 45.2027 53.9928 45.0154 54.0615C44.8318 54.1264 44.6104 54.1588 44.3513 54.1588ZM48.5808 54.1588C48.2643 54.1588 47.9852 54.101 47.7439 53.9857C47.503 53.8667 47.3012 53.7098 47.1393 53.515C46.9773 53.3165 46.8551 53.0947 46.7721 52.8495C46.6894 52.6043 46.6479 52.3534 46.6479 52.0974C46.6479 51.8415 46.6894 51.5926 46.7721 51.3508C46.8551 51.1056 46.9773 50.8855 47.1393 50.6907C47.3012 50.4959 47.503 50.3407 47.7439 50.2254C47.9852 50.1064 48.2643 50.0469 48.5808 50.0469C48.8977 50.0469 49.1767 50.1064 49.4177 50.2254C49.6589 50.3407 49.8604 50.4959 50.0224 50.6907C50.1843 50.8855 50.3068 51.1056 50.3895 51.3508C50.4725 51.5926 50.5137 51.8415 50.5137 52.0974C50.5137 52.3534 50.4725 52.6043 50.3895 52.8495C50.3068 53.0947 50.1843 53.3165 50.0224 53.515C49.8604 53.7098 49.6589 53.8667 49.4177 53.9857C49.1767 54.101 48.8977 54.1588 48.5808 54.1588ZM48.5808 53.6665C48.8076 53.6665 49.0073 53.6232 49.1801 53.5366C49.3529 53.4501 49.497 53.3327 49.612 53.185C49.7308 53.0372 49.8209 52.8695 49.882 52.6818C49.9434 52.4941 49.9738 52.2993 49.9738 52.0974C49.9738 51.899 49.9434 51.7079 49.882 51.5239C49.8209 51.3363 49.7308 51.1685 49.612 51.0208C49.497 50.873 49.3529 50.7556 49.1801 50.6691C49.0073 50.5825 48.8076 50.5392 48.5808 50.5392C48.354 50.5392 48.1543 50.5825 47.9815 50.6691C47.8087 50.7556 47.663 50.873 47.5442 51.0208C47.4291 51.1685 47.341 51.3363 47.2796 51.5239C47.2185 51.7079 47.1878 51.899 47.1878 52.0974C47.1878 52.2993 47.2185 52.4941 47.2796 52.6818C47.341 52.8695 47.4291 53.0372 47.5442 53.185C47.663 53.3327 47.8087 53.4501 47.9815 53.5366C48.1543 53.6232 48.354 53.6665 48.5808 53.6665ZM51.249 54.1047V53.7314L52.1236 52.9198C52.3683 52.6926 52.5826 52.4941 52.7661 52.3247C52.9534 52.1516 53.0992 51.9838 53.2035 51.8215C53.3077 51.6592 53.36 51.4807 53.36 51.2859C53.36 51.1236 53.3205 50.9866 53.2412 50.8747C53.1657 50.7627 53.0668 50.6782 52.9443 50.6204C52.8255 50.5592 52.7013 50.5284 52.5718 50.5284C52.4027 50.5284 52.264 50.5571 52.156 50.615C52.048 50.6728 51.9654 50.7448 51.9077 50.8314C51.85 50.9142 51.8088 50.9991 51.7835 51.0857C51.7582 51.1685 51.744 51.2389 51.7403 51.2967C51.7366 51.3545 51.7349 51.3833 51.7349 51.3833H51.2274C51.2274 51.3833 51.2291 51.3508 51.2328 51.2859C51.2365 51.221 51.249 51.1381 51.2706 51.037C51.2959 50.9359 51.3354 50.8297 51.3894 50.7178C51.4433 50.6025 51.5189 50.4943 51.6161 50.3931C51.717 50.292 51.8446 50.2092 51.9995 50.1443C52.1577 50.0793 52.3504 50.0469 52.5772 50.0469C52.8076 50.0469 53.0216 50.0956 53.2197 50.193C53.4211 50.2866 53.5831 50.4256 53.7056 50.6096C53.8281 50.7898 53.8891 51.0116 53.8891 51.2751C53.8891 51.5168 53.8281 51.7366 53.7056 51.9351C53.5868 52.1299 53.4285 52.321 53.2305 52.5086C53.0324 52.6963 52.8164 52.8982 52.5826 53.1146L52.0319 53.6232H53.9755V54.1047H51.249ZM56.0049 54.1047V50.101H58.5425V50.5663H56.534V51.8323H58.2941V52.2976H56.534V53.6394H58.5695V54.1047H56.0049ZM59.3527 54.1047V50.101H60.0492L61.2262 52.4816L62.3978 50.101H63.0943V54.1047H62.576V50.8801L61.4745 53.0768H60.9724L59.871 50.8693V54.1047H59.3527ZM63.9558 54.1047V50.101H64.4849V54.1047H63.9558ZM66.6867 54.1588C66.4562 54.1588 66.2585 54.1301 66.0928 54.0723C65.9308 54.0111 65.7958 53.9333 65.6879 53.8396C65.5799 53.7422 65.4935 53.6411 65.4287 53.5366C65.3639 53.4322 65.3153 53.3327 65.2829 53.2391C65.2505 53.1417 65.2289 53.0642 65.2181 53.0064C65.2111 52.9452 65.2073 52.9144 65.2073 52.9144H65.7473C65.7473 52.9144 65.7527 52.9398 65.7635 52.9902C65.7743 53.0406 65.7958 53.1038 65.8282 53.1796C65.8644 53.2553 65.9163 53.3327 65.9848 53.4122C66.0533 53.4879 66.1451 53.5512 66.2602 53.6016C66.3752 53.6519 66.521 53.6773 66.6975 53.6773C66.9637 53.6773 67.1743 53.6141 67.3292 53.4879C67.4841 53.3581 67.5614 53.1904 67.5614 52.9848C67.5614 52.8079 67.502 52.671 67.3832 52.5736C67.2681 52.4762 67.1024 52.4004 66.8865 52.3463L66.3574 52.2165C66.1701 52.1695 65.9956 52.1046 65.8336 52.0217C65.6754 51.9351 65.5475 51.8232 65.4503 51.6863C65.3568 51.5456 65.3099 51.3708 65.3099 51.1614C65.3099 50.9271 65.3676 50.7269 65.4827 50.5609C65.5978 50.3948 65.7543 50.2687 65.9524 50.1821C66.1505 50.0918 66.3752 50.0469 66.6273 50.0469C66.872 50.0469 67.0754 50.0847 67.2374 50.1605C67.3994 50.2362 67.529 50.3299 67.6261 50.4418C67.7233 50.5501 67.7952 50.6599 67.8421 50.7719C67.889 50.8801 67.9194 50.9721 67.9339 51.0478C67.9484 51.1236 67.9555 51.1614 67.9555 51.1614H67.4372C67.4372 51.1614 67.4301 51.129 67.4156 51.064C67.4011 50.9991 67.367 50.9251 67.313 50.8422C67.259 50.7557 67.1763 50.6799 67.0646 50.615C66.9529 50.55 66.8018 50.5176 66.6111 50.5176C66.352 50.5176 66.1559 50.5788 66.0226 50.7015C65.893 50.8243 65.8282 50.965 65.8282 51.1236C65.8282 51.268 65.8806 51.385 65.9848 51.4752C66.0891 51.5618 66.2332 51.6284 66.4167 51.6754L66.9891 51.8161C67.1942 51.8665 67.3795 51.9405 67.5452 52.0379C67.7108 52.1316 67.8421 52.2544 67.9393 52.4058C68.0365 52.5536 68.0851 52.7359 68.0851 52.9523C68.0851 53.1687 68.0311 53.3689 67.9231 53.5529C67.8188 53.7368 67.6623 53.8846 67.4534 53.9965C67.2482 54.1047 66.9928 54.1588 66.6867 54.1588ZM70.1138 54.1588C69.8837 54.1588 69.6856 54.1301 69.5199 54.0723C69.3579 54.0111 69.2229 53.9333 69.115 53.8396C69.007 53.7422 68.9206 53.6411 68.8558 53.5366C68.791 53.4322 68.7424 53.3327 68.71 53.2391C68.6776 53.1417 68.656 53.0642 68.6452 53.0064C68.6381 52.9452 68.6344 52.9144 68.6344 52.9144H69.1743C69.1743 52.9144 69.1797 52.9398 69.1905 52.9902C69.2013 53.0406 69.2229 53.1038 69.2553 53.1796C69.2914 53.2553 69.3437 53.3327 69.4119 53.4122C69.4804 53.4879 69.5722 53.5512 69.6873 53.6016C69.8027 53.6519 69.9484 53.6773 70.1246 53.6773C70.3912 53.6773 70.6017 53.6141 70.7563 53.4879C70.9112 53.3581 70.9884 53.1904 70.9884 52.9848C70.9884 52.8079 70.9291 52.671 70.8103 52.5736C70.6952 52.4762 70.5295 52.4004 70.3136 52.3463L69.7844 52.2165C69.5975 52.1695 69.4227 52.1046 69.2607 52.0217C69.1025 51.9351 68.9746 51.8232 68.8774 51.6863C68.7839 51.5456 68.737 51.3708 68.737 51.1614C68.737 50.9271 68.7947 50.7269 68.9098 50.5609C69.0252 50.3948 69.1818 50.2687 69.3795 50.1821C69.5776 50.0918 69.8027 50.0469 70.0544 50.0469C70.2994 50.0469 70.5025 50.0847 70.6645 50.1605C70.8265 50.2362 70.956 50.3299 71.0532 50.4418C71.1504 50.5501 71.2226 50.6599 71.2692 50.7719C71.3161 50.8801 71.3468 50.9721 71.361 51.0478C71.3755 51.1236 71.3826 51.1614 71.3826 51.1614H70.8643C70.8643 51.1614 70.8572 51.129 70.8427 51.064C70.8285 50.9991 70.7941 50.9251 70.7401 50.8422C70.6861 50.7557 70.6034 50.6799 70.4917 50.615C70.3804 50.55 70.2292 50.5176 70.0382 50.5176C69.779 50.5176 69.583 50.5788 69.4497 50.7015C69.3201 50.8243 69.2553 50.965 69.2553 51.1236C69.2553 51.268 69.3076 51.385 69.4119 51.4752C69.5165 51.5618 69.6603 51.6284 69.8438 51.6754L70.4161 51.8161C70.6213 51.8665 70.8069 51.9405 70.9722 52.0379C71.1379 52.1316 71.2692 52.2544 71.3664 52.4058C71.4636 52.5536 71.5122 52.7359 71.5122 52.9523C71.5122 53.1687 71.4582 53.3689 71.3502 53.5529C71.2459 53.7368 71.0893 53.8846 70.8805 53.9965C70.6753 54.1047 70.4198 54.1588 70.1138 54.1588ZM72.2022 54.1047V50.101H72.7313V54.1047H72.2022ZM75.3921 54.1588C75.0752 54.1588 74.7962 54.101 74.5552 53.9857C74.3139 53.8667 74.1125 53.7098 73.9505 53.515C73.7886 53.3165 73.6661 53.0947 73.5834 52.8495C73.5004 52.6043 73.4592 52.3534 73.4592 52.0974C73.4592 51.8415 73.5004 51.5926 73.5834 51.3508C73.6661 51.1056 73.7886 50.8855 73.9505 50.6907C74.1125 50.4959 74.3139 50.3407 74.5552 50.2254C74.7962 50.1064 75.0752 50.0469 75.3921 50.0469C75.7086 50.0469 75.9877 50.1064 76.2289 50.2254C76.4699 50.3407 76.6717 50.4959 76.8336 50.6907C76.9956 50.8855 77.1178 51.1056 77.2008 51.3508C77.2835 51.5926 77.325 51.8415 77.325 52.0974C77.325 52.3534 77.2835 52.6043 77.2008 52.8495C77.1178 53.0947 76.9956 53.3165 76.8336 53.515C76.6717 53.7098 76.4699 53.8667 76.2289 53.9857C75.9877 54.101 75.7086 54.1588 75.3921 54.1588ZM75.3921 53.6665C75.6188 53.6665 75.8186 53.6232 75.9914 53.5366C76.1642 53.4501 76.3079 53.3327 76.4233 53.185C76.5421 53.0372 76.6319 52.8695 76.6933 52.6818C76.7543 52.4941 76.785 52.2993 76.785 52.0974C76.785 51.899 76.7543 51.7079 76.6933 51.5239C76.6319 51.3363 76.5421 51.1685 76.4233 51.0208C76.3079 50.873 76.1642 50.7556 75.9914 50.6691C75.8186 50.5825 75.6188 50.5392 75.3921 50.5392C75.1653 50.5392 74.9656 50.5825 74.7928 50.6691C74.62 50.7556 74.4742 50.873 74.3555 51.0208C74.24 51.1685 74.152 51.3363 74.0909 51.5239C74.0295 51.7079 73.9991 51.899 73.9991 52.0974C73.9991 52.2993 74.0295 52.4941 74.0909 52.6818C74.152 52.8695 74.24 53.0372 74.3555 53.185C74.4742 53.3327 74.62 53.4501 74.7928 53.5366C74.9656 53.6232 75.1653 53.6665 75.3921 53.6665ZM78.0545 54.1047V50.101H78.5296L80.6137 53.1471V50.101H81.1428V54.1047H80.6677L78.5836 51.064V54.1047H78.0545Z" fill="#828282"/>
<path d="M26.927 61.2097V68.7168H25.368V63.3401L23.9204 63.3503V62.4068L24.1532 62.3358C24.5784 62.214 24.9226 62.0754 25.1858 61.9199C25.449 61.7643 25.7021 61.558 25.9451 61.301L26.0159 61.2097H26.927ZM31.5196 68.8182C30.9999 68.8182 30.5478 68.7269 30.1631 68.5443C29.7784 68.355 29.4578 68.1013 29.2014 67.7835C28.9517 67.4588 28.7661 67.0936 28.6446 66.6878C28.5231 66.2753 28.4624 65.8458 28.4624 65.3995C28.4624 64.9058 28.5366 64.4087 28.6851 63.9082C28.8403 63.401 29.0799 62.9377 29.4038 62.5184C29.7345 62.0923 30.1563 61.7508 30.6693 61.4938C31.1822 61.2368 31.8031 61.1083 32.5319 61.1083C32.8289 61.1083 33.0854 61.1286 33.3013 61.1691C33.5173 61.203 33.6253 61.2199 33.6253 61.2199V62.6097C33.6253 62.6097 33.5679 62.6029 33.4532 62.5894C33.3452 62.5691 33.2068 62.5488 33.0381 62.5285C32.8694 62.5082 32.7007 62.4981 32.5319 62.4981C32.0123 62.4981 31.577 62.6029 31.226 62.8126C30.8751 63.0222 30.6051 63.2894 30.4162 63.614C30.234 63.9386 30.126 64.2802 30.0922 64.6386C30.1597 64.5237 30.2643 64.3985 30.406 64.2633C30.5478 64.1212 30.7367 63.9995 30.973 63.8981C31.2159 63.7966 31.5196 63.7459 31.8841 63.7459C32.424 63.7459 32.8761 63.8642 33.2406 64.101C33.605 64.3309 33.8784 64.6319 34.0606 65.0038C34.2428 65.3758 34.3339 65.7647 34.3339 66.1705C34.3339 66.4951 34.2732 66.8163 34.1517 67.1342C34.037 67.4453 33.8615 67.7294 33.6253 67.9864C33.3958 68.2366 33.1056 68.4395 32.7547 68.595C32.4037 68.7438 31.992 68.8182 31.5196 68.8182ZM31.5196 67.5299C31.8975 67.5299 32.208 67.4081 32.451 67.1646C32.6939 66.9212 32.8154 66.6101 32.8154 66.2313C32.8154 65.8458 32.6939 65.5347 32.451 65.298C32.208 65.0546 31.8975 64.9328 31.5196 64.9328C31.1484 64.9328 30.838 65.0546 30.5883 65.298C30.3453 65.5347 30.2238 65.8458 30.2238 66.2313C30.2238 66.6101 30.3453 66.9212 30.5883 67.1646C30.838 67.4081 31.1484 67.5299 31.5196 67.5299ZM36.6441 68.8182C36.3876 68.8182 36.1784 68.7337 36.0164 68.5646C35.8545 68.3888 35.7735 68.1859 35.7735 67.9559C35.7735 67.7125 35.8545 67.5062 36.0164 67.3371C36.1784 67.168 36.3876 67.0835 36.6441 67.0835C36.887 67.0835 37.0895 67.168 37.2515 67.3371C37.4202 67.5062 37.5046 67.7125 37.5046 67.9559C37.5046 68.1926 37.4202 68.3955 37.2515 68.5646C37.0895 68.7337 36.887 68.8182 36.6441 68.8182ZM42.3837 68.7168V67.1849L38.7595 67.1748V65.8154L42.0192 61.2097H43.9528V65.8661H45.1068V67.1849H43.9528V68.7168H42.3837ZM40.2983 65.8661H42.3837V62.8937L40.2983 65.8661ZM49.0721 68.8182C48.566 68.8182 48.134 68.7371 47.7763 68.5748C47.4187 68.4124 47.1251 68.2062 46.8956 67.9559C46.6729 67.7057 46.5076 67.4453 46.3996 67.1748C46.2983 66.8975 46.2477 66.6439 46.2477 66.4139H47.6954C47.6954 66.4139 47.7055 66.4714 47.7257 66.5864C47.7527 66.7014 47.8101 66.8333 47.8978 66.982C47.9856 67.1308 48.1205 67.2627 48.3028 67.3777C48.485 67.4927 48.7313 67.5501 49.0418 67.5501C49.3522 67.5501 49.6087 67.4859 49.8111 67.3574C50.0136 67.2221 50.1654 67.0531 50.2667 66.8502C50.3679 66.6473 50.4185 66.4342 50.4185 66.211C50.4185 65.9811 50.3679 65.7647 50.2667 65.5618C50.1654 65.3521 50.0136 65.1831 49.8111 65.0546C49.6154 64.9193 49.3691 64.8517 49.0721 64.8517C48.8427 64.8517 48.6537 64.8889 48.5052 64.9633C48.3567 65.0309 48.2386 65.112 48.1509 65.2067C48.0632 65.2946 47.9991 65.3758 47.9586 65.4502C47.9248 65.5178 47.908 65.5516 47.908 65.5516H46.3692L47.0272 61.2097H51.441V62.5691H48.0902L47.827 64.2836H47.8675C47.9012 64.2497 47.9687 64.1821 48.0699 64.0807C48.1779 63.9792 48.3399 63.8845 48.5558 63.7966C48.7718 63.7019 49.0586 63.6546 49.4163 63.6546C49.9562 63.6546 50.4152 63.7763 50.7931 64.0198C51.171 64.2633 51.4545 64.5778 51.6435 64.9633C51.8392 65.342 51.937 65.7444 51.937 66.1705C51.937 66.5019 51.8763 66.8231 51.7548 67.1342C51.6401 67.4453 51.4646 67.7294 51.2284 67.9864C50.9922 68.2366 50.6952 68.4395 50.3375 68.595C49.9799 68.7438 49.5581 68.8182 49.0721 68.8182ZM55.5423 68.7168V61.0068H57.081V65.4502L58.8526 63.3401H60.6039L58.4983 65.7951L60.695 68.7168H58.883L57.081 66.3024V68.7168H55.5423ZM63.8593 70.8675C63.3598 70.8675 62.9482 70.8066 62.6242 70.6848C62.307 70.5631 62.0539 70.4076 61.865 70.2182C61.676 70.0356 61.5376 69.853 61.4499 69.6704C61.3622 69.4878 61.3048 69.3322 61.2778 69.2037C61.2576 69.082 61.2474 69.0211 61.2474 69.0211H62.7457C62.7457 69.0211 62.7558 69.0516 62.7761 69.1124C62.8031 69.1801 62.8537 69.2544 62.9279 69.3356C63.0022 69.4235 63.1101 69.4979 63.2519 69.5588C63.4003 69.6264 63.5961 69.6602 63.839 69.6602C64.2574 69.6602 64.5645 69.5419 64.7602 69.3052C64.9627 69.0685 65.0639 68.7574 65.0639 68.3719V67.8038H64.9931C64.9256 67.912 64.8243 68.0303 64.6894 68.1588C64.5544 68.2873 64.3823 68.3955 64.1731 68.4835C63.9639 68.5714 63.7108 68.6153 63.4138 68.6153C63.0156 68.6153 62.6681 68.5409 62.3711 68.3922C62.0742 68.2366 61.8245 68.0303 61.622 67.7733C61.4263 67.5163 61.2778 67.2289 61.1766 66.911C61.0821 66.5932 61.0349 66.2652 61.0349 65.927C61.0349 65.5956 61.0821 65.271 61.1766 64.9531C61.2778 64.6285 61.4263 64.3377 61.622 64.0807C61.8245 63.8237 62.0742 63.6208 62.3711 63.472C62.6681 63.3164 63.0156 63.2387 63.4138 63.2387C63.7108 63.2387 63.9639 63.286 64.1731 63.3807C64.3823 63.4686 64.5544 63.5768 64.6894 63.7053C64.8311 63.8271 64.9323 63.9454 64.9931 64.0604H65.0639V63.3401H66.6027V68.3719C66.6027 68.8182 66.5048 69.2308 66.3091 69.6095C66.1134 69.9882 65.8131 70.2926 65.4081 70.5225C65.0032 70.7525 64.4869 70.8675 63.8593 70.8675ZM63.839 67.398C64.1225 67.398 64.3553 67.327 64.5375 67.1849C64.7265 67.0429 64.8682 66.8603 64.9627 66.6371C65.0572 66.4072 65.1044 66.1705 65.1044 65.927C65.1044 65.6768 65.0572 65.4401 64.9627 65.2169C64.8682 64.9937 64.7265 64.8111 64.5375 64.6691C64.3553 64.527 64.1225 64.456 63.839 64.456C63.5623 64.456 63.3295 64.527 63.1405 64.6691C62.9583 64.8111 62.8199 64.9937 62.7254 65.2169C62.631 65.4401 62.5837 65.6768 62.5837 65.927C62.5837 66.1705 62.631 66.4072 62.7254 66.6371C62.8199 66.8603 62.9583 67.0429 63.1405 67.1849C63.3295 67.327 63.5623 67.398 63.839 67.398Z" fill="#0B1354"/>
<path d="M280.445 87.3779H43.0925V141.444H280.445V87.3779Z" stroke="#ECECEC"/>
<path d="M42.9238 105.127H280.614" stroke="#ECECEC"/>
<path d="M42.9238 96.3311H280.614" stroke="#ECECEC"/>
<path d="M42.9238 113.923H280.614" stroke="#ECECEC"/>
<path d="M42.9238 122.719H280.614" stroke="#ECECEC"/>
<path d="M42.9238 131.515H280.614" stroke="#ECECEC"/>
<path d="M82.9089 87.209V141.613" stroke="#ECECEC"/>
<path d="M122.154 87.209V141.613" stroke="#ECECEC"/>
<path d="M161.398 87.209V141.613" stroke="#ECECEC"/>
<path d="M200.644 87.209V141.613" stroke="#ECECEC"/>
<path d="M239.888 87.209V141.613" stroke="#ECECEC"/>
<path d="M67.8643 162.863H67.5077C67.4864 162.76 67.4496 162.67 67.397 162.592C67.345 162.514 67.2819 162.449 67.207 162.396C67.1334 162.342 67.0514 162.302 66.9613 162.275C66.8712 162.248 66.7771 162.235 66.6792 162.235C66.5011 162.235 66.3394 162.28 66.1947 162.37C66.0509 162.46 65.9365 162.594 65.8511 162.769C65.7668 162.945 65.7246 163.161 65.7246 163.416C65.7246 163.672 65.7668 163.887 65.8511 164.063C65.9365 164.239 66.0509 164.372 66.1947 164.463C66.3394 164.553 66.5011 164.598 66.6792 164.598C66.7771 164.598 66.8712 164.584 66.9613 164.558C67.0514 164.531 67.1334 164.491 67.207 164.438C67.2819 164.384 67.345 164.319 67.397 164.24C67.4496 164.162 67.4864 164.071 67.5077 163.97H67.8643C67.8373 164.12 67.7884 164.255 67.7175 164.375C67.6467 164.494 67.5583 164.595 67.453 164.679C67.3474 164.761 67.2293 164.824 67.0977 164.867C66.9674 164.911 66.828 164.932 66.6792 164.932C66.4282 164.932 66.2048 164.871 66.0094 164.748C65.8137 164.625 65.6598 164.45 65.5478 164.223C65.4354 163.997 65.3794 163.727 65.3794 163.416C65.3794 163.105 65.4354 162.836 65.5478 162.609C65.6598 162.383 65.8137 162.208 66.0094 162.085C66.2048 161.962 66.4282 161.9 66.6792 161.9C66.828 161.9 66.9674 161.922 67.0977 161.965C67.2293 162.009 67.3474 162.072 67.453 162.155C67.5583 162.238 67.6467 162.339 67.7175 162.458C67.7884 162.576 67.8373 162.711 67.8643 162.863ZM70.9253 163.416C70.9253 163.727 70.8693 163.997 70.7572 164.223C70.6449 164.45 70.491 164.625 70.2956 164.748C70.0999 164.871 69.8765 164.932 69.6255 164.932C69.3744 164.932 69.151 164.871 68.9553 164.748C68.7599 164.625 68.606 164.45 68.4937 164.223C68.3816 163.997 68.3256 163.727 68.3256 163.416C68.3256 163.105 68.3816 162.836 68.4937 162.609C68.606 162.383 68.7599 162.208 68.9553 162.085C69.151 161.962 69.3744 161.9 69.6255 161.9C69.8765 161.9 70.0999 161.962 70.2956 162.085C70.491 162.208 70.6449 162.383 70.7572 162.609C70.8693 162.836 70.9253 163.105 70.9253 163.416ZM70.5801 163.416C70.5801 163.161 70.5376 162.945 70.4522 162.769C70.3678 162.594 70.2534 162.46 70.1087 162.37C69.9649 162.28 69.8036 162.235 69.6255 162.235C69.4469 162.235 69.2856 162.28 69.1409 162.37C68.9971 162.46 68.8824 162.594 68.797 162.769C68.7127 162.945 68.6705 163.161 68.6705 163.416C68.6705 163.672 68.7127 163.887 68.797 164.063C68.8824 164.239 68.9971 164.372 69.1409 164.463C69.2856 164.553 69.4469 164.598 69.6255 164.598C69.8036 164.598 69.9649 164.553 70.1087 164.463C70.2534 164.372 70.3678 164.239 70.4522 164.063C70.5376 163.887 70.5801 163.672 70.5801 163.416ZM71.4733 164.892V164.633L72.4451 163.566C72.5592 163.441 72.6533 163.333 72.7272 163.24C72.8008 163.147 72.8555 163.06 72.8909 162.978C72.9273 162.896 72.9456 162.809 72.9456 162.719C72.9456 162.615 72.9206 162.525 72.871 162.45C72.8221 162.373 72.7549 162.315 72.6695 162.274C72.5842 162.232 72.4883 162.211 72.382 162.211C72.269 162.211 72.1701 162.235 72.0858 162.282C72.0024 162.328 71.9376 162.393 71.8917 162.477C71.8465 162.56 71.8239 162.658 71.8239 162.771H71.4848C71.4848 162.598 71.5246 162.446 71.6039 162.315C71.6835 162.185 71.7918 162.083 71.9292 162.01C72.0672 161.937 72.2217 161.9 72.3935 161.9C72.5659 161.9 72.7188 161.937 72.8521 162.01C72.9854 162.083 73.09 162.181 73.1656 162.305C73.2415 162.429 73.2793 162.567 73.2793 162.719C73.2793 162.827 73.2597 162.933 73.2202 163.037C73.1821 163.14 73.115 163.255 73.0191 163.382C72.924 163.508 72.7924 163.661 72.6236 163.843L71.9623 164.552V164.575H73.3309V164.892H71.4733ZM75.1157 164.892V161.941H76.893V162.258H75.4723V163.255H76.8009V163.572H75.4723V164.575H76.9159V164.892H75.1157ZM77.4896 164.892V162.678H77.8176V163.024H77.8463C77.8922 162.906 77.9667 162.814 78.0693 162.749C78.1719 162.683 78.2951 162.65 78.4388 162.65C78.5846 162.65 78.7057 162.683 78.8026 162.749C78.9004 162.814 78.9767 162.906 79.031 163.024H79.0543C79.1107 162.91 79.1957 162.819 79.3087 162.752C79.4218 162.684 79.5574 162.65 79.7157 162.65C79.9131 162.65 80.0747 162.712 80.2003 162.836C80.3258 162.958 80.3886 163.15 80.3886 163.411V164.892H80.0491V163.411C80.0491 163.247 80.0046 163.131 79.9155 163.06C79.8264 162.99 79.7214 162.955 79.6006 162.955C79.4454 162.955 79.3249 163.002 79.2396 163.096C79.1542 163.189 79.1117 163.308 79.1117 163.451V164.892H78.7665V163.376C78.7665 163.25 78.726 163.149 78.6443 163.072C78.563 162.994 78.4581 162.955 78.3295 162.955C78.2414 162.955 78.1587 162.979 78.0821 163.026C78.0066 163.073 77.9451 163.138 77.8979 163.222C77.852 163.304 77.8291 163.4 77.8291 163.509V164.892H77.4896ZM81.0091 164.892V162.678H81.3486V164.892H81.0091ZM81.1816 162.31C81.1154 162.31 81.0584 162.287 81.0105 162.242C80.9636 162.197 80.9399 162.142 80.9399 162.079C80.9399 162.016 80.9636 161.961 81.0105 161.916C81.0584 161.871 81.1154 161.849 81.1816 161.849C81.2477 161.849 81.3044 161.871 81.3513 161.916C81.3992 161.961 81.4232 162.016 81.4232 162.079C81.4232 162.142 81.3992 162.197 81.3513 162.242C81.3044 162.287 81.2477 162.31 81.1816 162.31ZM83.5346 163.174L83.2298 163.261C83.2106 163.21 83.1823 163.16 83.1448 163.112C83.1084 163.063 83.0584 163.023 82.9953 162.991C82.9319 162.959 82.8509 162.944 82.7524 162.944C82.617 162.944 82.5043 162.975 82.4142 163.037C82.3252 163.099 82.2806 163.177 82.2806 163.272C82.2806 163.357 82.3113 163.423 82.3727 163.472C82.4342 163.521 82.53 163.562 82.6602 163.595L82.9882 163.676C83.1856 163.724 83.3328 163.797 83.4296 163.896C83.5265 163.994 83.5747 164.12 83.5747 164.275C83.5747 164.402 83.5383 164.515 83.4654 164.615C83.3935 164.715 83.2929 164.794 83.1637 164.851C83.0341 164.909 82.8836 164.938 82.7119 164.938C82.4868 164.938 82.3002 164.889 82.1527 164.791C82.0049 164.693 81.9115 164.55 81.8723 164.361L82.1942 164.281C82.2249 164.4 82.283 164.489 82.3684 164.549C82.4547 164.608 82.5671 164.638 82.7061 164.638C82.8644 164.638 82.9899 164.605 83.0831 164.537C83.1769 164.469 83.2241 164.388 83.2241 164.292C83.2241 164.216 83.1971 164.151 83.1435 164.099C83.0898 164.047 83.0071 164.007 82.8961 163.981L82.528 163.895C82.3258 163.847 82.177 163.772 82.0822 163.671C81.9884 163.57 81.9411 163.442 81.9411 163.29C81.9411 163.165 81.9762 163.054 82.0461 162.958C82.1173 162.862 82.2135 162.787 82.3353 162.732C82.4581 162.677 82.5971 162.65 82.7524 162.65C82.971 162.65 83.1424 162.698 83.267 162.794C83.3928 162.89 83.4819 163.017 83.5346 163.174ZM85.65 163.174L85.3453 163.261C85.326 163.21 85.2977 163.16 85.2606 163.112C85.2241 163.063 85.1742 163.023 85.1108 162.991C85.0477 162.959 84.9667 162.944 84.8678 162.944C84.7328 162.944 84.6201 162.975 84.53 163.037C84.4409 163.099 84.3964 163.177 84.3964 163.272C84.3964 163.357 84.4268 163.423 84.4882 163.472C84.5496 163.521 84.6454 163.562 84.776 163.595L85.1037 163.676C85.3011 163.724 85.4482 163.797 85.545 163.896C85.6419 163.994 85.6905 164.12 85.6905 164.275C85.6905 164.402 85.654 164.515 85.5812 164.615C85.5093 164.715 85.4087 164.794 85.2791 164.851C85.1499 164.909 84.9994 164.938 84.8276 164.938C84.6022 164.938 84.416 164.889 84.2682 164.791C84.1207 164.693 84.0272 164.55 83.9877 164.361L84.31 164.281C84.3407 164.4 84.3988 164.489 84.4841 164.549C84.5702 164.608 84.6829 164.638 84.8219 164.638C84.9802 164.638 85.1057 164.605 85.1985 164.537C85.2926 164.469 85.3395 164.388 85.3395 164.292C85.3395 164.216 85.3125 164.151 85.2589 164.099C85.2052 164.047 85.1229 164.007 85.0115 163.981L84.6437 163.895C84.4413 163.847 84.2928 163.772 84.198 163.671C84.1038 163.57 84.0569 163.442 84.0569 163.29C84.0569 163.165 84.092 163.054 84.1619 162.958C84.2327 162.862 84.3292 162.787 84.4511 162.732C84.5735 162.677 84.7126 162.65 84.8678 162.65C85.0865 162.65 85.2582 162.698 85.3827 162.794C85.5083 162.89 85.5974 163.017 85.65 163.174ZM86.2014 164.892V162.678H86.5405V164.892H86.2014ZM86.3738 162.31C86.3077 162.31 86.2506 162.287 86.2027 162.242C86.1558 162.197 86.1322 162.142 86.1322 162.079C86.1322 162.016 86.1558 161.961 86.2027 161.916C86.2506 161.871 86.3077 161.849 86.3738 161.849C86.4399 161.849 86.4966 161.871 86.5435 161.916C86.5915 161.961 86.6154 162.016 86.6154 162.079C86.6154 162.142 86.5915 162.197 86.5435 162.242C86.4966 162.287 86.4399 162.31 86.3738 162.31ZM88.0593 164.938C87.8599 164.938 87.6851 164.89 87.5346 164.795C87.3851 164.7 87.268 164.567 87.1837 164.396C87.1003 164.225 87.0585 164.025 87.0585 163.797C87.0585 163.566 87.1003 163.365 87.1837 163.193C87.268 163.021 87.3851 162.887 87.5346 162.792C87.6851 162.697 87.8599 162.65 88.0593 162.65C88.2588 162.65 88.4332 162.697 88.5831 162.792C88.7336 162.887 88.8503 163.021 88.9337 163.193C89.018 163.365 89.0602 163.566 89.0602 163.797C89.0602 164.025 89.018 164.225 88.9337 164.396C88.8503 164.567 88.7336 164.7 88.5831 164.795C88.4332 164.89 88.2588 164.938 88.0593 164.938ZM88.0593 164.633C88.2109 164.633 88.3357 164.593 88.4332 164.516C88.5311 164.438 88.6036 164.336 88.6505 164.209C88.6975 164.082 88.7211 163.945 88.7211 163.797C88.7211 163.649 88.6975 163.511 88.6505 163.383C88.6036 163.255 88.5311 163.152 88.4332 163.073C88.3357 162.995 88.2109 162.955 88.0593 162.955C87.9082 162.955 87.7833 162.995 87.6855 163.073C87.5879 163.152 87.5154 163.255 87.4685 163.383C87.4216 163.511 87.398 163.649 87.398 163.797C87.398 163.945 87.4216 164.082 87.4685 164.209C87.5154 164.336 87.5879 164.438 87.6855 164.516C87.7833 164.593 87.9082 164.633 88.0593 164.633ZM89.9177 163.56V164.892H89.5782V162.678H89.9062V163.024H89.9349C89.9868 162.912 90.0655 162.822 90.1707 162.754C90.2764 162.684 90.4123 162.65 90.579 162.65C90.7289 162.65 90.8595 162.681 90.9718 162.742C91.0839 162.803 91.1712 162.895 91.2333 163.019C91.2958 163.141 91.3268 163.297 91.3268 163.485V164.892H90.9877V163.509C90.9877 163.334 90.9425 163.199 90.8524 163.102C90.7623 163.004 90.6388 162.955 90.4815 162.955C90.3732 162.955 90.2764 162.979 90.191 163.026C90.1066 163.073 90.0398 163.141 89.9909 163.232C89.9423 163.322 89.9177 163.432 89.9177 163.56Z" fill="#4F4F4F"/>
<path d="M58.4736 162.138H42.9238V164.744H58.4736V162.138Z" fill="#82E6AC"/>
<path d="M56.8565 143.839H57.1538V145.597C57.1538 145.754 57.1248 145.887 57.0674 145.997C57.01 146.106 56.9287 146.189 56.8241 146.247C56.7195 146.303 56.596 146.332 56.4539 146.332C56.3196 146.332 56.2002 146.307 56.0956 146.258C55.991 146.209 55.9086 146.138 55.8486 146.047C55.7888 145.956 55.7588 145.847 55.7588 145.722H56.0514C56.0514 145.791 56.0686 145.852 56.1026 145.904C56.1377 145.955 56.186 145.995 56.2464 146.024C56.3071 146.053 56.3763 146.067 56.4539 146.067C56.5393 146.067 56.6122 146.049 56.6719 146.014C56.732 145.977 56.7775 145.925 56.8086 145.855C56.8406 145.785 56.8565 145.698 56.8565 145.597V143.839ZM58.2525 146.341C58.1357 146.341 58.0301 146.319 57.935 146.275C57.8398 146.23 57.7646 146.166 57.7085 146.082C57.6525 145.997 57.6245 145.895 57.6245 145.774C57.6245 145.669 57.6454 145.583 57.6869 145.517C57.7285 145.451 57.7841 145.399 57.8536 145.361C57.9228 145.324 57.9998 145.296 58.0834 145.277C58.1681 145.258 58.2532 145.243 58.3389 145.232C58.4506 145.217 58.5414 145.206 58.6109 145.199C58.6811 145.191 58.7323 145.178 58.7641 145.16C58.7968 145.141 58.8133 145.109 58.8133 145.064V145.054C58.8133 144.936 58.7809 144.844 58.7162 144.778C58.6524 144.712 58.5552 144.679 58.4249 144.679C58.29 144.679 58.1843 144.709 58.1074 144.768C58.0308 144.827 57.9768 144.891 57.9458 144.958L57.6775 144.862C57.7254 144.75 57.7892 144.663 57.8692 144.6C57.9498 144.537 58.0375 144.493 58.1327 144.468C58.2285 144.442 58.3227 144.43 58.4155 144.43C58.4745 144.43 58.5424 144.437 58.6193 144.451C58.6966 144.465 58.7715 144.493 58.8434 144.536C58.9159 144.58 58.9763 144.645 59.0242 144.732C59.0722 144.82 59.0961 144.936 59.0961 145.083V146.298H58.8133V146.048H58.7988C58.7799 146.088 58.7479 146.131 58.703 146.177C58.6584 146.223 58.5987 146.261 58.5245 146.293C58.4502 146.325 58.3595 146.341 58.2525 146.341ZM58.2957 146.087C58.4074 146.087 58.5019 146.065 58.5785 146.021C58.6561 145.977 58.7141 145.92 58.7533 145.85C58.7934 145.781 58.8133 145.707 58.8133 145.63V145.371C58.8012 145.385 58.7749 145.398 58.7344 145.411C58.6942 145.422 58.648 145.432 58.5953 145.441C58.5434 145.448 58.4924 145.456 58.4432 145.462C58.3942 145.468 58.3547 145.472 58.3244 145.477C58.2508 145.486 58.1823 145.502 58.1182 145.524C58.0551 145.544 58.0041 145.576 57.965 145.618C57.9265 145.66 57.9073 145.717 57.9073 145.789C57.9073 145.887 57.9437 145.962 58.0163 146.012C58.0899 146.062 58.183 146.087 58.2957 146.087ZM59.8952 145.188V146.298H59.6124V144.454H59.8854V144.742H59.9094C59.9525 144.648 60.018 144.573 60.1061 144.516C60.1938 144.458 60.3072 144.43 60.4462 144.43C60.5711 144.43 60.6801 144.455 60.7735 144.506C60.867 144.557 60.9396 144.634 60.9915 144.737C61.0435 144.839 61.0695 144.969 61.0695 145.126V146.298H60.7867V145.145C60.7867 145 60.7492 144.887 60.674 144.807C60.5987 144.725 60.4958 144.684 60.3649 144.684C60.2745 144.684 60.1938 144.704 60.1226 144.743C60.0524 144.782 59.9971 144.839 59.9563 144.915C59.9154 144.99 59.8952 145.081 59.8952 145.188Z" fill="#4F4F4F"/>
<path d="M101.727 146.298V143.839H103.199V144.103H102.025V144.934H103.089V145.198H102.025V146.298H101.727ZM104.306 146.336C104.129 146.336 103.976 146.297 103.847 146.219C103.719 146.139 103.621 146.029 103.551 145.887C103.482 145.745 103.448 145.579 103.448 145.39C103.448 145.201 103.482 145.035 103.551 144.891C103.621 144.746 103.718 144.633 103.841 144.552C103.966 144.47 104.111 144.43 104.277 144.43C104.373 144.43 104.468 144.446 104.561 144.478C104.655 144.509 104.74 144.561 104.817 144.634C104.893 144.705 104.954 144.799 105 144.917C105.045 145.035 105.068 145.18 105.068 145.352V145.472H103.649V145.227H104.781C104.781 145.123 104.76 145.03 104.718 144.948C104.678 144.867 104.619 144.802 104.543 144.755C104.468 144.708 104.38 144.684 104.277 144.684C104.165 144.684 104.067 144.712 103.985 144.768C103.903 144.823 103.841 144.896 103.797 144.984C103.753 145.073 103.731 145.168 103.731 145.27V145.433C103.731 145.573 103.755 145.691 103.803 145.788C103.852 145.884 103.919 145.957 104.005 146.007C104.092 146.057 104.192 146.082 104.306 146.082C104.38 146.082 104.447 146.071 104.508 146.051C104.568 146.029 104.621 145.997 104.664 145.955C104.708 145.911 104.742 145.858 104.766 145.794L105.04 145.871C105.011 145.963 104.962 146.045 104.895 146.115C104.827 146.185 104.743 146.239 104.643 146.279C104.543 146.317 104.431 146.336 104.306 146.336ZM105.537 146.298V143.839H105.819V144.746H105.843C105.864 144.714 105.893 144.674 105.93 144.624C105.967 144.574 106.021 144.529 106.09 144.489C106.161 144.45 106.256 144.43 106.376 144.43C106.53 144.43 106.667 144.468 106.786 144.546C106.904 144.624 106.996 144.734 107.062 144.876C107.128 145.019 107.162 145.187 107.162 145.381C107.162 145.576 107.128 145.745 107.062 145.888C106.996 146.031 106.904 146.141 106.787 146.22C106.669 146.298 106.534 146.336 106.38 146.336C106.262 146.336 106.167 146.317 106.097 146.278C106.025 146.237 105.971 146.192 105.932 146.142C105.894 146.091 105.864 146.048 105.843 146.015H105.81V146.298H105.537ZM105.815 145.376C105.815 145.515 105.835 145.638 105.876 145.744C105.917 145.85 105.976 145.933 106.054 145.993C106.133 146.052 106.229 146.082 106.342 146.082C106.46 146.082 106.559 146.051 106.638 145.988C106.718 145.925 106.778 145.84 106.818 145.734C106.858 145.626 106.879 145.507 106.879 145.376C106.879 145.246 106.859 145.129 106.819 145.025C106.78 144.92 106.72 144.837 106.64 144.777C106.562 144.715 106.462 144.684 106.342 144.684C106.227 144.684 106.13 144.713 106.052 144.772C105.974 144.829 105.915 144.91 105.875 145.014C105.835 145.117 105.815 145.238 105.815 145.376Z" fill="#4F4F4F"/>
<path d="M140.845 143.839H141.2L142.034 145.88H142.062L142.897 143.839H143.251V146.298H142.973V144.43H142.949L142.182 146.298H141.914L141.147 144.43H141.123V146.298H140.845V143.839ZM144.35 146.341C144.234 146.341 144.128 146.319 144.033 146.275C143.938 146.23 143.862 146.166 143.806 146.082C143.75 145.997 143.722 145.895 143.722 145.774C143.722 145.669 143.743 145.583 143.785 145.517C143.826 145.451 143.882 145.399 143.951 145.361C144.021 145.324 144.098 145.296 144.181 145.277C144.266 145.258 144.351 145.243 144.437 145.232C144.548 145.217 144.639 145.206 144.709 145.199C144.779 145.191 144.83 145.178 144.862 145.16C144.895 145.141 144.911 145.109 144.911 145.064V145.054C144.911 144.936 144.879 144.844 144.814 144.778C144.75 144.712 144.653 144.679 144.523 144.679C144.388 144.679 144.282 144.709 144.205 144.768C144.129 144.827 144.075 144.891 144.044 144.958L143.775 144.862C143.823 144.75 143.887 144.663 143.967 144.6C144.048 144.537 144.135 144.493 144.231 144.468C144.326 144.442 144.421 144.43 144.513 144.43C144.572 144.43 144.64 144.437 144.717 144.451C144.794 144.465 144.869 144.493 144.941 144.536C145.014 144.58 145.074 144.645 145.122 144.732C145.17 144.82 145.194 144.936 145.194 145.083V146.298H144.911V146.048H144.897C144.878 146.088 144.846 146.131 144.801 146.177C144.756 146.223 144.697 146.261 144.622 146.293C144.548 146.325 144.457 146.341 144.35 146.341ZM144.394 146.087C144.505 146.087 144.6 146.065 144.676 146.021C144.754 145.977 144.812 145.92 144.851 145.85C144.891 145.781 144.911 145.707 144.911 145.63V145.371C144.899 145.385 144.873 145.398 144.832 145.411C144.792 145.422 144.746 145.432 144.693 145.441C144.641 145.448 144.59 145.456 144.541 145.462C144.492 145.468 144.453 145.472 144.422 145.477C144.349 145.486 144.28 145.502 144.216 145.524C144.153 145.544 144.102 145.576 144.063 145.618C144.024 145.66 144.005 145.717 144.005 145.789C144.005 145.887 144.042 145.962 144.114 146.012C144.188 146.062 144.281 146.087 144.394 146.087ZM145.71 146.298V144.454H145.983V144.732H146.002C146.036 144.641 146.097 144.567 146.185 144.51C146.272 144.453 146.372 144.425 146.482 144.425C146.503 144.425 146.529 144.425 146.56 144.426C146.591 144.427 146.615 144.428 146.63 144.43V144.718C146.621 144.715 146.599 144.712 146.565 144.707C146.531 144.701 146.495 144.698 146.458 144.698C146.368 144.698 146.289 144.717 146.218 144.755C146.149 144.792 146.094 144.843 146.053 144.909C146.013 144.973 145.993 145.047 145.993 145.131V146.298H145.71Z" fill="#4F4F4F"/>
<path d="M179.733 146.298H179.422L180.323 143.839H180.63L181.531 146.298H181.219L180.486 144.228H180.467L179.733 146.298ZM179.849 145.337H181.104V145.602H179.849V145.337ZM181.875 146.99V144.454H182.148V144.746H182.182C182.202 144.714 182.231 144.674 182.268 144.624C182.305 144.574 182.359 144.529 182.428 144.489C182.499 144.45 182.594 144.43 182.713 144.43C182.869 144.43 183.005 144.468 183.123 144.546C183.241 144.624 183.334 144.734 183.4 144.876C183.467 145.019 183.5 145.187 183.5 145.381C183.5 145.576 183.467 145.745 183.4 145.888C183.334 146.031 183.242 146.141 183.124 146.22C183.007 146.298 182.872 146.336 182.718 146.336C182.6 146.336 182.506 146.317 182.434 146.278C182.363 146.237 182.308 146.192 182.27 146.142C182.232 146.091 182.202 146.048 182.182 146.015H182.158V146.99H181.875ZM182.153 145.376C182.153 145.515 182.173 145.638 182.214 145.744C182.254 145.85 182.314 145.933 182.392 145.993C182.471 146.052 182.567 146.082 182.68 146.082C182.798 146.082 182.897 146.051 182.976 145.988C183.056 145.925 183.116 145.84 183.156 145.734C183.196 145.626 183.217 145.507 183.217 145.376C183.217 145.246 183.197 145.129 183.157 145.025C183.118 144.92 183.058 144.837 182.978 144.777C182.899 144.715 182.8 144.684 182.68 144.684C182.565 144.684 182.468 144.713 182.39 144.772C182.312 144.829 182.252 144.91 182.213 145.014C182.173 145.117 182.153 145.238 182.153 145.376ZM183.931 146.298V144.454H184.204V144.732H184.223C184.257 144.641 184.318 144.567 184.406 144.51C184.493 144.453 184.593 144.425 184.703 144.425C184.724 144.425 184.75 144.425 184.781 144.426C184.812 144.427 184.835 144.428 184.851 144.43V144.718C184.842 144.715 184.82 144.712 184.785 144.707C184.752 144.701 184.716 144.698 184.679 144.698C184.589 144.698 184.509 144.717 184.439 144.755C184.37 144.792 184.315 144.843 184.274 144.909C184.234 144.973 184.214 145.047 184.214 145.131V146.298H183.931Z" fill="#4F4F4F"/>
<path d="M218.081 143.839H218.435L219.27 145.88H219.298L220.132 143.839H220.487V146.298H220.209V144.43H220.185L219.418 146.298H219.15L218.383 144.43H218.359V146.298H218.081V143.839ZM221.586 146.341C221.47 146.341 221.364 146.319 221.269 146.275C221.174 146.23 221.098 146.166 221.042 146.082C220.986 145.997 220.958 145.894 220.958 145.774C220.958 145.669 220.979 145.583 221.021 145.517C221.062 145.451 221.118 145.399 221.187 145.361C221.257 145.324 221.333 145.296 221.417 145.277C221.502 145.258 221.587 145.243 221.673 145.232C221.784 145.217 221.875 145.206 221.945 145.199C222.015 145.191 222.066 145.178 222.098 145.16C222.131 145.141 222.147 145.109 222.147 145.064V145.054C222.147 144.935 222.115 144.843 222.05 144.778C221.986 144.712 221.889 144.679 221.759 144.679C221.624 144.679 221.518 144.709 221.441 144.768C221.364 144.827 221.311 144.89 221.279 144.958L221.011 144.862C221.059 144.75 221.123 144.663 221.203 144.6C221.283 144.537 221.371 144.493 221.466 144.468C221.562 144.442 221.657 144.43 221.749 144.43C221.808 144.43 221.876 144.437 221.953 144.451C222.031 144.465 222.105 144.493 222.177 144.536C222.25 144.58 222.31 144.645 222.358 144.732C222.406 144.819 222.43 144.936 222.43 145.083V146.298H222.147V146.048H222.133C222.114 146.088 222.082 146.131 222.037 146.177C221.992 146.222 221.933 146.261 221.858 146.293C221.784 146.325 221.693 146.341 221.586 146.341ZM221.629 146.087C221.741 146.087 221.836 146.065 221.912 146.021C221.99 145.977 222.048 145.92 222.087 145.85C222.127 145.781 222.147 145.707 222.147 145.63V145.371C222.135 145.385 222.109 145.398 222.068 145.411C222.028 145.422 221.982 145.432 221.929 145.441C221.877 145.448 221.826 145.456 221.777 145.462C221.728 145.468 221.688 145.472 221.658 145.477C221.585 145.486 221.516 145.502 221.452 145.524C221.389 145.544 221.338 145.576 221.299 145.618C221.26 145.66 221.241 145.717 221.241 145.789C221.241 145.887 221.277 145.962 221.35 146.012C221.424 146.062 221.517 146.087 221.629 146.087ZM222.946 146.298V144.454H223.229V146.298H222.946ZM223.09 144.146C223.035 144.146 222.987 144.127 222.947 144.09C222.908 144.052 222.888 144.007 222.888 143.954C222.888 143.901 222.908 143.856 222.947 143.818C222.987 143.781 223.035 143.762 223.09 143.762C223.145 143.762 223.192 143.781 223.231 143.818C223.271 143.856 223.291 143.901 223.291 143.954C223.291 144.007 223.271 144.052 223.231 144.09C223.192 144.127 223.145 144.146 223.09 144.146Z" fill="#4F4F4F"/>
<path d="M258.974 143.839H259.271V145.597C259.271 145.754 259.243 145.887 259.185 145.997C259.128 146.106 259.047 146.189 258.942 146.247C258.837 146.303 258.714 146.332 258.572 146.332C258.438 146.332 258.318 146.307 258.213 146.258C258.109 146.209 258.027 146.138 257.966 146.047C257.907 145.956 257.877 145.847 257.877 145.722H258.169C258.169 145.791 258.186 145.852 258.221 145.904C258.256 145.955 258.304 145.995 258.364 146.024C258.425 146.053 258.494 146.067 258.572 146.067C258.657 146.067 258.73 146.049 258.79 146.014C258.85 145.977 258.895 145.925 258.927 145.855C258.958 145.785 258.974 145.698 258.974 145.597V143.839ZM260.989 145.544V144.454H261.271V146.298H260.989V145.986H260.969C260.927 146.079 260.859 146.159 260.768 146.225C260.677 146.289 260.562 146.322 260.423 146.322C260.308 146.322 260.206 146.297 260.116 146.247C260.027 146.195 259.957 146.118 259.905 146.016C259.854 145.912 259.829 145.783 259.829 145.626V144.454H260.112V145.606C260.112 145.741 260.149 145.848 260.224 145.928C260.3 146.008 260.397 146.048 260.514 146.048C260.584 146.048 260.656 146.03 260.729 145.994C260.802 145.958 260.864 145.903 260.913 145.829C260.964 145.754 260.989 145.659 260.989 145.544ZM262.072 145.188V146.298H261.789V144.454H262.063V144.742H262.087C262.13 144.648 262.195 144.573 262.283 144.516C262.371 144.458 262.485 144.43 262.624 144.43C262.748 144.43 262.857 144.455 262.951 144.506C263.044 144.557 263.117 144.634 263.169 144.737C263.221 144.839 263.246 144.969 263.246 145.126V146.298H262.964V145.145C262.964 145 262.926 144.887 262.851 144.807C262.776 144.725 262.673 144.684 262.542 144.684C262.452 144.684 262.371 144.704 262.3 144.743C262.23 144.782 262.174 144.839 262.133 144.915C262.093 144.99 262.072 145.081 262.072 145.188Z" fill="#4F4F4F"/>
<path d="M30.5517 140.825C30.335 140.825 30.1505 140.766 29.9981 140.648C29.8456 140.529 29.7292 140.356 29.6486 140.13C29.5681 139.904 29.5278 139.63 29.5278 139.309C29.5278 138.99 29.5681 138.718 29.6486 138.492C29.7301 138.265 29.8471 138.092 29.9995 137.973C30.1529 137.853 30.3369 137.793 30.5517 137.793C30.7664 137.793 30.95 137.853 31.1024 137.973C31.2558 138.092 31.3727 138.265 31.4533 138.492C31.5348 138.718 31.5755 138.99 31.5755 139.309C31.5755 139.63 31.5353 139.904 31.4547 140.13C31.3742 140.356 31.2577 140.529 31.1053 140.648C30.9529 140.766 30.7683 140.825 30.5517 140.825ZM30.5517 140.508C30.7664 140.508 30.9332 140.404 31.0521 140.197C31.1709 139.989 31.2304 139.693 31.2304 139.309C31.2304 139.054 31.2031 138.836 31.1484 138.656C31.0948 138.477 31.0171 138.34 30.9155 138.246C30.8148 138.151 30.6936 138.104 30.5517 138.104C30.3388 138.104 30.1725 138.21 30.0527 138.42C29.9329 138.629 29.8729 138.926 29.8729 139.309C29.8729 139.565 29.8998 139.782 29.9535 139.961C30.0072 140.139 30.0843 140.275 30.185 140.368C30.2866 140.461 30.4088 140.508 30.5517 140.508Z" fill="#4F4F4F"/>
<path d="M27.1392 130.686V130.426L28.1112 129.36C28.2253 129.235 28.3193 129.126 28.3931 129.034C28.4669 128.941 28.5215 128.854 28.557 128.772C28.5934 128.69 28.6116 128.603 28.6116 128.513C28.6116 128.409 28.5867 128.319 28.5369 128.243C28.488 128.167 28.4209 128.109 28.3355 128.067C28.2502 128.026 28.1544 128.005 28.048 128.005C27.9348 128.005 27.8361 128.029 27.7517 128.076C27.6683 128.122 27.6036 128.187 27.5576 128.271C27.5125 128.354 27.49 128.452 27.49 128.565H27.1507C27.1507 128.392 27.1904 128.24 27.27 128.109C27.3496 127.979 27.4579 127.877 27.595 127.804C27.733 127.731 27.8878 127.694 28.0595 127.694C28.232 127.694 28.3849 127.731 28.5182 127.804C28.6514 127.877 28.7559 127.975 28.8316 128.099C28.9074 128.223 28.9453 128.361 28.9453 128.513C28.9453 128.621 28.9256 128.727 28.8863 128.831C28.8479 128.934 28.7808 129.049 28.685 129.175C28.5901 129.302 28.4583 129.455 28.2895 129.637L27.6281 130.346V130.369H28.997V130.686H27.1392ZM30.5515 130.726C30.3348 130.726 30.1503 130.667 29.9978 130.549C29.8454 130.43 29.7289 130.257 29.6484 130.032C29.5679 129.805 29.5276 129.531 29.5276 129.21C29.5276 128.891 29.5679 128.619 29.6484 128.393C29.7299 128.166 29.8468 127.994 29.9993 127.874C30.1527 127.754 30.3367 127.694 30.5515 127.694C30.7662 127.694 30.9498 127.754 31.1022 127.874C31.2556 127.994 31.3725 128.166 31.4531 128.393C31.5346 128.619 31.5753 128.891 31.5753 129.21C31.5753 129.531 31.535 129.805 31.4545 130.032C31.374 130.257 31.2575 130.43 31.1051 130.549C30.9526 130.667 30.7681 130.726 30.5515 130.726ZM30.5515 130.409C30.7662 130.409 30.933 130.305 31.0519 130.098C31.1707 129.89 31.2302 129.594 31.2302 129.21C31.2302 128.955 31.2029 128.737 31.1482 128.557C31.0945 128.378 31.0169 128.241 30.9153 128.147C30.8146 128.052 30.6934 128.005 30.5515 128.005C30.3386 128.005 30.1723 128.111 30.0525 128.321C29.9327 128.531 29.8727 128.827 29.8727 129.21C29.8727 129.466 29.8996 129.683 29.9533 129.862C30.007 130.04 30.0841 130.176 30.1848 130.269C30.2864 130.362 30.4086 130.409 30.5515 130.409Z" fill="#4F4F4F"/>
<path d="M26.9238 121.285V120.991L28.218 118.939H28.4308V119.394H28.287L27.3092 120.945V120.968H29.052V121.285H26.9238ZM28.31 121.89V121.196V121.059V118.939H28.6494V121.89H28.31ZM30.5515 121.93C30.3348 121.93 30.1503 121.871 29.9978 121.753C29.8454 121.634 29.7289 121.462 29.6484 121.236C29.5679 121.009 29.5276 120.735 29.5276 120.414C29.5276 120.096 29.5679 119.823 29.6484 119.597C29.7299 119.37 29.8468 119.198 29.9993 119.079C30.1527 118.959 30.3367 118.898 30.5515 118.898C30.7662 118.898 30.9498 118.959 31.1022 119.079C31.2556 119.198 31.3725 119.37 31.4531 119.597C31.5346 119.823 31.5753 120.096 31.5753 120.414C31.5753 120.735 31.535 121.009 31.4545 121.236C31.374 121.462 31.2575 121.634 31.1051 121.753C30.9526 121.871 30.7681 121.93 30.5515 121.93ZM30.5515 121.613C30.7662 121.613 30.933 121.51 31.0519 121.302C31.1707 121.094 31.2302 120.799 31.2302 120.414C31.2302 120.159 31.2029 119.941 31.1482 119.762C31.0945 119.582 31.0169 119.445 30.9153 119.351C30.8146 119.257 30.6933 119.21 30.5515 119.21C30.3386 119.21 30.1723 119.315 30.0525 119.525C29.9326 119.735 29.8727 120.031 29.8727 120.414C29.8727 120.67 29.8996 120.887 29.9533 121.066C30.007 121.244 30.0841 121.38 30.1848 121.473C30.2864 121.567 30.4086 121.613 30.5515 121.613Z" fill="#4F4F4F"/>
<path d="M28.0419 113.461C27.9211 113.459 27.8003 113.436 27.6795 113.391C27.5587 113.347 27.4485 113.273 27.3488 113.168C27.2491 113.062 27.169 112.92 27.1086 112.74C27.0483 112.559 27.0181 112.333 27.0181 112.06C27.0181 111.799 27.0425 111.567 27.0914 111.365C27.1403 111.163 27.2112 110.992 27.3042 110.854C27.3972 110.714 27.5094 110.609 27.6407 110.537C27.773 110.465 27.922 110.429 28.0879 110.429C28.2528 110.429 28.3995 110.462 28.5279 110.528C28.6573 110.593 28.7628 110.685 28.8443 110.802C28.9258 110.919 28.9785 111.054 29.0025 111.207H28.6516C28.619 111.074 28.5557 110.964 28.4618 110.877C28.3678 110.79 28.2432 110.746 28.0879 110.746C27.8598 110.746 27.68 110.845 27.5487 111.044C27.4183 111.243 27.3526 111.522 27.3517 111.881H27.3747C27.4284 111.8 27.4921 111.73 27.5659 111.672C27.6407 111.614 27.7232 111.569 27.8133 111.537C27.9034 111.505 27.9987 111.489 28.0994 111.489C28.2681 111.489 28.4225 111.531 28.5624 111.616C28.7024 111.7 28.8146 111.815 28.8989 111.963C28.9833 112.11 29.0255 112.279 29.0255 112.469C29.0255 112.652 28.9847 112.819 28.9032 112.971C28.8217 113.121 28.7072 113.241 28.5596 113.331C28.4129 113.419 28.2403 113.463 28.0419 113.461ZM28.0419 113.144C28.1627 113.144 28.271 113.113 28.3669 113.053C28.4637 112.992 28.5399 112.911 28.5955 112.809C28.6521 112.708 28.6803 112.594 28.6803 112.469C28.6803 112.347 28.653 112.236 28.5984 112.136C28.5447 112.036 28.4704 111.955 28.3755 111.896C28.2816 111.836 28.1742 111.806 28.0534 111.806C27.9623 111.806 27.8775 111.825 27.7989 111.861C27.7203 111.897 27.6512 111.946 27.5918 112.008C27.5333 112.07 27.4873 112.142 27.4538 112.223C27.4202 112.302 27.4034 112.387 27.4034 112.475C27.4034 112.592 27.4308 112.702 27.4854 112.804C27.541 112.905 27.6167 112.988 27.7126 113.05C27.8094 113.112 27.9192 113.144 28.0419 113.144ZM30.5515 113.461C30.3349 113.461 30.1503 113.401 29.9979 113.283C29.8455 113.164 29.729 112.992 29.6485 112.766C29.5679 112.539 29.5277 112.266 29.5277 111.945C29.5277 111.626 29.5679 111.353 29.6485 111.128C29.7299 110.901 29.8469 110.728 29.9993 110.609C30.1527 110.489 30.3368 110.429 30.5515 110.429C30.7663 110.429 30.9498 110.489 31.1023 110.609C31.2557 110.728 31.3726 110.901 31.4531 111.128C31.5346 111.353 31.5753 111.626 31.5753 111.945C31.5753 112.266 31.5351 112.539 31.4545 112.766C31.374 112.992 31.2575 113.164 31.1051 113.283C30.9527 113.401 30.7682 113.461 30.5515 113.461ZM30.5515 113.144C30.7663 113.144 30.9331 113.04 31.0519 112.832C31.1708 112.625 31.2302 112.329 31.2302 111.945C31.2302 111.689 31.2029 111.472 31.1483 111.292C31.0946 111.112 31.0169 110.976 30.9153 110.881C30.8146 110.787 30.6934 110.74 30.5515 110.74C30.3387 110.74 30.1724 110.845 30.0525 111.056C29.9327 111.265 29.8728 111.562 29.8728 111.945C29.8728 112.2 29.8996 112.417 29.9533 112.596C30.007 112.775 30.0842 112.911 30.1848 113.004C30.2864 113.097 30.4087 113.144 30.5515 113.144Z" fill="#4F4F4F"/>
<path d="M28.0392 104.338C27.8417 104.338 27.6672 104.303 27.5158 104.233C27.3653 104.162 27.2478 104.065 27.1635 103.941C27.0791 103.816 27.0374 103.674 27.0384 103.514C27.0374 103.389 27.0618 103.274 27.1117 103.168C27.1616 103.062 27.2296 102.973 27.3159 102.902C27.4031 102.83 27.5004 102.784 27.6078 102.765V102.748C27.4669 102.711 27.3547 102.632 27.2713 102.51C27.1879 102.387 27.1467 102.247 27.1477 102.09C27.1467 101.941 27.1846 101.806 27.2612 101.688C27.3379 101.57 27.4434 101.477 27.5776 101.409C27.7128 101.34 27.8666 101.307 28.0392 101.307C28.2098 101.307 28.3622 101.34 28.4965 101.409C28.6307 101.477 28.7361 101.57 28.8128 101.688C28.8905 101.806 28.9298 101.941 28.9307 102.09C28.9298 102.247 28.8871 102.387 28.8027 102.51C28.7194 102.632 28.6086 102.711 28.4706 102.748V102.765C28.577 102.784 28.6729 102.83 28.7582 102.902C28.8435 102.973 28.9116 103.062 28.9624 103.168C29.0132 103.274 29.0391 103.389 29.04 103.514C29.0391 103.674 28.9959 103.816 28.9106 103.941C28.8262 104.065 28.7088 104.162 28.5583 104.233C28.4087 104.303 28.2357 104.338 28.0392 104.338ZM28.0392 104.021C28.1724 104.021 28.2875 104 28.3843 103.956C28.4811 103.913 28.5559 103.852 28.6086 103.773C28.6614 103.695 28.6882 103.602 28.6892 103.497C28.6882 103.385 28.6594 103.287 28.6029 103.201C28.5463 103.116 28.4692 103.049 28.3714 103C28.2745 102.951 28.1638 102.926 28.0392 102.926C27.9136 102.926 27.8015 102.951 27.7027 103C27.6049 103.049 27.5278 103.116 27.4712 103.201C27.4156 103.287 27.3883 103.385 27.3892 103.497C27.3883 103.602 27.4137 103.695 27.4655 103.773C27.5182 103.852 27.5934 103.913 27.6912 103.956C27.789 104 27.905 104.021 28.0392 104.021ZM28.0392 102.621C28.1446 102.621 28.2381 102.599 28.3196 102.557C28.402 102.515 28.4668 102.456 28.5137 102.38C28.5607 102.304 28.5847 102.215 28.5856 102.113C28.5847 102.013 28.5612 101.926 28.5152 101.853C28.4692 101.778 28.4054 101.72 28.3239 101.68C28.2424 101.638 28.1475 101.618 28.0392 101.618C27.9289 101.618 27.8326 101.638 27.7502 101.68C27.6677 101.72 27.604 101.778 27.5589 101.853C27.5138 101.926 27.4918 102.013 27.4928 102.113C27.4918 102.215 27.5143 102.304 27.5603 102.38C27.6073 102.456 27.672 102.515 27.7545 102.557C27.8369 102.599 27.9318 102.621 28.0392 102.621ZM30.5517 104.338C30.335 104.338 30.1505 104.279 29.9981 104.161C29.8457 104.042 29.7292 103.87 29.6487 103.644C29.5681 103.417 29.5278 103.143 29.5278 102.822C29.5278 102.503 29.5681 102.231 29.6487 102.005C29.7301 101.779 29.8471 101.606 29.9995 101.487C30.1529 101.366 30.3369 101.307 30.5517 101.307C30.7664 101.307 30.95 101.366 31.1024 101.487C31.2558 101.606 31.3728 101.779 31.4533 102.005C31.5348 102.231 31.5755 102.503 31.5755 102.822C31.5755 103.143 31.5353 103.417 31.4547 103.644C31.3742 103.87 31.2577 104.042 31.1053 104.161C30.9529 104.279 30.7684 104.338 30.5517 104.338ZM30.5517 104.021C30.7664 104.021 30.9332 103.918 31.0521 103.71C31.171 103.503 31.2304 103.207 31.2304 102.822C31.2304 102.567 31.2031 102.349 31.1485 102.17C31.0948 101.99 31.0171 101.853 30.9155 101.759C30.8148 101.665 30.6936 101.618 30.5517 101.618C30.3389 101.618 30.1725 101.723 30.0527 101.933C29.9329 102.143 29.873 102.439 29.873 102.822C29.873 103.078 29.8998 103.295 29.9535 103.474C30.0072 103.652 30.0844 103.788 30.185 103.882C30.2866 103.975 30.4088 104.021 30.5517 104.021Z" fill="#4F4F4F"/>
<path d="M26.2132 92.551V95.5021H25.8566V92.9257H25.8394L25.1204 93.4041V93.041L25.8566 92.551H26.2132ZM28.0208 95.5426C27.8041 95.5426 27.6196 95.4835 27.4671 95.3654C27.3147 95.2461 27.1982 95.0736 27.1177 94.8481C27.0372 94.6212 26.9969 94.3476 26.9969 94.0267C26.9969 93.7078 27.0372 93.4353 27.1177 93.2097C27.1992 92.9828 27.3161 92.81 27.4686 92.6906C27.622 92.5706 27.806 92.5107 28.0208 92.5107C28.2355 92.5107 28.4191 92.5706 28.5715 92.6906C28.7249 92.81 28.8418 92.9828 28.9224 93.2097C29.0039 93.4353 29.0446 93.7078 29.0446 94.0267C29.0446 94.3476 29.0043 94.6212 28.9238 94.8481C28.8433 95.0736 28.7268 95.2461 28.5744 95.3654C28.4219 95.4835 28.2374 95.5426 28.0208 95.5426ZM28.0208 95.2254C28.2355 95.2254 28.4023 95.1216 28.5212 94.9144C28.64 94.7067 28.6995 94.4108 28.6995 94.0267C28.6995 93.771 28.6722 93.5536 28.6175 93.3737C28.5638 93.1942 28.4862 93.0572 28.3846 92.9632C28.2839 92.8688 28.1627 92.8218 28.0208 92.8218C27.8079 92.8218 27.6416 92.927 27.5218 93.1373C27.402 93.347 27.342 93.6432 27.342 94.0267C27.342 94.282 27.3689 94.4991 27.4226 94.678C27.4763 94.8565 27.5534 94.9925 27.6541 95.0858C27.7557 95.1788 27.8779 95.2254 28.0208 95.2254ZM30.5516 95.5426C30.3349 95.5426 30.1504 95.4835 29.998 95.3654C29.8456 95.2461 29.7291 95.0736 29.6486 94.8481C29.568 94.6212 29.5277 94.3476 29.5277 94.0267C29.5277 93.7078 29.568 93.4353 29.6486 93.2097C29.73 92.9828 29.847 92.81 29.9994 92.6906C30.1528 92.5706 30.3368 92.5107 30.5516 92.5107C30.7663 92.5107 30.9499 92.5706 31.1023 92.6906C31.2557 92.81 31.3727 92.9828 31.4532 93.2097C31.5347 93.4353 31.5754 93.7078 31.5754 94.0267C31.5754 94.3476 31.5352 94.6212 31.4546 94.8481C31.3741 95.0736 31.2576 95.2461 31.1052 95.3654C30.9528 95.4835 30.7683 95.5426 30.5516 95.5426ZM30.5516 95.2254C30.7663 95.2254 30.9331 95.1216 31.052 94.9144C31.1709 94.7067 31.2303 94.4108 31.2303 94.0267C31.2303 93.771 31.203 93.5536 31.1484 93.3737C31.0947 93.1942 31.017 93.0572 30.9154 92.9632C30.8147 92.8688 30.6935 92.8218 30.5516 92.8218C30.3388 92.8218 30.1724 92.927 30.0526 93.1373C29.9328 93.347 29.8729 93.6432 29.8729 94.0267C29.8729 94.282 29.8997 94.4991 29.9534 94.678C30.0071 94.8565 30.0843 94.9925 30.1849 95.0858C30.2865 95.1788 30.4087 95.2254 30.5516 95.2254Z" fill="#4F4F4F"/>
<path d="M26.2923 83.7551V86.7062H25.9357V84.1298H25.9185L25.1995 84.6083V84.2451L25.9357 83.7551H26.2923ZM27.1393 86.7062V86.4468L28.1114 85.3806C28.2254 85.2555 28.3194 85.1469 28.3932 85.055C28.467 84.9616 28.5217 84.8744 28.5571 84.7925C28.5936 84.71 28.6118 84.6235 28.6118 84.5332C28.6118 84.4294 28.5869 84.3398 28.537 84.2637C28.4881 84.1879 28.421 84.1291 28.3357 84.0878C28.2504 84.0466 28.1545 84.0259 28.0481 84.0259C27.935 84.0259 27.8362 84.0496 27.7519 84.0966C27.6685 84.1426 27.6038 84.2075 27.5577 84.2911C27.5127 84.3746 27.4902 84.4726 27.4902 84.5849H27.1508C27.1508 84.4121 27.1906 84.2603 27.2702 84.1298C27.3497 83.9989 27.458 83.8971 27.5951 83.8241C27.7332 83.7514 27.888 83.7148 28.0596 83.7148C28.2321 83.7148 28.3851 83.7514 28.5183 83.8241C28.6515 83.8971 28.7561 83.9959 28.8318 84.1196C28.9075 84.2434 28.9454 84.3813 28.9454 84.5332C28.9454 84.6417 28.9257 84.7479 28.8864 84.8517C28.8481 84.9545 28.781 85.0692 28.6851 85.196C28.5902 85.3218 28.4584 85.4756 28.2897 85.6572L27.6282 86.366V86.3893H28.9972V86.7062H27.1393ZM30.5516 86.7464C30.335 86.7464 30.1504 86.6876 29.998 86.5692C29.8456 86.4502 29.7291 86.2777 29.6486 86.0518C29.568 85.8253 29.5278 85.5514 29.5278 85.2308C29.5278 84.9116 29.568 84.6394 29.6486 84.4135C29.73 84.1869 29.847 84.0141 29.9994 83.8947C30.1528 83.7747 30.3368 83.7148 30.5516 83.7148C30.7663 83.7148 30.9499 83.7747 31.1023 83.8947C31.2557 84.0141 31.3727 84.1869 31.4532 84.4135C31.5347 84.6394 31.5754 84.9116 31.5754 85.2308C31.5754 85.5514 31.5352 85.8253 31.4546 86.0518C31.3741 86.2777 31.2576 86.4502 31.1052 86.5692C30.9528 86.6876 30.7683 86.7464 30.5516 86.7464ZM30.5516 86.4296C30.7663 86.4296 30.9331 86.3257 31.052 86.1185C31.1709 85.9108 31.2303 85.6149 31.2303 85.2308C31.2303 84.9751 31.203 84.7574 31.1484 84.5778C31.0947 84.3983 31.017 84.2613 30.9154 84.1673C30.8147 84.0729 30.6935 84.0259 30.5516 84.0259C30.3388 84.0259 30.1724 84.1311 30.0526 84.3415C29.9328 84.5511 29.8729 84.8473 29.8729 85.2308C29.8729 85.4861 29.8997 85.7032 29.9534 85.8821C30.0071 86.0606 30.0843 86.1966 30.1849 86.2899C30.2865 86.3829 30.4088 86.4296 30.5516 86.4296Z" fill="#4F4F4F"/>
<path d="M76.9854 104.801H49.5881V141.613H76.9854V104.801Z" fill="#82E6AC"/>
<path d="M116.971 120.764H89.5735V141.613H116.971V120.764Z" fill="#82E6AC"/>
<path d="M156.215 130.212H128.818V141.614H156.215V130.212Z" fill="#82E6AC"/>
<path d="M195.46 118.483H168.063V141.613H195.46V118.483Z" fill="#82E6AC"/>
<path d="M234.705 132.492H207.307V141.614H234.705V132.492Z" fill="#82E6AC"/>
<path d="M273.949 96.3311H246.552V141.613H273.949V96.3311Z" fill="#82E6AC"/>
<path d="M28.2963 24.5166H16.6518C13.6699 24.5166 11.2527 26.939 11.2527 29.9271C11.2527 32.9152 13.6699 35.3376 16.6518 35.3376H28.2963C31.2781 35.3376 33.6954 32.9152 33.6954 29.9271C33.6954 26.939 31.2781 24.5166 28.2963 24.5166Z" fill="#007FFF"/>
<path d="M28.2963 24.5166H16.6518C13.6699 24.5166 11.2527 26.939 11.2527 29.9271C11.2527 32.9152 13.6699 35.3376 16.6518 35.3376H28.2963C31.2781 35.3376 33.6954 32.9152 33.6954 29.9271C33.6954 26.939 31.2781 24.5166 28.2963 24.5166Z" stroke="#007FFF"/>
<path d="M19.5525 31.3203C19.3177 31.3203 19.1111 31.277 18.933 31.1905C18.7548 31.1012 18.6063 30.9835 18.4875 30.8374C18.3715 30.6886 18.2837 30.5236 18.2243 30.3424C18.1649 30.1584 18.1353 29.9704 18.1353 29.7783C18.1353 29.5862 18.1649 29.3982 18.2243 29.2143C18.2837 29.0303 18.3715 28.8653 18.4875 28.7192C18.6063 28.5704 18.7548 28.4527 18.933 28.3662C19.1111 28.2796 19.3177 28.2363 19.5525 28.2363C19.7469 28.2363 19.9129 28.262 20.0506 28.3134C20.191 28.3621 20.307 28.4257 20.3988 28.5041C20.4933 28.5826 20.5689 28.6665 20.6256 28.7557C20.685 28.845 20.7282 28.9289 20.7552 29.0073C20.7849 29.0858 20.8038 29.1507 20.8119 29.2021C20.8227 29.2508 20.8281 29.2751 20.8281 29.2751H20.4312C20.4312 29.2751 20.4258 29.2535 20.415 29.2102C20.4042 29.1642 20.3826 29.1088 20.3502 29.0438C20.3178 28.9762 20.2692 28.9086 20.2045 28.8409C20.1397 28.7733 20.0546 28.7179 19.9494 28.6746C19.8441 28.6286 19.7131 28.6056 19.5566 28.6056C19.3865 28.6056 19.238 28.6394 19.1111 28.707C18.9843 28.772 18.8776 28.8612 18.7912 28.9749C18.7076 29.0858 18.6441 29.2116 18.6009 29.3522C18.5604 29.4902 18.5402 29.6322 18.5402 29.7783C18.5402 29.9244 18.5604 30.0678 18.6009 30.2084C18.6441 30.3464 18.7076 30.4722 18.7912 30.5858C18.8776 30.6967 18.9843 30.786 19.1111 30.8537C19.238 30.9186 19.3865 30.951 19.5566 30.951C19.7131 30.951 19.8441 30.928 19.9494 30.8821C20.0546 30.8361 20.1397 30.7806 20.2045 30.7157C20.2692 30.6481 20.3178 30.5818 20.3502 30.5168C20.3826 30.4492 20.4042 30.3924 20.415 30.3464C20.4258 30.3004 20.4312 30.2774 20.4312 30.2774H20.8281C20.8281 30.2774 20.8227 30.3031 20.8119 30.3545C20.8038 30.4032 20.7849 30.4682 20.7552 30.5493C20.7282 30.6278 20.685 30.7116 20.6256 30.8009C20.5689 30.8875 20.4933 30.9713 20.3988 31.0525C20.307 31.1309 20.191 31.1959 20.0506 31.2473C19.9129 31.296 19.7469 31.3203 19.5525 31.3203ZM22.7247 31.3203C22.4872 31.3203 22.278 31.277 22.0971 31.1905C21.9162 31.1012 21.765 30.9835 21.6436 30.8374C21.5221 30.6886 21.4303 30.5223 21.3682 30.3383C21.3061 30.1543 21.2751 29.9663 21.2751 29.7743C21.2751 29.5822 21.3061 29.3955 21.3682 29.2143C21.4303 29.0303 21.5221 28.8653 21.6436 28.7192C21.765 28.5731 21.9162 28.4568 22.0971 28.3702C22.278 28.281 22.4872 28.2363 22.7247 28.2363C22.9623 28.2363 23.1715 28.281 23.3524 28.3702C23.5332 28.4568 23.6844 28.5731 23.8059 28.7192C23.9274 28.8653 24.0192 29.0303 24.0813 29.2143C24.1433 29.3955 24.1744 29.5822 24.1744 29.7743C24.1744 29.9663 24.1433 30.1543 24.0813 30.3383C24.0192 30.5223 23.9274 30.6886 23.8059 30.8374C23.6844 30.9835 23.5332 31.1012 23.3524 31.1905C23.1715 31.277 22.9623 31.3203 22.7247 31.3203ZM22.7247 30.951C22.8948 30.951 23.0446 30.9186 23.1742 30.8537C23.3038 30.7887 23.4118 30.7008 23.4981 30.5899C23.5872 30.479 23.6547 30.3532 23.7006 30.2125C23.7465 30.0718 23.7695 29.9258 23.7695 29.7743C23.7695 29.6255 23.7465 29.4821 23.7006 29.3441C23.6547 29.2035 23.5872 29.0777 23.4981 28.9667C23.4118 28.8558 23.3038 28.7679 23.1742 28.703C23.0446 28.6381 22.8948 28.6056 22.7247 28.6056C22.5547 28.6056 22.4048 28.6381 22.2753 28.703C22.1457 28.7679 22.0363 28.8558 21.9473 28.9667C21.8609 29.0777 21.7947 29.2035 21.7488 29.3441C21.7029 29.4821 21.68 29.6255 21.68 29.7743C21.68 29.9258 21.7029 30.0718 21.7488 30.2125C21.7947 30.3532 21.8609 30.479 21.9473 30.5899C22.0363 30.7008 22.1457 30.7887 22.2753 30.8537C22.4048 30.9186 22.5547 30.951 22.7247 30.951ZM24.7258 31.2797V30.9997L25.3818 30.3911C25.5654 30.2206 25.726 30.0718 25.8637 29.9447C26.004 29.8148 26.1134 29.689 26.1917 29.5673C26.2699 29.4456 26.3091 29.3117 26.3091 29.1656C26.3091 29.0438 26.2794 28.941 26.22 28.8572C26.1633 28.7733 26.0891 28.7097 25.9973 28.6665C25.9082 28.6205 25.8151 28.5975 25.7179 28.5975C25.591 28.5975 25.4871 28.6191 25.4061 28.6624C25.3251 28.7057 25.263 28.7598 25.2198 28.8247C25.1766 28.8869 25.1456 28.9505 25.1267 29.0154C25.1078 29.0777 25.097 29.1304 25.0943 29.1737C25.0916 29.217 25.0902 29.2386 25.0902 29.2386H24.7096C24.7096 29.2386 24.711 29.2143 24.7137 29.1656C24.7164 29.1169 24.7258 29.0547 24.742 28.9789C24.7609 28.9032 24.7906 28.8234 24.8311 28.7395C24.8716 28.6529 24.9283 28.5718 25.0012 28.496C25.0767 28.4203 25.1726 28.3581 25.2887 28.3094C25.4074 28.2607 25.5519 28.2363 25.7219 28.2363C25.8947 28.2363 26.0553 28.2728 26.2038 28.3459C26.355 28.4162 26.4765 28.5204 26.5682 28.6583C26.66 28.7936 26.7059 28.96 26.7059 29.1575C26.7059 29.3387 26.66 29.5037 26.5682 29.6525C26.4792 29.7986 26.3604 29.942 26.2119 30.0827C26.0634 30.2233 25.9015 30.3748 25.726 30.5371L25.313 30.9186H26.7707V31.2797H24.7258Z" fill="white"/>
<path d="M56.4752 24.5166H44.8307C41.8489 24.5166 39.4316 26.939 39.4316 29.9271C39.4316 32.9152 41.8489 35.3376 44.8307 35.3376H56.4752C59.4571 35.3376 61.8743 32.9152 61.8743 29.9271C61.8743 26.939 59.4571 24.5166 56.4752 24.5166Z" fill="#9CA3AF"/>
<path d="M56.4752 24.5166H44.8307C41.8489 24.5166 39.4316 26.939 39.4316 29.9271C39.4316 32.9152 41.8489 35.3376 44.8307 35.3376H56.4752C59.4571 35.3376 61.8743 32.9152 61.8743 29.9271C61.8743 26.939 59.4571 24.5166 56.4752 24.5166Z" stroke="#9CA3AF"/>
<path d="M44.7273 31.2792V28.2764H45.7963C46.0258 28.2764 46.2161 28.3237 46.3673 28.4184C46.5211 28.5131 46.6359 28.6362 46.7115 28.7877C46.7898 28.9364 46.8289 29.092 46.8289 29.2543C46.8289 29.4193 46.7898 29.5776 46.7115 29.7291C46.6359 29.8779 46.5211 30.001 46.3673 30.0983C46.2161 30.193 46.0258 30.2404 45.7963 30.2404H45.1241V31.2792H44.7273ZM45.7963 28.6253H45.1241V29.8914H45.7963C45.9394 29.8914 46.0582 29.8603 46.1527 29.7981C46.2471 29.7358 46.3173 29.6574 46.3632 29.5627C46.4118 29.4653 46.4361 29.3639 46.4361 29.2584C46.4361 29.1529 46.4118 29.0514 46.3632 28.954C46.3173 28.8566 46.2471 28.7782 46.1527 28.7187C46.0582 28.6565 45.9394 28.6253 45.7963 28.6253ZM48.23 31.3198C48.0005 31.3198 47.8075 31.267 47.6509 31.1615C47.4943 31.0533 47.3756 30.914 47.2946 30.7435C47.2136 30.5731 47.1731 30.3932 47.1731 30.2039C47.1731 30.0118 47.2136 29.8319 47.2946 29.6642C47.3756 29.4937 47.4943 29.3558 47.6509 29.2503C47.8075 29.142 48.0005 29.0879 48.23 29.0879C48.4594 29.0879 48.6524 29.142 48.809 29.2503C48.9656 29.3558 49.0844 29.4937 49.1654 29.6642C49.2463 29.8319 49.2868 30.0118 49.2868 30.2039C49.2868 30.3932 49.2463 30.5731 49.1654 30.7435C49.0844 30.914 48.9656 31.0533 48.809 31.1615C48.6524 31.267 48.4594 31.3198 48.23 31.3198ZM48.23 30.983C48.3757 30.983 48.4972 30.9464 48.5944 30.8734C48.6943 30.7977 48.7685 30.7003 48.8171 30.5812C48.8684 30.4622 48.8941 30.3364 48.8941 30.2039C48.8941 30.0686 48.8684 29.9428 48.8171 29.8265C48.7685 29.7074 48.6943 29.6114 48.5944 29.5384C48.4972 29.4626 48.3757 29.4247 48.23 29.4247C48.0869 29.4247 47.9654 29.4626 47.8655 29.5384C47.7656 29.6114 47.6901 29.7074 47.6388 29.8265C47.5902 29.9428 47.5659 30.0686 47.5659 30.2039C47.5659 30.3364 47.5902 30.4622 47.6388 30.5812C47.6901 30.7003 47.7656 30.7977 47.8655 30.8734C47.9654 30.9464 48.0869 30.983 48.23 30.983ZM50.2833 31.2792L49.5909 29.1285H49.9837L50.4939 30.7598L51.0284 29.1285H51.3928L51.9233 30.7598L52.4376 29.1285H52.8303L52.1339 31.2792H51.7208L51.2106 29.6926L50.7004 31.2792H50.2833ZM54.1528 31.3198C53.9773 31.3198 53.8248 31.2887 53.6952 31.2264C53.5683 31.1615 53.463 31.0749 53.3794 30.9667C53.2984 30.8585 53.2376 30.7395 53.1971 30.6096C53.1566 30.4771 53.1364 30.3418 53.1364 30.2039C53.1364 30.0686 53.1553 29.9347 53.1931 29.8021C53.2336 29.6696 53.2943 29.5492 53.3753 29.441C53.459 29.3328 53.5629 29.2476 53.6871 29.1853C53.814 29.1204 53.9638 29.0879 54.1366 29.0879C54.3202 29.0879 54.4821 29.1299 54.6225 29.2137C54.7629 29.2976 54.8736 29.422 54.9545 29.5871C55.0355 29.7521 55.076 29.959 55.076 30.2079V30.3215H53.5251C53.5332 30.4433 53.5616 30.5555 53.6102 30.6583C53.6615 30.7584 53.733 30.8396 53.8248 30.9018C53.9166 30.9613 54.0259 30.9911 54.1528 30.9911C54.2635 30.9911 54.3525 30.9735 54.42 30.9383C54.4902 30.9005 54.5456 30.8572 54.5861 30.8085C54.6266 30.7598 54.6535 30.7179 54.667 30.6827C54.6832 30.6448 54.6913 30.6259 54.6913 30.6259H55.0517C55.0517 30.6259 55.045 30.6502 55.0315 30.6989C55.018 30.7449 54.9937 30.8017 54.9586 30.8693C54.9235 30.937 54.8722 31.006 54.8047 31.0763C54.7372 31.1439 54.6508 31.2021 54.5456 31.2508C54.4403 31.2968 54.3094 31.3198 54.1528 31.3198ZM53.5292 30.0213H54.6994C54.694 29.8806 54.6643 29.767 54.6104 29.6804C54.5564 29.5911 54.4875 29.5248 54.4038 29.4816C54.3202 29.4383 54.2311 29.4166 54.1366 29.4166C53.9665 29.4166 53.8275 29.4721 53.7195 29.583C53.6115 29.6912 53.5481 29.8373 53.5292 30.0213ZM55.6011 31.2792V29.1285H55.9858V29.3963H56.002C56.0479 29.3152 56.1154 29.2435 56.2044 29.1813C56.2935 29.1191 56.4191 29.0879 56.581 29.0879C56.6269 29.0879 56.6688 29.0906 56.7066 29.0961C56.7443 29.0988 56.7632 29.1001 56.7632 29.1001V29.4694C56.7632 29.4694 56.7416 29.468 56.6985 29.4653C56.658 29.4599 56.6148 29.4572 56.5689 29.4572C56.3826 29.4572 56.2382 29.5113 56.1356 29.6195C56.0357 29.725 55.9858 29.8982 55.9858 30.1389V31.2792H55.6011Z" fill="white"/>
<path d="M84.6544 24.5166H73.0099C70.0281 24.5166 67.6108 26.939 67.6108 29.9271C67.6108 32.9152 70.0281 35.3376 73.0099 35.3376H84.6544C87.6363 35.3376 90.0535 32.9152 90.0535 29.9271C90.0535 26.939 87.6363 24.5166 84.6544 24.5166Z" fill="#9CA3AF"/>
<path d="M84.6544 24.5166H73.0099C70.0281 24.5166 67.6108 26.939 67.6108 29.9271C67.6108 32.9152 70.0281 35.3376 73.0099 35.3376H84.6544C87.6363 35.3376 90.0535 32.9152 90.0535 29.9271C90.0535 26.939 87.6363 24.5166 84.6544 24.5166Z" stroke="#9CA3AF"/>
<path d="M76.1324 31.3203C75.8975 31.3203 75.691 31.277 75.5128 31.1905C75.3346 31.1012 75.1862 30.9835 75.0674 30.8374C74.9513 30.6886 74.8636 30.5236 74.8042 30.3424C74.7448 30.1584 74.7151 29.9704 74.7151 29.7783C74.7151 29.5862 74.7448 29.3982 74.8042 29.2143C74.8636 29.0303 74.9513 28.8653 75.0674 28.7192C75.1862 28.5704 75.3346 28.4527 75.5128 28.3662C75.691 28.2796 75.8975 28.2363 76.1324 28.2363C76.3267 28.2363 76.4927 28.262 76.6304 28.3134C76.7708 28.3621 76.8869 28.4257 76.9787 28.5041C77.0731 28.5826 77.1487 28.6665 77.2054 28.7557C77.2648 28.845 77.308 28.9289 77.335 29.0073C77.3647 29.0858 77.3836 29.1507 77.3917 29.2021C77.4025 29.2508 77.4079 29.2751 77.4079 29.2751H77.0111C77.0111 29.2751 77.0057 29.2535 76.9949 29.2102C76.9841 29.1642 76.9625 29.1088 76.9301 29.0438C76.8977 28.9762 76.8491 28.9086 76.7843 28.8409C76.7195 28.7733 76.6345 28.7179 76.5292 28.6746C76.4239 28.6286 76.293 28.6056 76.1364 28.6056C75.9663 28.6056 75.8179 28.6394 75.691 28.707C75.5641 28.772 75.4575 28.8612 75.3711 28.9749C75.2874 29.0858 75.224 29.2116 75.1808 29.3522C75.1403 29.4902 75.12 29.6322 75.12 29.7783C75.12 29.9244 75.1403 30.0678 75.1808 30.2084C75.224 30.3464 75.2874 30.4722 75.3711 30.5858C75.4575 30.6967 75.5641 30.786 75.691 30.8537C75.8179 30.9186 75.9663 30.951 76.1364 30.951C76.293 30.951 76.4239 30.928 76.5292 30.8821C76.6345 30.8361 76.7195 30.7806 76.7843 30.7157C76.8491 30.6481 76.8977 30.5818 76.9301 30.5168C76.9625 30.4492 76.9841 30.3924 76.9949 30.3464C77.0057 30.3004 77.0111 30.2774 77.0111 30.2774H77.4079C77.4079 30.2774 77.4025 30.3031 77.3917 30.3545C77.3836 30.4032 77.3647 30.4682 77.335 30.5493C77.308 30.6278 77.2648 30.7116 77.2054 30.8009C77.1487 30.8875 77.0731 30.9713 76.9787 31.0525C76.8869 31.1309 76.7708 31.1959 76.6304 31.2473C76.4927 31.296 76.3267 31.3203 76.1324 31.3203ZM77.9562 31.2797V28.2769H79.0253C79.2547 28.2769 79.445 28.3242 79.5962 28.4189C79.7501 28.5136 79.8648 28.6367 79.9404 28.7882C80.0187 28.937 80.0578 29.0925 80.0578 29.2549C80.0578 29.4199 80.0187 29.5781 79.9404 29.7296C79.8648 29.8784 79.7501 30.0015 79.5962 30.0989C79.445 30.1936 79.2547 30.2409 79.0253 30.2409H78.3531V31.2797H77.9562ZM79.0253 28.6259H78.3531V29.8919H79.0253C79.1683 29.8919 79.2871 29.8608 79.3816 29.7986C79.4761 29.7364 79.5463 29.6579 79.5922 29.5632C79.6408 29.4659 79.6651 29.3644 79.6651 29.2589C79.6651 29.1534 79.6408 29.052 79.5922 28.9546C79.5463 28.8572 79.4761 28.7787 79.3816 28.7192C79.2871 28.657 79.1683 28.6259 79.0253 28.6259ZM81.7039 31.3203C81.469 31.3203 81.2666 31.2757 81.0965 31.1864C80.9264 31.0944 80.7941 30.9659 80.6997 30.8009C80.6079 30.6332 80.562 30.4357 80.562 30.2084V28.2769H80.9588V30.2084C80.9588 30.4168 81.0196 30.5912 81.141 30.7319C81.2652 30.8726 81.4528 30.9429 81.7039 30.9429C81.9577 30.9429 82.1453 30.8726 82.2668 30.7319C82.3909 30.5912 82.453 30.4168 82.453 30.2084V28.2769H82.8499V30.2084C82.8499 30.4357 82.8026 30.6332 82.7081 30.8009C82.6163 30.9659 82.4854 31.0944 82.3153 31.1864C82.1453 31.2757 81.9415 31.3203 81.7039 31.3203Z" fill="white"/>
<path d="M242.142 24.6006H284.348C287.283 24.6006 289.663 26.9851 289.663 29.9265C289.663 32.868 287.283 35.2523 284.348 35.2523H242.142C239.206 35.2523 236.827 32.868 236.827 29.9265C236.827 26.9851 239.206 24.6006 242.142 24.6006Z" fill="white"/>
<path d="M242.142 24.6006H284.348C287.283 24.6006 289.663 26.9851 289.663 29.9265C289.663 32.868 287.283 35.2523 284.348 35.2523H242.142C239.206 35.2523 236.827 32.868 236.827 29.9265C236.827 26.9851 239.206 24.6006 242.142 24.6006Z" stroke="#E6F3FF" stroke-width="1.5"/>
<path d="M242.297 31.2793V28.2765H243.451C243.643 28.2765 243.806 28.3116 243.941 28.382C244.079 28.4496 244.184 28.5416 244.257 28.6579C244.33 28.7715 244.366 28.896 244.366 29.0312C244.366 29.18 244.339 29.3004 244.285 29.3924C244.231 29.4844 244.171 29.5547 244.103 29.6034C244.036 29.6494 243.982 29.6805 243.941 29.6967V29.7211C244.006 29.74 244.08 29.7765 244.164 29.8306C244.25 29.882 244.324 29.9564 244.387 30.0538C244.449 30.1512 244.48 30.2784 244.48 30.4353C244.48 30.5732 244.446 30.7071 244.378 30.837C244.311 30.9668 244.204 31.0737 244.059 31.1576C243.913 31.2387 243.72 31.2793 243.48 31.2793H242.297ZM243.435 28.6214H242.694V29.579H243.435C243.565 29.579 243.668 29.5561 243.747 29.5101C243.828 29.4641 243.886 29.4046 243.921 29.3315C243.959 29.2558 243.978 29.1787 243.978 29.1002C243.978 29.0191 243.959 28.942 243.921 28.8689C243.886 28.7959 243.828 28.7364 243.747 28.6904C243.668 28.6444 243.565 28.6214 243.435 28.6214ZM243.467 29.8996H242.694V30.9344H243.467C243.616 30.9344 243.735 30.91 243.824 30.8613C243.913 30.8099 243.978 30.745 244.018 30.6666C244.061 30.5854 244.083 30.5015 244.083 30.415C244.083 30.3284 244.061 30.2459 244.018 30.1674C243.978 30.089 243.913 30.0254 243.824 29.9767C243.735 29.9253 243.616 29.8996 243.467 29.8996ZM245.917 29.088C246.052 29.088 246.165 29.1097 246.257 29.153C246.348 29.1963 246.423 29.2477 246.479 29.3072C246.536 29.364 246.579 29.4181 246.609 29.4695H246.633V29.1286H247.018V31.2793H246.633V30.9384H246.609C246.579 30.9898 246.536 31.0453 246.479 31.1048C246.423 31.1643 246.348 31.2157 246.257 31.259C246.165 31.2996 246.052 31.3199 245.917 31.3199C245.755 31.3199 245.613 31.2888 245.491 31.2265C245.37 31.1616 245.269 31.0764 245.188 30.9709C245.107 30.8627 245.046 30.7423 245.005 30.6097C244.965 30.4772 244.945 30.3419 244.945 30.204C244.945 30.066 244.965 29.9307 245.005 29.7982C245.046 29.6656 245.107 29.5466 245.188 29.4411C245.269 29.3329 245.37 29.2477 245.491 29.1854C245.613 29.1205 245.755 29.088 245.917 29.088ZM245.981 29.4167C245.838 29.4167 245.718 29.456 245.621 29.5344C245.524 29.6102 245.451 29.7075 245.402 29.8266C245.356 29.9456 245.333 30.0714 245.333 30.204C245.333 30.3338 245.356 30.4596 245.402 30.5813C245.451 30.7004 245.524 30.7991 245.621 30.8776C245.718 30.9533 245.838 30.9912 245.981 30.9912C246.124 30.9912 246.243 30.9533 246.338 30.8776C246.435 30.7991 246.506 30.7004 246.552 30.5813C246.601 30.4596 246.625 30.3338 246.625 30.204C246.625 30.0714 246.601 29.9456 246.552 29.8266C246.506 29.7075 246.435 29.6102 246.338 29.5344C246.243 29.456 246.124 29.4167 245.981 29.4167ZM247.583 31.2793V29.1286H247.968V29.3964H247.984C248.03 29.3153 248.097 29.2436 248.187 29.1814C248.276 29.1192 248.401 29.088 248.563 29.088C248.609 29.088 248.651 29.0907 248.689 29.0962C248.726 29.0989 248.745 29.1002 248.745 29.1002V29.4695C248.745 29.4695 248.724 29.4681 248.681 29.4654C248.64 29.46 248.597 29.4573 248.551 29.4573C248.365 29.4573 248.22 29.5114 248.118 29.6196C248.018 29.7251 247.968 29.8983 247.968 30.139V31.2793H247.583ZM251.119 31.3199C250.943 31.3199 250.789 31.2888 250.657 31.2265C250.525 31.1616 250.414 31.0764 250.325 30.9709C250.239 30.8627 250.172 30.7423 250.127 30.6097C250.083 30.4772 250.062 30.3419 250.062 30.204C250.062 30.066 250.083 29.9321 250.127 29.8022C250.17 29.6697 250.234 29.5493 250.321 29.4411C250.41 29.3329 250.521 29.2477 250.653 29.1854C250.785 29.1205 250.94 29.088 251.119 29.088C251.291 29.088 251.434 29.1137 251.548 29.1651C251.661 29.2165 251.752 29.2815 251.819 29.3599C251.889 29.4357 251.941 29.5128 251.973 29.5912C252.008 29.667 252.031 29.7305 252.042 29.7819C252.053 29.8333 252.058 29.859 252.058 29.859H251.685C251.685 29.859 251.679 29.8374 251.665 29.7941C251.652 29.7481 251.626 29.6967 251.588 29.6399C251.551 29.5831 251.494 29.5331 251.418 29.4898C251.343 29.4438 251.243 29.4208 251.119 29.4208C250.97 29.4208 250.845 29.4587 250.742 29.5344C250.642 29.6074 250.567 29.7035 250.515 29.8225C250.467 29.9415 250.442 30.0687 250.442 30.204C250.442 30.3392 250.467 30.4664 250.515 30.5854C250.567 30.7044 250.642 30.8018 250.742 30.8776C250.845 30.9506 250.97 30.9871 251.119 30.9871C251.243 30.9871 251.343 30.9655 251.418 30.9222C251.494 30.8762 251.551 30.8248 251.588 30.768C251.626 30.7112 251.652 30.6611 251.665 30.6179C251.679 30.5719 251.685 30.5489 251.685 30.5489H252.058C252.058 30.5489 252.053 30.5746 252.042 30.626C252.031 30.6774 252.008 30.7423 251.973 30.8208C251.941 30.8965 251.889 30.9736 251.819 31.052C251.752 31.1278 251.661 31.1914 251.548 31.2428C251.434 31.2942 251.291 31.3199 251.119 31.3199ZM252.626 31.2793V28.1953H253.011V29.4411H253.035C253.054 29.4086 253.085 29.364 253.128 29.3072C253.174 29.2504 253.239 29.2003 253.322 29.157C253.406 29.111 253.511 29.088 253.638 29.088C253.795 29.088 253.928 29.1246 254.039 29.1976C254.15 29.2679 254.234 29.364 254.29 29.4857C254.35 29.6075 254.379 29.7441 254.379 29.8956V31.2793H253.995V29.9199C253.995 29.7765 253.954 29.6575 253.873 29.5628C253.795 29.4681 253.68 29.4208 253.529 29.4208C253.407 29.4208 253.309 29.4519 253.233 29.5141C253.158 29.5736 253.101 29.6534 253.063 29.7535C253.028 29.8509 253.011 29.9551 253.011 30.066V31.2793H252.626ZM255.878 29.088C256.013 29.088 256.126 29.1097 256.218 29.153C256.309 29.1963 256.384 29.2477 256.44 29.3072C256.497 29.364 256.54 29.4181 256.57 29.4695H256.594V29.1286H256.979V31.2793H256.594V30.9384H256.57C256.54 30.9898 256.497 31.0453 256.44 31.1048C256.384 31.1643 256.309 31.2157 256.218 31.259C256.126 31.2996 256.013 31.3199 255.878 31.3199C255.716 31.3199 255.574 31.2888 255.452 31.2265C255.331 31.1616 255.23 31.0764 255.149 30.9709C255.068 30.8627 255.007 30.7423 254.966 30.6097C254.926 30.4772 254.906 30.3419 254.906 30.204C254.906 30.066 254.926 29.9307 254.966 29.7982C255.007 29.6656 255.068 29.5466 255.149 29.4411C255.23 29.3329 255.331 29.2477 255.452 29.1854C255.574 29.1205 255.716 29.088 255.878 29.088ZM255.942 29.4167C255.799 29.4167 255.679 29.456 255.582 29.5344C255.485 29.6102 255.412 29.7075 255.363 29.8266C255.317 29.9456 255.294 30.0714 255.294 30.204C255.294 30.3338 255.317 30.4596 255.363 30.5813C255.412 30.7004 255.485 30.7991 255.582 30.8776C255.679 30.9533 255.799 30.9912 255.942 30.9912C256.085 30.9912 256.204 30.9533 256.299 30.8776C256.396 30.7991 256.467 30.7004 256.513 30.5813C256.562 30.4596 256.586 30.3338 256.586 30.204C256.586 30.0714 256.562 29.9456 256.513 29.8266C256.467 29.7075 256.396 29.6102 256.299 29.5344C256.204 29.456 256.085 29.4167 255.942 29.4167ZM257.544 31.2793V29.1286H257.929V29.3964H257.945C257.991 29.3153 258.058 29.2436 258.148 29.1814C258.237 29.1192 258.362 29.088 258.524 29.088C258.57 29.088 258.612 29.0907 258.65 29.0962C258.687 29.0989 258.706 29.1002 258.706 29.1002V29.4695C258.706 29.4695 258.685 29.4681 258.642 29.4654C258.601 29.46 258.558 29.4573 258.512 29.4573C258.326 29.4573 258.181 29.5114 258.079 29.6196C257.979 29.7251 257.929 29.8983 257.929 30.139V31.2793H257.544ZM260.041 31.3199C259.82 31.3199 259.653 31.2631 259.539 31.1494C259.428 31.0358 259.373 30.8762 259.373 30.6706V29.4451H258.988V29.1286H259.373V28.5889H259.758V29.1286H260.28V29.4451H259.758V30.6706C259.758 30.7788 259.788 30.8586 259.847 30.91C259.906 30.9587 259.993 30.9831 260.106 30.9831C260.165 30.9831 260.222 30.979 260.276 30.9709C260.33 30.9628 260.357 30.9587 260.357 30.9587V31.2874C260.357 31.2874 260.326 31.2928 260.264 31.3036C260.202 31.3145 260.128 31.3199 260.041 31.3199Z" fill="#637381"/>
<path d="M279.932 28.9247L279.933 28.9257L281.739 30.6925L281.818 30.7698L281.896 30.6921L283.702 28.9084L283.702 28.9078C283.734 28.8758 283.781 28.8758 283.813 28.9078C283.845 28.9398 283.845 28.9866 283.813 29.0187L283.813 29.0189L281.873 30.9288L281.873 30.9295C281.84 30.9621 281.825 30.9641 281.817 30.9641C281.797 30.9641 281.78 30.9593 281.757 30.9413L279.821 29.0356C279.79 29.0035 279.79 28.9567 279.821 28.9247C279.853 28.8927 279.9 28.8927 279.932 28.9247Z" fill="#637381" stroke="#637381" stroke-width="0.666667"/>
<path d="M13.2813 16.2858C12.9501 16.2858 12.6604 16.2281 12.412 16.1127C12.1672 15.9937 11.9621 15.8368 11.7965 15.642C11.6309 15.4436 11.5068 15.2218 11.424 14.9765C11.3412 14.7312 11.2998 14.4805 11.2998 14.2245C11.2998 13.9719 11.3412 13.7231 11.424 13.4778C11.5068 13.2325 11.6309 13.0125 11.7965 12.8177C11.9621 12.6193 12.1672 12.4624 12.412 12.347C12.6604 12.2316 12.9501 12.1739 13.2813 12.1739C13.5584 12.1739 13.7942 12.21 13.9886 12.2821C14.1865 12.3506 14.3503 12.4408 14.4799 12.5526C14.613 12.6608 14.7192 12.7781 14.7984 12.9043C14.8812 13.0269 14.9424 13.1441 14.982 13.256C15.0216 13.3642 15.0468 13.4544 15.0576 13.5265C15.072 13.595 15.0792 13.6293 15.0792 13.6293H14.2531C14.2531 13.6293 14.2459 13.6059 14.2315 13.559C14.2207 13.5085 14.1973 13.449 14.1613 13.3804C14.1253 13.3083 14.0713 13.2379 13.9994 13.1694C13.931 13.1009 13.8374 13.0432 13.7186 12.9963C13.6034 12.9458 13.4594 12.9205 13.2867 12.9205C13.0383 12.9205 12.8295 12.9854 12.6604 13.1153C12.4948 13.2415 12.3688 13.4038 12.2824 13.6022C12.1996 13.8006 12.1583 14.008 12.1583 14.2245C12.1583 14.4409 12.1996 14.6501 12.2824 14.8521C12.3688 15.0505 12.4948 15.2146 12.6604 15.3444C12.8295 15.4707 13.0383 15.5338 13.2867 15.5338C13.4594 15.5338 13.6034 15.5104 13.7186 15.4635C13.8374 15.4166 13.931 15.3589 13.9994 15.2903C14.0713 15.2182 14.1253 15.1479 14.1613 15.0793C14.1973 15.0072 14.2207 14.9477 14.2315 14.9008C14.2459 14.8539 14.2531 14.8304 14.2531 14.8304H15.0792C15.0792 14.8304 15.072 14.8665 15.0576 14.9386C15.0468 15.0072 15.0216 15.0973 14.982 15.2092C14.9424 15.3174 14.8812 15.4346 14.7984 15.5608C14.7192 15.6835 14.613 15.8007 14.4799 15.9125C14.3503 16.0207 14.1865 16.1109 13.9886 16.183C13.7942 16.2516 13.5584 16.2858 13.2813 16.2858ZM17.5319 16.2858C17.2007 16.2858 16.9091 16.2281 16.6572 16.1127C16.4052 15.9937 16.1929 15.8368 16.0201 15.642C15.8509 15.4436 15.7232 15.2218 15.6368 14.9765C15.554 14.7312 15.5126 14.4805 15.5126 14.2245C15.5126 13.9684 15.554 13.7195 15.6368 13.4778C15.7232 13.2325 15.8509 13.0125 16.0201 12.8177C16.1929 12.6229 16.4052 12.4678 16.6572 12.3524C16.9091 12.2334 17.2007 12.1739 17.5319 12.1739C17.8666 12.1739 18.1599 12.2334 18.4119 12.3524C18.6638 12.4678 18.8744 12.6229 19.0436 12.8177C19.2128 13.0125 19.3387 13.2325 19.4215 13.4778C19.5079 13.7195 19.5511 13.9684 19.5511 14.2245C19.5511 14.4805 19.5079 14.7312 19.4215 14.9765C19.3387 15.2218 19.2128 15.4436 19.0436 15.642C18.8744 15.8368 18.6638 15.9937 18.4119 16.1127C18.1599 16.2281 17.8666 16.2858 17.5319 16.2858ZM17.5319 15.5338C17.7838 15.5338 17.9962 15.4707 18.169 15.3444C18.3417 15.2182 18.4713 15.0559 18.5577 14.8575C18.6441 14.6555 18.6873 14.4445 18.6873 14.2245C18.6873 14.0044 18.6441 13.7952 18.5577 13.5968C18.4713 13.3984 18.3417 13.2361 18.169 13.1099C17.9962 12.9837 17.7838 12.9205 17.5319 12.9205C17.2799 12.9205 17.0675 12.9837 16.8948 13.1099C16.7256 13.2361 16.5978 13.3984 16.5114 13.5968C16.425 13.7952 16.3818 14.0044 16.3818 14.2245C16.3818 14.4445 16.425 14.6555 16.5114 14.8575C16.5978 15.0559 16.7256 15.2182 16.8948 15.3444C17.0675 15.4707 17.2799 15.5338 17.5319 15.5338ZM20.0809 16.2317V15.6582L20.772 15.0685C21.0599 14.8268 21.3065 14.6212 21.5117 14.4517C21.7168 14.2822 21.8734 14.1234 21.9814 13.9756C22.0894 13.8277 22.1434 13.669 22.1434 13.4994C22.1434 13.3696 22.1128 13.2614 22.0516 13.1748C21.9904 13.0846 21.9112 13.0179 21.814 12.9746C21.7204 12.9277 21.6214 12.9043 21.5171 12.9043C21.3911 12.9043 21.2849 12.9277 21.1985 12.9746C21.1157 13.0215 21.0491 13.0828 20.9988 13.1586C20.952 13.2307 20.9178 13.3065 20.8962 13.3858C20.8746 13.4652 20.8638 13.5337 20.8638 13.5914H20.0647C20.0647 13.4399 20.0935 13.283 20.1511 13.1207C20.2087 12.9548 20.2969 12.8015 20.4157 12.6608C20.5344 12.5165 20.6874 12.3993 20.8746 12.3091C21.0617 12.219 21.2849 12.1739 21.5441 12.1739C21.8068 12.1739 22.0462 12.2262 22.2621 12.3308C22.4781 12.4318 22.6509 12.5779 22.7805 12.769C22.9136 12.9602 22.9802 13.1856 22.9802 13.4453C22.9802 13.6906 22.919 13.9143 22.7967 14.1162C22.6779 14.3146 22.5105 14.5094 22.2945 14.7006C22.0786 14.8881 21.8302 15.0919 21.5495 15.312L21.3227 15.5013H23.0342V16.2317H20.0809ZM24.9646 16.2317V12.228H27.7181V12.953H25.796V13.8511H27.4697V14.5491H25.796V15.5067H27.7451V16.2317H24.9646ZM28.3746 16.2317V13.3642H29.1953V13.7537H29.2223C29.2835 13.6491 29.3753 13.5499 29.4977 13.4562C29.62 13.3588 29.7874 13.3101 29.9998 13.3101C30.2157 13.3101 30.3885 13.3606 30.5181 13.4616C30.6512 13.5626 30.7484 13.687 30.8096 13.8349H30.8204C30.8672 13.7519 30.9284 13.6708 31.004 13.5914C31.0832 13.5085 31.1804 13.4417 31.2956 13.3912C31.4143 13.3371 31.5529 13.3101 31.7113 13.3101C31.9092 13.3101 32.073 13.3552 32.2026 13.4453C32.3322 13.5355 32.4275 13.6546 32.4888 13.8024C32.5535 13.9467 32.5859 14.1018 32.5859 14.2677V16.2317H31.7653V14.4733C31.7653 14.3327 31.7293 14.2172 31.6573 14.1271C31.5889 14.0333 31.4845 13.9864 31.3441 13.9864C31.2362 13.9864 31.148 14.0134 31.0796 14.0675C31.0148 14.1217 30.9662 14.192 30.9338 14.2786C30.905 14.3615 30.8906 14.4481 30.8906 14.5383V16.2317H30.07V14.4733C30.07 14.3327 30.034 14.2172 29.962 14.1271C29.8936 14.0333 29.7892 13.9864 29.6488 13.9864C29.5408 13.9864 29.4526 14.0134 29.3843 14.0675C29.3195 14.1217 29.2709 14.192 29.2385 14.2786C29.2097 14.3615 29.1953 14.4481 29.1953 14.5383V16.2317H28.3746ZM33.7008 12.9746C33.5568 12.9746 33.4398 12.9296 33.3498 12.8394C33.2599 12.7456 33.2148 12.6356 33.2148 12.5093C33.2148 12.3759 33.2599 12.2641 33.3498 12.1739C33.4398 12.0801 33.5568 12.0332 33.7008 12.0332C33.8375 12.0332 33.9529 12.0801 34.0463 12.1739C34.1398 12.2641 34.1867 12.3759 34.1867 12.5093C34.1867 12.6356 34.1398 12.7456 34.0463 12.8394C33.9529 12.9296 33.8375 12.9746 33.7008 12.9746ZM33.2904 16.2317V13.3642H34.1111V16.2317H33.2904ZM36.0163 16.2858C35.7788 16.2858 35.5827 16.2534 35.4278 16.1885C35.2733 16.1235 35.1491 16.0442 35.0553 15.9504C34.9655 15.853 34.897 15.7574 34.8501 15.6636C34.8069 15.5663 34.7782 15.4851 34.7637 15.4202C34.7529 15.3552 34.7475 15.3228 34.7475 15.3228H35.5088C35.5088 15.3228 35.5142 15.3408 35.525 15.3769C35.5358 15.413 35.5594 15.4544 35.5952 15.5013C35.635 15.5482 35.6907 15.5897 35.7626 15.6258C35.8348 15.6618 35.932 15.6799 36.0541 15.6799C36.2053 15.6799 36.3079 15.6492 36.3619 15.5879C36.4196 15.5266 36.4483 15.4652 36.4483 15.4039C36.4483 15.2741 36.3423 15.1875 36.1297 15.1442L35.741 15.0685C35.5756 15.036 35.4191 14.9891 35.2713 14.9278C35.1275 14.8629 35.0104 14.7745 34.9203 14.6627C34.8339 14.5473 34.7907 14.3994 34.7907 14.219C34.7907 14.0459 34.8359 13.8908 34.9257 13.7537C35.0158 13.6167 35.1437 13.5085 35.309 13.4291C35.4784 13.3497 35.6799 13.3101 35.9137 13.3101C36.1334 13.3101 36.3153 13.3407 36.4591 13.4021C36.6069 13.4598 36.7236 13.5337 36.81 13.6239C36.8964 13.7105 36.9612 13.7988 37.0044 13.889C37.0476 13.9756 37.0746 14.0495 37.0854 14.1108C37.0999 14.1686 37.1069 14.1974 37.1069 14.1974H36.3727C36.3727 14.1974 36.3619 14.174 36.3403 14.1271C36.3187 14.0766 36.2738 14.0279 36.2053 13.981C36.1405 13.9305 36.04 13.9052 35.9029 13.9052C35.7626 13.9052 35.6654 13.9341 35.6114 13.9918C35.5574 14.0459 35.5304 14.1036 35.5304 14.1649C35.5304 14.2371 35.5611 14.2912 35.6222 14.3273C35.687 14.3633 35.77 14.3922 35.8706 14.4138L36.2431 14.4896C36.5168 14.5437 36.7418 14.6393 36.918 14.7763C37.0945 14.9098 37.1825 15.1046 37.1825 15.3607C37.1825 15.5338 37.1377 15.6907 37.0476 15.8314C36.9578 15.972 36.8262 16.0839 36.6534 16.1668C36.4807 16.2462 36.2684 16.2858 36.0163 16.2858ZM38.8846 16.2858C38.647 16.2858 38.451 16.2534 38.2961 16.1885C38.1416 16.1235 38.0174 16.0442 37.9236 15.9504C37.8338 15.853 37.7653 15.7574 37.7184 15.6636C37.6752 15.5663 37.6465 15.4851 37.632 15.4202C37.6212 15.3552 37.6158 15.3228 37.6158 15.3228H38.3771C38.3771 15.3228 38.3825 15.3408 38.3933 15.3769C38.4041 15.413 38.4277 15.4544 38.4635 15.5013C38.5033 15.5482 38.559 15.5897 38.6308 15.6258C38.7031 15.6618 38.8002 15.6799 38.9224 15.6799C39.0736 15.6799 39.1762 15.6492 39.2301 15.5879C39.2878 15.5266 39.3165 15.4652 39.3165 15.4039C39.3165 15.2741 39.2106 15.1875 38.998 15.1442L38.6092 15.0685C38.4439 15.036 38.2873 14.9891 38.1395 14.9278C37.9958 14.8629 37.8787 14.7745 37.7886 14.6627C37.7022 14.5473 37.659 14.3994 37.659 14.219C37.659 14.0459 37.7042 13.8908 37.794 13.7537C37.8841 13.6167 38.012 13.5085 38.1773 13.4291C38.3467 13.3497 38.5482 13.3101 38.782 13.3101C39.0017 13.3101 39.1836 13.3407 39.3273 13.4021C39.4751 13.4598 39.5919 13.5337 39.6783 13.6239C39.7647 13.7105 39.8294 13.7988 39.8726 13.889C39.9158 13.9756 39.9428 14.0495 39.9536 14.1108C39.9681 14.1686 39.9752 14.1974 39.9752 14.1974H39.2409C39.2409 14.1974 39.2301 14.174 39.2085 14.1271C39.187 14.0766 39.1421 14.0279 39.0736 13.981C39.0088 13.9305 38.9082 13.9052 38.7712 13.9052C38.6308 13.9052 38.5337 13.9341 38.4797 13.9918C38.4257 14.0459 38.3987 14.1036 38.3987 14.1649C38.3987 14.2371 38.4294 14.2912 38.4905 14.3273C38.5553 14.3633 38.6383 14.3922 38.7388 14.4138L39.1114 14.4896C39.385 14.5437 39.6101 14.6393 39.7863 14.7763C39.9627 14.9098 40.0508 15.1046 40.0508 15.3607C40.0508 15.5338 40.0059 15.6907 39.9158 15.8314C39.8261 15.972 39.6945 16.0839 39.5217 16.1668C39.3489 16.2462 39.1367 16.2858 38.8846 16.2858ZM41.0665 12.9746C40.9224 12.9746 40.8057 12.9296 40.7156 12.8394C40.6255 12.7456 40.5806 12.6356 40.5806 12.5093C40.5806 12.3759 40.6255 12.2641 40.7156 12.1739C40.8057 12.0801 40.9224 12.0332 41.0665 12.0332C41.2032 12.0332 41.3186 12.0801 41.4121 12.1739C41.5055 12.2641 41.5524 12.3759 41.5524 12.5093C41.5524 12.6356 41.5055 12.7456 41.4121 12.8394C41.3186 12.9296 41.2032 12.9746 41.0665 12.9746ZM40.6562 16.2317V13.3642H41.4768V16.2317H40.6562ZM43.6412 16.2858C43.321 16.2858 43.0493 16.2173 42.8259 16.0802C42.6029 15.9396 42.4318 15.7574 42.313 15.5338C42.198 15.3065 42.1403 15.0613 42.1403 14.798C42.1403 14.5346 42.198 14.2912 42.313 14.0675C42.4318 13.8403 42.6029 13.6581 42.8259 13.5211C43.0493 13.3804 43.321 13.3101 43.6412 13.3101C43.9618 13.3101 44.2334 13.3804 44.4565 13.5211C44.6799 13.6581 44.8489 13.8403 44.964 14.0675C45.0828 14.2912 45.1422 14.5346 45.1422 14.798C45.1422 15.0613 45.0828 15.3065 44.964 15.5338C44.8489 15.7574 44.6799 15.9396 44.4565 16.0802C44.2334 16.2173 43.9618 16.2858 43.6412 16.2858ZM43.6412 15.6149C43.7853 15.6149 43.9058 15.5771 44.003 15.5013C44.1039 15.4256 44.1811 15.3264 44.2351 15.2037C44.2891 15.0775 44.3161 14.9423 44.3161 14.798C44.3161 14.6501 44.2891 14.5148 44.2351 14.3922C44.1811 14.2695 44.1039 14.1703 44.003 14.0946C43.9058 14.0189 43.7853 13.981 43.6412 13.981C43.4975 13.981 43.375 14.0189 43.2741 14.0946C43.1735 14.1703 43.0959 14.2695 43.0419 14.3922C42.9916 14.5148 42.9663 14.6501 42.9663 14.798C42.9663 14.9423 42.9916 15.0775 43.0419 15.2037C43.0959 15.3264 43.1735 15.4256 43.2741 15.5013C43.375 15.5771 43.4975 15.6149 43.6412 15.6149ZM45.7003 16.2317V13.3642H46.521V13.7754H46.548C46.5803 13.7177 46.6273 13.6527 46.6883 13.5806C46.7531 13.5085 46.8378 13.4453 46.9421 13.3912C47.0501 13.3371 47.1867 13.3101 47.3524 13.3101C47.5755 13.3101 47.7574 13.3624 47.8977 13.467C48.0381 13.568 48.1407 13.6996 48.2055 13.8619C48.2703 14.0206 48.3027 14.1884 48.3027 14.3651V16.2317H47.482V14.5058C47.482 14.3687 47.4442 14.2479 47.3686 14.1433C47.2967 14.0387 47.1797 13.9864 47.0177 13.9864C46.8952 13.9864 46.798 14.0152 46.7261 14.073C46.6542 14.1307 46.6019 14.2046 46.5696 14.2948C46.5372 14.385 46.521 14.4805 46.521 14.5815V16.2317H45.7003ZM52.0935 16.2858C51.7625 16.2858 51.4709 16.2281 51.2189 16.1127C50.9668 15.9937 50.7545 15.8368 50.5818 15.642C50.4127 15.4436 50.2848 15.2218 50.1984 14.9765C50.1158 14.7312 50.0742 14.4805 50.0742 14.2245C50.0742 13.9684 50.1158 13.7195 50.1984 13.4778C50.2848 13.2325 50.4127 13.0125 50.5818 12.8177C50.7545 12.6229 50.9668 12.4678 51.2189 12.3524C51.4709 12.2334 51.7625 12.1739 52.0935 12.1739C52.4283 12.1739 52.7215 12.2334 52.9736 12.3524C53.2256 12.4678 53.4362 12.6229 53.6053 12.8177C53.7743 13.0125 53.9005 13.2325 53.9832 13.4778C54.0696 13.7195 54.1128 13.9684 54.1128 14.2245C54.1128 14.4805 54.0696 14.7312 53.9832 14.9765C53.9005 15.2218 53.7743 15.4436 53.6053 15.642C53.4362 15.8368 53.2256 15.9937 52.9736 16.1127C52.7215 16.2281 52.4283 16.2858 52.0935 16.2858ZM52.0935 15.5338C52.3456 15.5338 52.5578 15.4707 52.7306 15.3444C52.9034 15.2182 53.033 15.0559 53.1193 14.8575C53.2057 14.6555 53.2489 14.4445 53.2489 14.2245C53.2489 14.0044 53.2057 13.7952 53.1193 13.5968C53.033 13.3984 52.9034 13.2361 52.7306 13.1099C52.5578 12.9837 52.3456 12.9205 52.0935 12.9205C51.8414 12.9205 51.6292 12.9837 51.4564 13.1099C51.2874 13.2361 51.1595 13.3984 51.0731 13.5968C50.9867 13.7952 50.9435 14.0044 50.9435 14.2245C50.9435 14.4445 50.9867 14.6555 51.0731 14.8575C51.1595 15.0559 51.2874 15.2182 51.4564 15.3444C51.6292 15.4707 51.8414 15.5338 52.0935 15.5338ZM55.501 16.2317L54.4536 13.3642H55.2743L55.9437 15.3065L56.5862 13.3642H57.4123L56.3595 16.2317H55.501ZM59.1312 16.2858C58.8792 16.2858 58.6615 16.2444 58.478 16.1614C58.2944 16.0748 58.1432 15.9612 58.0244 15.8205C57.9056 15.6763 57.8155 15.5158 57.7545 15.339C57.6968 15.1623 57.6681 14.9801 57.6681 14.7926C57.6681 14.6122 57.6951 14.4355 57.7491 14.2623C57.8068 14.0856 57.8932 13.9251 58.0082 13.7808C58.127 13.6365 58.2765 13.5229 58.4564 13.4399C58.6399 13.3534 58.8559 13.3101 59.1042 13.3101C59.3671 13.3101 59.5993 13.3678 59.8007 13.4832C60.0059 13.5986 60.1662 13.77 60.2813 13.9972C60.3963 14.2208 60.454 14.4932 60.454 14.8142V15.0144H58.4941C58.5049 15.1875 58.5643 15.3372 58.6723 15.4635C58.784 15.5897 58.9369 15.6528 59.1312 15.6528C59.2429 15.6528 59.3327 15.6366 59.4012 15.6041C59.4731 15.568 59.5291 15.5284 59.5686 15.4851C59.6081 15.4382 59.635 15.3967 59.6496 15.3607C59.6641 15.3246 59.6712 15.3065 59.6712 15.3065H60.427C60.427 15.3065 60.4179 15.3408 60.4 15.4093C60.3855 15.4743 60.3531 15.5554 60.3028 15.6528C60.2526 15.7502 60.1787 15.8476 60.0815 15.945C59.988 16.0424 59.8638 16.1235 59.709 16.1885C59.5541 16.2534 59.3617 16.2858 59.1312 16.2858ZM58.4941 14.5166H59.6658C59.655 14.3182 59.5956 14.1703 59.4876 14.073C59.3796 13.9756 59.2463 13.9269 59.088 13.9269C58.9298 13.9269 58.7948 13.9792 58.6831 14.0838C58.5714 14.1848 58.5087 14.329 58.4941 14.5166ZM61.0435 16.2317V13.3642H61.8588V13.7808H61.8858C61.9182 13.705 61.9631 13.6311 62.0208 13.559C62.0781 13.4868 62.1574 13.4273 62.2583 13.3804C62.3589 13.3335 62.4885 13.3101 62.6471 13.3101C62.726 13.3101 62.7891 13.3155 62.836 13.3263C62.8826 13.3335 62.9062 13.3371 62.9062 13.3371V14.1487C62.9062 14.1487 62.8792 14.1433 62.8252 14.1325C62.7746 14.1217 62.7081 14.1162 62.6255 14.1162C62.3697 14.1162 62.179 14.1866 62.0532 14.3273C61.927 14.4643 61.8642 14.6898 61.8642 15.0036V16.2317H61.0435ZM64.2482 16.2317L63.2008 13.3642H64.0215L64.691 15.3065L65.3335 13.3642H66.1595L65.1067 16.2317H64.2482ZM67.0814 12.9746C66.9373 12.9746 66.8202 12.9296 66.7305 12.8394C66.6404 12.7456 66.5955 12.6356 66.5955 12.5093C66.5955 12.3759 66.6404 12.2641 66.7305 12.1739C66.8202 12.0801 66.9373 12.0332 67.0814 12.0332C67.2181 12.0332 67.3332 12.0801 67.427 12.1739C67.5204 12.2641 67.5673 12.3759 67.5673 12.5093C67.5673 12.6356 67.5204 12.7456 67.427 12.8394C67.3332 12.9296 67.2181 12.9746 67.0814 12.9746ZM66.6711 16.2317V13.3642H67.4918V16.2317H66.6711ZM69.6183 16.2858C69.3666 16.2858 69.1486 16.2444 68.965 16.1614C68.7815 16.0748 68.6303 15.9612 68.5115 15.8205C68.3927 15.6763 68.303 15.5158 68.2416 15.339C68.1842 15.1623 68.1552 14.9801 68.1552 14.7926C68.1552 14.6122 68.1822 14.4355 68.2362 14.2623C68.2939 14.0856 68.3802 13.9251 68.4953 13.7808C68.6141 13.6365 68.7636 13.5229 68.9434 13.4399C69.127 13.3534 69.343 13.3101 69.5913 13.3101C69.8542 13.3101 70.0864 13.3678 70.2878 13.4832C70.493 13.5986 70.6533 13.77 70.7683 13.9972C70.8837 14.2208 70.9411 14.4932 70.9411 14.8142V15.0144H68.9812C68.992 15.1875 69.0514 15.3372 69.1594 15.4635C69.2711 15.5897 69.424 15.6528 69.6183 15.6528C69.73 15.6528 69.8201 15.6366 69.8883 15.6041C69.9605 15.568 70.0162 15.5284 70.0557 15.4851C70.0955 15.4382 70.1225 15.3967 70.1366 15.3607C70.1511 15.3246 70.1582 15.3065 70.1582 15.3065H70.9141C70.9141 15.3065 70.9053 15.3408 70.8871 15.4093C70.8729 15.4743 70.8405 15.5554 70.7899 15.6528C70.7397 15.7502 70.6658 15.8476 70.5686 15.945C70.4751 16.0424 70.3509 16.1235 70.196 16.1885C70.0415 16.2534 69.8488 16.2858 69.6183 16.2858ZM68.9812 14.5166H70.1528C70.142 14.3182 70.0826 14.1703 69.9747 14.073C69.8667 13.9756 69.7337 13.9269 69.5751 13.9269C69.4169 13.9269 69.2819 13.9792 69.1702 14.0838C69.0588 14.1848 68.9957 14.329 68.9812 14.5166ZM72.0847 16.2317L71.1993 13.3642H72.0199L72.5328 15.2254L73.0889 13.3642H73.834L74.3901 15.2254L74.903 13.3642H75.7237L74.8382 16.2317H73.969L73.4615 14.5545L72.954 16.2317H72.0847Z" fill="#082639"/>
</g>
<defs>
<clipPath id="clip0_11255_2174">
<rect width="301" height="187" fill="white"/>
</clipPath>
</defs>
</svg>
