<svg width="274" height="168" viewBox="0 0 274 168" fill="none" xmlns="http://www.w3.org/2000/svg">
<path d="M0 32C0 14.3269 14.3269 0 32 0H242C259.673 0 274 14.3269 274 32V136C274 153.673 259.673 168 242 168H32C14.3269 168 0 153.673 0 136V32Z" fill="#F8B490"/>
<path d="M34.758 42V29.88H30.218V27.2H42.378V29.88H37.838V42H34.758ZM47.6977 42.2C46.511 42.2 45.5043 41.9467 44.6777 41.44C43.851 40.92 43.2177 40.2467 42.7777 39.42C42.351 38.58 42.1377 37.6733 42.1377 36.7C42.1377 35.7267 42.351 34.8267 42.7777 34C43.2177 33.16 43.851 32.4867 44.6777 31.98C45.5043 31.46 46.511 31.2 47.6977 31.2C48.8843 31.2 49.891 31.46 50.7177 31.98C51.5443 32.4867 52.171 33.16 52.5977 34C53.0377 34.8267 53.2577 35.7267 53.2577 36.7C53.2577 37.6733 53.0377 38.58 52.5977 39.42C52.171 40.2467 51.5443 40.92 50.7177 41.44C49.891 41.9467 48.8843 42.2 47.6977 42.2ZM47.6977 39.72C48.231 39.72 48.6777 39.58 49.0377 39.3C49.411 39.02 49.6977 38.6533 49.8977 38.2C50.0977 37.7333 50.1977 37.2333 50.1977 36.7C50.1977 36.1533 50.0977 35.6533 49.8977 35.2C49.6977 34.7467 49.411 34.38 49.0377 34.1C48.6777 33.82 48.231 33.68 47.6977 33.68C47.1643 33.68 46.711 33.82 46.3377 34.1C45.9643 34.38 45.6777 34.7467 45.4777 35.2C45.291 35.6533 45.1977 36.1533 45.1977 36.7C45.1977 37.2333 45.291 37.7333 45.4777 38.2C45.6777 38.6533 45.9643 39.02 46.3377 39.3C46.711 39.58 47.1643 39.72 47.6977 39.72ZM60.1864 42.2C59.3598 42.2 58.6998 42.08 58.2064 41.84C57.7131 41.5867 57.3398 41.2733 57.0864 40.9C56.8331 40.5133 56.6664 40.1067 56.5864 39.68C56.5064 39.2533 56.4664 38.86 56.4664 38.5V33.82H54.6664V31.4H56.4664V28.78H59.5064V31.4H61.7664V33.82H59.5064V38.42C59.5064 38.86 59.6198 39.2 59.8464 39.44C60.0864 39.68 60.4798 39.8 61.0264 39.8C61.2664 39.8 61.4864 39.78 61.6864 39.74C61.8864 39.7 61.9864 39.68 61.9864 39.68V42.02C61.9864 42.02 61.8064 42.0467 61.4464 42.1C61.0864 42.1667 60.6664 42.2 60.1864 42.2ZM68.3797 31.2C69.0597 31.2 69.6197 31.3133 70.0597 31.54C70.4997 31.7533 70.833 31.9867 71.0597 32.24C71.2997 32.4933 71.4464 32.6667 71.4997 32.76H71.6597V31.4H74.6997V42H71.6597V40.64H71.4997C71.4464 40.7333 71.2997 40.9067 71.0597 41.16C70.833 41.4133 70.4997 41.6533 70.0597 41.88C69.6197 42.0933 69.0597 42.2 68.3797 42.2C67.593 42.2 66.9064 42.0467 66.3197 41.74C65.7464 41.42 65.2664 41 64.8797 40.48C64.493 39.9467 64.1997 39.3533 63.9997 38.7C63.813 38.0467 63.7197 37.38 63.7197 36.7C63.7197 36.02 63.813 35.3533 63.9997 34.7C64.1997 34.0467 64.493 33.46 64.8797 32.94C65.2664 32.4067 65.7464 31.9867 66.3197 31.68C66.9064 31.36 67.593 31.2 68.3797 31.2ZM69.2597 33.66C68.713 33.66 68.253 33.8133 67.8797 34.12C67.5197 34.4133 67.2464 34.7933 67.0597 35.26C66.8864 35.7267 66.7997 36.2067 66.7997 36.7C66.7997 37.1933 66.8864 37.6733 67.0597 38.14C67.2464 38.6067 67.5197 38.9933 67.8797 39.3C68.253 39.5933 68.713 39.74 69.2597 39.74C69.8064 39.74 70.2597 39.5933 70.6197 39.3C70.993 38.9933 71.2664 38.6067 71.4397 38.14C71.6264 37.6733 71.7197 37.1933 71.7197 36.7C71.7197 36.2067 71.6264 35.7267 71.4397 35.26C71.2664 34.7933 70.993 34.4133 70.6197 34.12C70.2597 33.8133 69.8064 33.66 69.2597 33.66ZM77.2824 42V26.8H80.3224V42H77.2824ZM87.6535 42V27.2H93.7535C94.9668 27.2 95.9735 27.44 96.7735 27.92C97.5868 28.4 98.1935 29.02 98.5935 29.78C99.0068 30.5267 99.2135 31.3067 99.2135 32.12C99.2135 32.96 99.0068 33.76 98.5935 34.52C98.1935 35.2667 97.5868 35.88 96.7735 36.36C95.9735 36.84 94.9668 37.08 93.7535 37.08H90.7335V42H87.6535ZM93.7535 29.9H90.7335V34.4H93.7535C94.2735 34.4 94.7068 34.2933 95.0535 34.08C95.4001 33.8533 95.6601 33.5733 95.8335 33.24C96.0201 32.8933 96.1135 32.5267 96.1135 32.14C96.1135 31.7667 96.0201 31.4067 95.8335 31.06C95.6601 30.7133 95.4001 30.4333 95.0535 30.22C94.7068 30.0067 94.2735 29.9 93.7535 29.9ZM105.92 42.2C104.734 42.2 103.727 41.9467 102.9 41.44C102.074 40.92 101.44 40.2467 101 39.42C100.574 38.58 100.36 37.6733 100.36 36.7C100.36 35.7267 100.574 34.8267 101 34C101.44 33.16 102.074 32.4867 102.9 31.98C103.727 31.46 104.734 31.2 105.92 31.2C107.107 31.2 108.114 31.46 108.94 31.98C109.767 32.4867 110.394 33.16 110.82 34C111.26 34.8267 111.48 35.7267 111.48 36.7C111.48 37.6733 111.26 38.58 110.82 39.42C110.394 40.2467 109.767 40.92 108.94 41.44C108.114 41.9467 107.107 42.2 105.92 42.2ZM105.92 39.72C106.454 39.72 106.9 39.58 107.26 39.3C107.634 39.02 107.92 38.6533 108.12 38.2C108.32 37.7333 108.42 37.2333 108.42 36.7C108.42 36.1533 108.32 35.6533 108.12 35.2C107.92 34.7467 107.634 34.38 107.26 34.1C106.9 33.82 106.454 33.68 105.92 33.68C105.387 33.68 104.934 33.82 104.56 34.1C104.187 34.38 103.9 34.7467 103.7 35.2C103.514 35.6533 103.42 36.1533 103.42 36.7C103.42 37.2333 103.514 37.7333 103.7 38.2C103.9 38.6533 104.187 39.02 104.56 39.3C104.934 39.58 105.387 39.72 105.92 39.72ZM115.717 42L112.437 31.4H115.477L117.377 38.28L119.437 31.4H122.197L124.257 38.28L126.157 31.4H129.197L125.917 42H122.697L120.817 35.8L118.937 42H115.717ZM135.565 42.2C134.632 42.2 133.825 42.0467 133.145 41.74C132.465 41.42 131.905 41 131.465 40.48C131.025 39.9467 130.692 39.3533 130.465 38.7C130.252 38.0467 130.145 37.3733 130.145 36.68C130.145 36.0133 130.245 35.36 130.445 34.72C130.659 34.0667 130.979 33.4733 131.405 32.94C131.845 32.4067 132.399 31.9867 133.065 31.68C133.745 31.36 134.545 31.2 135.465 31.2C136.439 31.2 137.299 31.4133 138.045 31.84C138.805 32.2667 139.399 32.9 139.825 33.74C140.252 34.5667 140.465 35.5733 140.465 36.76V37.5H133.205C133.245 38.14 133.465 38.6933 133.865 39.16C134.279 39.6267 134.845 39.86 135.565 39.86C135.979 39.86 136.312 39.8 136.565 39.68C136.832 39.5467 137.039 39.4 137.185 39.24C137.332 39.0667 137.432 38.9133 137.485 38.78C137.539 38.6467 137.565 38.58 137.565 38.58H140.365C140.365 38.58 140.332 38.7067 140.265 38.96C140.212 39.2 140.092 39.5 139.905 39.86C139.719 40.22 139.445 40.58 139.085 40.94C138.739 41.3 138.279 41.6 137.705 41.84C137.132 42.08 136.419 42.2 135.565 42.2ZM133.205 35.66H137.545C137.505 34.9267 137.285 34.38 136.885 34.02C136.485 33.66 135.992 33.48 135.405 33.48C134.819 33.48 134.319 33.6733 133.905 34.06C133.492 34.4333 133.259 34.9667 133.205 35.66ZM142.649 42V31.4H145.669V32.94H145.769C145.889 32.66 146.055 32.3867 146.269 32.12C146.482 31.8533 146.775 31.6333 147.149 31.46C147.522 31.2867 148.002 31.2 148.589 31.2C148.882 31.2 149.115 31.22 149.289 31.26C149.462 31.2867 149.549 31.3 149.549 31.3V34.3C149.549 34.3 149.449 34.28 149.249 34.24C149.062 34.2 148.815 34.18 148.509 34.18C147.562 34.18 146.855 34.44 146.389 34.96C145.922 35.4667 145.689 36.3 145.689 37.46V42H142.649ZM37.578 66.2C36.3513 66.2 35.278 65.9867 34.358 65.56C33.4513 65.12 32.6913 64.54 32.078 63.82C31.4647 63.0867 31.0047 62.2667 30.698 61.36C30.3913 60.4533 30.238 59.5267 30.238 58.58C30.238 57.6467 30.3913 56.7267 30.698 55.82C31.0047 54.9133 31.4647 54.1 32.078 53.38C32.6913 52.6467 33.4513 52.0667 34.358 51.64C35.278 51.2133 36.3513 51 37.578 51C38.6047 51 39.478 51.1333 40.198 51.4C40.9313 51.6533 41.538 51.9867 42.018 52.4C42.5113 52.8 42.9047 53.2333 43.198 53.7C43.5047 54.1533 43.7313 54.5867 43.878 55C44.0247 55.4 44.118 55.7333 44.158 56C44.2113 56.2533 44.238 56.38 44.238 56.38H41.178C41.178 56.38 41.1513 56.2933 41.098 56.12C41.058 55.9333 40.9713 55.7133 40.838 55.46C40.7047 55.1933 40.5047 54.9333 40.238 54.68C39.9847 54.4267 39.638 54.2133 39.198 54.04C38.7713 53.8533 38.238 53.76 37.598 53.76C36.678 53.76 35.9047 54 35.278 54.48C34.6647 54.9467 34.198 55.5467 33.878 56.28C33.5713 57.0133 33.418 57.78 33.418 58.58C33.418 59.38 33.5713 60.1533 33.878 60.9C34.198 61.6333 34.6647 62.24 35.278 62.72C35.9047 63.1867 36.678 63.42 37.598 63.42C38.238 63.42 38.7713 63.3333 39.198 63.16C39.638 62.9867 39.9847 62.7733 40.238 62.52C40.5047 62.2533 40.7047 61.9933 40.838 61.74C40.9713 61.4733 41.058 61.2533 41.098 61.08C41.1513 60.9067 41.178 60.82 41.178 60.82H44.238C44.238 60.82 44.2113 60.9533 44.158 61.22C44.118 61.4733 44.0247 61.8067 43.878 62.22C43.7313 62.62 43.5047 63.0533 43.198 63.52C42.9047 63.9733 42.5113 64.4067 42.018 64.82C41.538 65.22 40.9313 65.5533 40.198 65.82C39.478 66.0733 38.6047 66.2 37.578 66.2ZM51.6235 66.2C50.4368 66.2 49.4301 65.9467 48.6035 65.44C47.7768 64.92 47.1435 64.2467 46.7035 63.42C46.2768 62.58 46.0635 61.6733 46.0635 60.7C46.0635 59.7267 46.2768 58.8267 46.7035 58C47.1435 57.16 47.7768 56.4867 48.6035 55.98C49.4301 55.46 50.4368 55.2 51.6235 55.2C52.8101 55.2 53.8168 55.46 54.6435 55.98C55.4701 56.4867 56.0968 57.16 56.5235 58C56.9635 58.8267 57.1835 59.7267 57.1835 60.7C57.1835 61.6733 56.9635 62.58 56.5235 63.42C56.0968 64.2467 55.4701 64.92 54.6435 65.44C53.8168 65.9467 52.8101 66.2 51.6235 66.2ZM51.6235 63.72C52.1568 63.72 52.6035 63.58 52.9635 63.3C53.3368 63.02 53.6235 62.6533 53.8235 62.2C54.0235 61.7333 54.1235 61.2333 54.1235 60.7C54.1235 60.1533 54.0235 59.6533 53.8235 59.2C53.6235 58.7467 53.3368 58.38 52.9635 58.1C52.6035 57.82 52.1568 57.68 51.6235 57.68C51.0901 57.68 50.6368 57.82 50.2635 58.1C49.8901 58.38 49.6035 58.7467 49.4035 59.2C49.2168 59.6533 49.1235 60.1533 49.1235 60.7C49.1235 61.2333 49.2168 61.7333 49.4035 62.2C49.6035 62.6533 49.8901 63.02 50.2635 63.3C50.6368 63.58 51.0901 63.72 51.6235 63.72ZM59.2503 66V55.4H62.2903V56.92H62.3903C62.5103 56.7067 62.6837 56.4667 62.9103 56.2C63.1503 55.9333 63.4637 55.7 63.8503 55.5C64.2503 55.3 64.757 55.2 65.3703 55.2C66.197 55.2 66.8703 55.3933 67.3903 55.78C67.9103 56.1533 68.2903 56.64 68.5303 57.24C68.7703 57.8267 68.8903 58.4467 68.8903 59.1V66H65.8503V59.62C65.8503 59.1133 65.7103 58.6667 65.4303 58.28C65.1637 57.8933 64.7303 57.7 64.1303 57.7C63.677 57.7 63.317 57.8067 63.0503 58.02C62.7837 58.2333 62.5903 58.5067 62.4703 58.84C62.3503 59.1733 62.2903 59.5267 62.2903 59.9V66H59.2503ZM75.6635 66.2C74.7835 66.2 74.0568 66.08 73.4835 65.84C72.9101 65.6 72.4501 65.3067 72.1035 64.96C71.7701 64.6 71.5168 64.2467 71.3435 63.9C71.1835 63.54 71.0768 63.24 71.0235 63C70.9835 62.76 70.9635 62.64 70.9635 62.64H73.7835C73.7835 62.64 73.8035 62.7067 73.8435 62.84C73.8835 62.9733 73.9701 63.1267 74.1035 63.3C74.2501 63.4733 74.4568 63.6267 74.7235 63.76C74.9901 63.8933 75.3501 63.96 75.8035 63.96C76.3635 63.96 76.7435 63.8467 76.9435 63.62C77.1568 63.3933 77.2635 63.1667 77.2635 62.94C77.2635 62.46 76.8701 62.14 76.0835 61.98L74.6435 61.7C74.0301 61.58 73.4501 61.4067 72.9035 61.18C72.3701 60.94 71.9368 60.6133 71.6035 60.2C71.2835 59.7733 71.1235 59.2267 71.1235 58.56C71.1235 57.92 71.2901 57.3467 71.6235 56.84C71.9568 56.3333 72.4301 55.9333 73.0435 55.64C73.6701 55.3467 74.4168 55.2 75.2835 55.2C76.0968 55.2 76.7701 55.3133 77.3035 55.54C77.8501 55.7533 78.2835 56.0267 78.6035 56.36C78.9235 56.68 79.1635 57.0067 79.3235 57.34C79.4835 57.66 79.5835 57.9333 79.6235 58.16C79.6768 58.3733 79.7035 58.48 79.7035 58.48H76.9835C76.9835 58.48 76.9435 58.3933 76.8635 58.22C76.7835 58.0333 76.6168 57.8533 76.3635 57.68C76.1235 57.4933 75.7501 57.4 75.2435 57.4C74.7235 57.4 74.3635 57.5067 74.1635 57.72C73.9635 57.92 73.8635 58.1333 73.8635 58.36C73.8635 58.6267 73.9768 58.8267 74.2035 58.96C74.4435 59.0933 74.7501 59.2 75.1235 59.28L76.5035 59.56C77.5168 59.76 78.3501 60.1133 79.0035 60.62C79.6568 61.1133 79.9835 61.8333 79.9835 62.78C79.9835 63.42 79.8168 64 79.4835 64.52C79.1501 65.04 78.6635 65.4533 78.0235 65.76C77.3835 66.0533 76.5968 66.2 75.6635 66.2ZM85.2456 66.2C84.499 66.2 83.879 66.04 83.3856 65.72C82.9056 65.4 82.5456 64.9733 82.3056 64.44C82.0656 63.8933 81.9456 63.28 81.9456 62.6V55.4H84.9656V62C84.9656 62.5067 85.099 62.92 85.3656 63.24C85.6323 63.5467 86.0256 63.7 86.5456 63.7C86.9856 63.7 87.3323 63.5933 87.5856 63.38C87.8523 63.1667 88.0456 62.8933 88.1656 62.56C88.2856 62.2267 88.3456 61.8733 88.3456 61.5V55.4H91.3856V66H88.3456V64.5H88.2256C87.999 64.9133 87.6456 65.3 87.1656 65.66C86.699 66.02 86.059 66.2 85.2456 66.2ZM93.7035 66V55.4H96.7435V56.84H96.8435C97.0701 56.4533 97.4101 56.0867 97.8635 55.74C98.3168 55.38 98.9368 55.2 99.7235 55.2C100.523 55.2 101.163 55.3867 101.643 55.76C102.137 56.1333 102.497 56.5933 102.723 57.14H102.763C102.937 56.8333 103.163 56.5333 103.443 56.24C103.737 55.9333 104.097 55.6867 104.523 55.5C104.963 55.3 105.477 55.2 106.063 55.2C106.797 55.2 107.403 55.3667 107.883 55.7C108.363 56.0333 108.717 56.4733 108.943 57.02C109.183 57.5533 109.303 58.1267 109.303 58.74V66H106.263V59.5C106.263 58.98 106.13 58.5533 105.863 58.22C105.61 57.8733 105.223 57.7 104.703 57.7C104.303 57.7 103.977 57.8 103.723 58C103.483 58.2 103.303 58.46 103.183 58.78C103.077 59.0867 103.023 59.4067 103.023 59.74V66H99.9835V59.5C99.9835 58.98 99.8501 58.5533 99.5835 58.22C99.3301 57.8733 98.9435 57.7 98.4235 57.7C98.0235 57.7 97.6968 57.8 97.4435 58C97.2035 58.2 97.0235 58.46 96.9035 58.78C96.7968 59.0867 96.7435 59.4067 96.7435 59.74V66H93.7035ZM111.833 69.9V55.4H114.873V56.76H115.013C115.08 56.6667 115.226 56.4933 115.453 56.24C115.693 55.9867 116.033 55.7533 116.473 55.54C116.913 55.3133 117.473 55.2 118.153 55.2C118.94 55.2 119.62 55.36 120.193 55.68C120.78 55.9867 121.266 56.4067 121.653 56.94C122.04 57.46 122.326 58.0467 122.513 58.7C122.713 59.3533 122.813 60.02 122.813 60.7C122.813 61.38 122.713 62.0467 122.513 62.7C122.326 63.3533 122.04 63.9467 121.653 64.48C121.266 65 120.78 65.42 120.193 65.74C119.62 66.0467 118.94 66.2 118.153 66.2C117.473 66.2 116.913 66.0933 116.473 65.88C116.033 65.6533 115.693 65.4133 115.453 65.16C115.226 64.9067 115.08 64.7333 115.013 64.64H114.873V69.9H111.833ZM114.813 60.7C114.813 61.1933 114.9 61.6733 115.073 62.14C115.26 62.6067 115.533 62.9933 115.893 63.3C116.266 63.5933 116.726 63.74 117.273 63.74C117.82 63.74 118.273 63.5933 118.633 63.3C119.006 62.9933 119.28 62.6067 119.453 62.14C119.64 61.6733 119.733 61.1933 119.733 60.7C119.733 60.2067 119.64 59.7267 119.453 59.26C119.28 58.7933 119.006 58.4133 118.633 58.12C118.273 57.8133 117.82 57.66 117.273 57.66C116.726 57.66 116.266 57.8133 115.893 58.12C115.533 58.4133 115.26 58.7933 115.073 59.26C114.9 59.7267 114.813 60.2067 114.813 60.7ZM129.737 66.2C128.911 66.2 128.251 66.08 127.757 65.84C127.264 65.5867 126.891 65.2733 126.637 64.9C126.384 64.5133 126.217 64.1067 126.137 63.68C126.057 63.2533 126.017 62.86 126.017 62.5V57.82H124.217V55.4H126.017V52.78H129.057V55.4H131.317V57.82H129.057V62.42C129.057 62.86 129.171 63.2 129.397 63.44C129.637 63.68 130.031 63.8 130.577 63.8C130.817 63.8 131.037 63.78 131.237 63.74C131.437 63.7 131.537 63.68 131.537 63.68V66.02C131.537 66.02 131.357 66.0467 130.997 66.1C130.637 66.1667 130.217 66.2 129.737 66.2ZM135.367 53.96C134.833 53.96 134.4 53.7933 134.067 53.46C133.733 53.1133 133.567 52.7067 133.567 52.24C133.567 51.7467 133.733 51.3333 134.067 51C134.4 50.6533 134.833 50.48 135.367 50.48C135.873 50.48 136.3 50.6533 136.647 51C136.993 51.3333 137.167 51.7467 137.167 52.24C137.167 52.7067 136.993 53.1133 136.647 53.46C136.3 53.7933 135.873 53.96 135.367 53.96ZM133.847 66V55.4H136.887V66H133.847ZM144.905 66.2C143.718 66.2 142.711 65.9467 141.885 65.44C141.058 64.92 140.425 64.2467 139.985 63.42C139.558 62.58 139.345 61.6733 139.345 60.7C139.345 59.7267 139.558 58.8267 139.985 58C140.425 57.16 141.058 56.4867 141.885 55.98C142.711 55.46 143.718 55.2 144.905 55.2C146.091 55.2 147.098 55.46 147.925 55.98C148.751 56.4867 149.378 57.16 149.805 58C150.245 58.8267 150.465 59.7267 150.465 60.7C150.465 61.6733 150.245 62.58 149.805 63.42C149.378 64.2467 148.751 64.92 147.925 65.44C147.098 65.9467 146.091 66.2 144.905 66.2ZM144.905 63.72C145.438 63.72 145.885 63.58 146.245 63.3C146.618 63.02 146.905 62.6533 147.105 62.2C147.305 61.7333 147.405 61.2333 147.405 60.7C147.405 60.1533 147.305 59.6533 147.105 59.2C146.905 58.7467 146.618 58.38 146.245 58.1C145.885 57.82 145.438 57.68 144.905 57.68C144.371 57.68 143.918 57.82 143.545 58.1C143.171 58.38 142.885 58.7467 142.685 59.2C142.498 59.6533 142.405 60.1533 142.405 60.7C142.405 61.2333 142.498 61.7333 142.685 62.2C142.885 62.6533 143.171 63.02 143.545 63.3C143.918 63.58 144.371 63.72 144.905 63.72ZM152.532 66V55.4H155.572V56.92H155.672C155.792 56.7067 155.965 56.4667 156.192 56.2C156.432 55.9333 156.745 55.7 157.132 55.5C157.532 55.3 158.038 55.2 158.652 55.2C159.478 55.2 160.152 55.3933 160.672 55.78C161.192 56.1533 161.572 56.64 161.812 57.24C162.052 57.8267 162.172 58.4467 162.172 59.1V66H159.132V59.62C159.132 59.1133 158.992 58.6667 158.712 58.28C158.445 57.8933 158.012 57.7 157.412 57.7C156.958 57.7 156.598 57.8067 156.332 58.02C156.065 58.2333 155.872 58.5067 155.752 58.84C155.632 59.1733 155.572 59.5267 155.572 59.9V66H152.532Z" fill="white"/>
<path d="M30.536 134V130.136L39.608 121.736C42.1467 119.384 44.368 117.331 46.272 115.576C48.2133 113.784 49.7253 112.048 50.808 110.368C51.8907 108.688 52.432 106.84 52.432 104.824C52.432 103.144 52.0213 101.725 51.2 100.568C50.416 99.4107 49.3893 98.5333 48.12 97.936C46.888 97.3013 45.6 96.984 44.256 96.984C42.5013 96.984 41.064 97.2827 39.944 97.88C38.824 98.4773 37.9653 99.224 37.368 100.12C36.7707 100.979 36.3413 101.856 36.08 102.752C35.8187 103.611 35.6693 104.339 35.632 104.936C35.5947 105.533 35.576 105.832 35.576 105.832H30.312C30.312 105.832 30.3307 105.496 30.368 104.824C30.4053 104.152 30.536 103.293 30.76 102.248C31.0213 101.203 31.432 100.101 31.992 98.944C32.552 97.7493 33.336 96.6293 34.344 95.584C35.3893 94.5387 36.7147 93.68 38.32 93.008C39.9627 92.336 41.96 92 44.312 92C46.7013 92 48.9227 92.504 50.976 93.512C53.0667 94.4827 54.7467 95.92 56.016 97.824C57.2853 99.6907 57.92 101.987 57.92 104.712C57.92 107.213 57.2853 109.491 56.016 111.544C54.784 113.56 53.1413 115.539 51.088 117.48C49.0347 119.421 46.7947 121.512 44.368 123.752L38.656 129.016H58.816V134H30.536ZM80.6766 134.56C78.2499 134.56 75.9352 134.093 73.7326 133.16C71.5672 132.227 69.7939 130.808 68.4126 128.904C67.0686 126.963 66.3966 124.517 66.3966 121.568H71.6046C71.6046 123.472 72.0339 125.04 72.8926 126.272C73.7886 127.504 74.9272 128.419 76.3086 129.016C77.7272 129.613 79.1832 129.912 80.6766 129.912C82.2819 129.912 83.7566 129.613 85.1006 129.016C86.4446 128.381 87.5272 127.467 88.3486 126.272C89.1699 125.077 89.5806 123.64 89.5806 121.96C89.5806 119.757 88.8526 118.021 87.3966 116.752C85.9406 115.445 83.9992 114.792 81.5726 114.792H75.9726V110.48H81.5726C83.5886 110.48 85.3059 109.883 86.7246 108.688C88.1806 107.493 88.9086 105.869 88.9086 103.816C88.9086 102.323 88.5166 101.053 87.7326 100.008C86.9859 98.9253 85.9779 98.0853 84.7086 97.488C83.4766 96.8907 82.1326 96.592 80.6766 96.592C79.2952 96.592 77.9512 96.9093 76.6446 97.544C75.3752 98.1413 74.3299 99.056 73.5086 100.288C72.6872 101.52 72.2766 103.088 72.2766 104.992H67.1806C67.1806 102.08 67.8339 99.672 69.1406 97.768C70.4846 95.8267 72.1832 94.3893 74.2366 93.456C76.3272 92.4853 78.5112 92 80.7886 92C83.1032 92 85.2686 92.4667 87.2846 93.4C89.3379 94.296 90.9992 95.6027 92.2686 97.32C93.5379 99 94.1726 101.016 94.1726 103.368C94.1726 105.608 93.6126 107.512 92.4926 109.08C91.3726 110.611 89.9539 111.712 88.2366 112.384V112.664C90.2152 113.336 91.8392 114.475 93.1086 116.08C94.3779 117.685 95.0126 119.701 95.0126 122.128C95.0126 124.704 94.3406 126.925 92.9966 128.792C91.6526 130.659 89.8979 132.096 87.7326 133.104C85.5672 134.075 83.2152 134.56 80.6766 134.56ZM107.453 134.56C106.408 134.56 105.531 134.205 104.821 133.496C104.149 132.749 103.813 131.891 103.813 130.92C103.813 129.912 104.149 129.053 104.821 128.344C105.531 127.635 106.408 127.28 107.453 127.28C108.499 127.28 109.357 127.635 110.029 128.344C110.739 129.053 111.093 129.912 111.093 130.92C111.093 131.928 110.739 132.787 110.029 133.496C109.357 134.205 108.499 134.56 107.453 134.56ZM133.221 134.56C130.309 134.56 127.77 134.037 125.605 132.992C123.477 131.909 121.815 130.472 120.621 128.68C119.426 126.851 118.829 124.797 118.829 122.52C118.829 120.504 119.183 118.843 119.893 117.536C120.602 116.192 121.423 115.128 122.357 114.344C123.327 113.523 124.167 112.944 124.877 112.608C125.586 112.272 125.941 112.104 125.941 112.104V111.824C125.941 111.824 125.642 111.693 125.045 111.432C124.447 111.133 123.738 110.648 122.917 109.976C122.133 109.304 121.442 108.408 120.845 107.288C120.247 106.168 119.949 104.787 119.949 103.144C119.949 101.016 120.49 99.112 121.573 97.432C122.655 95.752 124.186 94.4267 126.165 93.456C128.181 92.4853 130.533 92 133.221 92C135.909 92 138.242 92.4853 140.221 93.456C142.237 94.4267 143.786 95.752 144.869 97.432C145.951 99.112 146.493 101.016 146.493 103.144C146.493 104.787 146.194 106.168 145.597 107.288C144.999 108.408 144.29 109.304 143.469 109.976C142.685 110.648 141.994 111.133 141.397 111.432C140.799 111.693 140.501 111.824 140.501 111.824V112.104C140.501 112.104 140.855 112.272 141.565 112.608C142.274 112.944 143.095 113.523 144.029 114.344C144.999 115.128 145.839 116.192 146.549 117.536C147.258 118.843 147.613 120.504 147.613 122.52C147.613 124.797 147.015 126.851 145.821 128.68C144.626 130.472 142.946 131.909 140.781 132.992C138.653 134.037 136.133 134.56 133.221 134.56ZM133.221 109.976C135.013 109.976 136.506 109.64 137.701 108.968C138.895 108.296 139.791 107.437 140.389 106.392C140.986 105.347 141.285 104.283 141.285 103.2C141.285 102.043 140.986 100.941 140.389 99.896C139.791 98.8507 138.895 98.0107 137.701 97.376C136.506 96.704 135.013 96.368 133.221 96.368C131.466 96.368 129.973 96.704 128.741 97.376C127.546 98.0107 126.65 98.8507 126.053 99.896C125.455 100.941 125.157 102.043 125.157 103.2C125.157 104.283 125.455 105.347 126.053 106.392C126.65 107.437 127.546 108.296 128.741 108.968C129.973 109.64 131.466 109.976 133.221 109.976ZM133.221 130.136C135.237 130.136 136.917 129.744 138.261 128.96C139.642 128.176 140.669 127.168 141.341 125.936C142.05 124.667 142.405 123.36 142.405 122.016C142.405 120.709 142.069 119.477 141.397 118.32C140.725 117.125 139.698 116.155 138.317 115.408C136.973 114.624 135.274 114.232 133.221 114.232C131.167 114.232 129.45 114.624 128.069 115.408C126.725 116.155 125.717 117.125 125.045 118.32C124.373 119.477 124.037 120.709 124.037 122.016C124.037 123.36 124.373 124.667 125.045 125.936C125.754 127.168 126.781 128.176 128.125 128.96C129.506 129.744 131.205 130.136 133.221 130.136ZM174.313 134V124.368L154.041 124.312V119.328L173.081 92.56H179.801V119.608H187.025V124.368H179.801V134H174.313ZM159.697 119.608H174.313V99L159.697 119.608Z" fill="white"/>
<path d="M197.04 130V107.2H201.6V120.34L206.85 114.1H212.04L205.8 121.36L212.31 130H206.94L201.6 122.86V130H197.04ZM218.733 130L213.213 107.8H217.833L221.763 123.91L225.873 107.8H230.583L234.693 123.88L238.593 107.8H243.243L237.693 130H231.813L228.213 115.87L224.643 130H218.733ZM246.112 130V107.2H250.672V116.38H250.822C251.002 116.06 251.262 115.7 251.602 115.3C251.962 114.9 252.432 114.55 253.012 114.25C253.612 113.95 254.372 113.8 255.292 113.8C256.532 113.8 257.542 114.09 258.322 114.67C259.102 115.23 259.672 115.96 260.032 116.86C260.392 117.74 260.572 118.67 260.572 119.65V130H256.012V120.43C256.012 119.67 255.802 119 255.382 118.42C254.982 117.84 254.332 117.55 253.432 117.55C252.752 117.55 252.212 117.71 251.812 118.03C251.412 118.35 251.122 118.76 250.942 119.26C250.762 119.76 250.672 120.29 250.672 120.85V130H246.112Z" fill="white"/>
</svg>
