<svg width="40" height="60" viewBox="0 0 40 60" fill="none" xmlns="http://www.w3.org/2000/svg">
<g id="Frame 14">
<path id="Vector" d="M39.0172 30.3161C39.0172 26.2481 35.898 22.936 32.0253 22.8123C32.5672 21.754 32.8844 20.5446 32.8844 19.2665C32.8844 15.1985 29.752 11.8864 25.8661 11.7627C26.4212 10.6907 26.7384 9.48133 26.7384 8.17573C26.7384 4.02527 23.487 0.658173 19.5086 0.658173C15.5302 0.658173 12.2788 4.03901 12.2788 8.17573C12.2788 9.46759 12.596 10.6907 13.1511 11.7627C9.26527 11.8864 6.13279 15.1985 6.13279 19.2665C6.13279 20.5446 6.45 21.754 6.99191 22.8123C3.11926 22.9497 0 26.2618 0 30.3161C0 34.3703 3.11926 37.6962 7.00513 37.8199C6.45 38.8781 6.13279 40.1013 6.13279 41.3931C6.13279 45.4611 9.25205 48.7733 13.1247 48.897C12.5828 49.9552 12.2656 51.1646 12.2656 52.4427C12.2656 56.5932 15.517 59.9603 19.4954 59.9603C23.4738 59.9603 26.7252 56.5794 26.7252 52.4427C26.7252 51.1646 26.408 49.9552 25.8661 48.897C29.7387 48.7595 32.858 45.4474 32.858 41.3931C32.858 40.1013 32.5408 38.8781 31.9857 37.8199C35.8715 37.6962 38.9908 34.3841 38.9908 30.3161H39.0172ZM25.6414 14.0166C28.417 14.0166 30.6772 16.3667 30.6772 19.2528C30.6772 22.1389 28.417 24.489 25.6414 24.489C22.8658 24.489 20.6056 22.1389 20.6056 19.2528C20.6056 16.3667 22.8658 14.0166 25.6414 14.0166ZM19.5086 2.92581C22.2842 2.92581 24.5444 5.2759 24.5444 8.16198C24.5444 11.0481 22.2842 13.3982 19.5086 13.3982C16.733 13.3982 14.4729 11.0481 14.4729 8.16198C14.4729 5.2759 16.733 2.92581 19.5086 2.92581ZM13.3758 14.0166C16.1514 14.0166 18.4116 16.3667 18.4116 19.2528C18.4116 22.1389 16.1514 24.489 13.3758 24.489C10.6002 24.489 8.34007 22.1389 8.34007 19.2528C8.34007 16.3667 10.6002 14.0166 13.3758 14.0166ZM7.22982 35.566C4.4542 35.566 2.19406 33.2159 2.19406 30.3298C2.19406 27.4438 4.4542 25.0937 7.22982 25.0937C10.0054 25.0937 12.2656 27.4438 12.2656 30.3298C12.2656 33.2159 10.0054 35.566 7.22982 35.566ZM13.3758 46.6431C10.6002 46.6431 8.34007 44.293 8.34007 41.4069C8.34007 38.5208 10.6002 36.1707 13.3758 36.1707C16.1514 36.1707 18.4116 38.5208 18.4116 41.4069C18.4116 44.293 16.1514 46.6431 13.3758 46.6431ZM19.5086 57.7064C16.733 57.7064 14.4729 55.3563 14.4729 52.4702C14.4729 49.5841 16.733 47.234 19.5086 47.234C22.2842 47.234 24.5444 49.5841 24.5444 52.4702C24.5444 55.3563 22.2842 57.7064 19.5086 57.7064ZM25.6414 46.6431C22.8658 46.6431 20.6056 44.293 20.6056 41.4069C20.6056 38.5208 22.8658 36.1707 25.6414 36.1707C28.417 36.1707 30.6772 38.5208 30.6772 41.4069C30.6772 44.293 28.417 46.6431 25.6414 46.6431ZM31.7874 35.566C30.3996 35.566 29.144 34.975 28.232 34.0405H24.4915C23.4738 35.511 21.8745 36.5143 20.0373 36.6792C19.839 36.9266 19.6672 37.1877 19.5086 37.4488C19.35 37.174 19.165 36.9266 18.9799 36.6792C17.1295 36.5143 15.5038 35.4973 14.4993 33.9993C14.2085 33.958 13.9045 33.9168 13.6005 33.9168C13.7459 33.642 13.8649 33.3671 13.9706 33.0785C13.5873 32.2539 13.3758 31.3193 13.3758 30.3436C13.3758 29.3678 13.6005 28.4333 13.9706 27.6087C13.8649 27.3338 13.7459 27.0589 13.6137 26.7978C13.9045 26.7978 14.1953 26.7566 14.4729 26.7154C15.4906 25.1899 17.1295 24.1591 19.0064 23.9942C19.1914 23.7606 19.3632 23.5132 19.5086 23.2521C19.6672 23.5132 19.839 23.7606 20.0109 23.9942C21.8745 24.1591 23.487 25.1761 24.5179 26.6741H28.1923C29.1043 25.7121 30.3732 25.1074 31.7742 25.1074C34.5498 25.1074 36.81 27.4575 36.81 30.3436C36.81 33.2297 34.5498 35.5798 31.7742 35.5798L31.7874 35.566Z" fill="#609693"/>
<path id="Vector_2" d="M28.2317 34.0268H28.2185C28.1128 33.5732 27.333 33.2296 26.3681 33.2296C25.4033 33.2296 24.6234 33.5732 24.5177 34.0268H24.4913C23.381 35.6347 21.5571 36.6929 19.5084 36.6929C16.1248 36.6929 13.3756 33.8344 13.3756 30.3161C13.3756 26.7978 16.1248 23.9392 19.5084 23.9392C21.5835 23.9392 23.4075 25.0112 24.5177 26.6466C24.6499 27.0727 25.4165 27.4025 26.3681 27.4025C27.3198 27.4025 28.0864 27.0727 28.2185 26.6466H28.245C28.245 26.6466 28.2317 26.6191 28.2185 26.5917C28.2185 26.5642 28.2317 26.5367 28.2317 26.5229C28.2317 26.3718 28.1392 26.2343 28.0071 26.1107C26.4871 22.8123 23.2489 20.5172 19.4952 20.5172C14.3008 20.5172 10.0713 24.915 10.0713 30.3161C10.0713 35.7172 14.3008 40.115 19.4952 40.115C23.2356 40.115 26.4606 37.8336 27.9806 34.549C28.126 34.4253 28.2185 34.2741 28.2185 34.123C28.2185 34.0955 28.2185 34.068 28.2053 34.0405C28.2053 34.0405 28.2053 34.0268 28.2053 34.013L28.2317 34.0268Z" fill="white"/>
</g>
</svg>
