<svg width="214" height="60" viewBox="0 0 214 60" fill="none" xmlns="http://www.w3.org/2000/svg">
<g id="Layer_1" clip-path="url(#clip0_81_284)">
<path id="Vector" d="M190.064 21.8777C188.623 21.1219 187.05 20.6271 185.372 20.6271C183.693 20.6271 182.12 20.9982 180.68 21.8777C179.239 22.6336 178.155 23.7606 177.309 25.2586C176.463 26.7566 176.106 28.5157 176.106 30.3848C176.106 32.2539 176.463 34.1367 177.309 35.511C178.155 37.0091 179.239 38.136 180.561 39.0156C182.001 39.8951 183.455 40.2662 185.253 40.2662C187.05 40.2662 188.623 39.8951 189.945 39.0156C191.386 38.136 192.469 37.0091 193.315 35.511C194.161 34.013 194.518 32.2539 194.518 30.3848C194.518 28.5157 194.161 26.6329 193.315 25.2586C192.588 23.8843 191.505 22.7573 190.064 21.8777ZM190.672 34.3978C190.064 35.4011 189.35 36.2807 188.385 36.7754C187.42 37.2702 186.456 37.5313 185.253 37.5313C184.05 37.5313 183.204 37.2839 182.239 36.7754C181.274 36.2807 180.561 35.5248 180.072 34.3978C179.596 33.3946 179.226 32.0203 179.226 30.5222C179.226 29.0242 179.464 27.7736 180.072 26.6466C180.68 25.5197 181.393 24.7638 182.239 24.2691C183.085 23.7743 184.169 23.5132 185.253 23.5132C186.337 23.5132 187.42 23.7606 188.266 24.2691C189.112 24.7776 189.945 25.5197 190.553 26.6466C191.161 27.7736 191.399 29.0242 191.399 30.5222C191.399 32.0203 191.28 33.3946 190.672 34.3978Z" fill="white"/>
<path id="Vector_2" d="M105.024 21.9465C103.821 22.7023 102.738 23.8293 102.011 25.3273C101.284 26.8253 100.927 28.5845 100.927 30.4535C100.927 32.3364 101.284 34.0818 102.011 35.5798C102.738 37.0778 103.821 38.2047 105.143 39.0843C106.465 39.9639 108.038 40.3349 109.597 40.3349C111.157 40.3349 112.492 39.9639 113.695 39.208C114.897 38.4521 115.743 37.5863 116.338 36.4593V38.7132C116.338 39.5928 117.065 40.3349 117.898 40.3349C118.73 40.3349 119.457 39.5791 119.457 38.7132V15.9407C119.457 15.0611 118.73 14.319 117.898 14.319C117.065 14.319 116.338 15.0748 116.338 15.9407V24.5714C115.73 23.4445 114.778 22.5649 113.576 21.8228C112.373 21.0669 111.051 20.6958 109.478 20.6958C107.8 20.6958 106.346 21.1906 105.024 21.9465ZM104.786 34.2054C104.178 33.2022 103.94 31.7042 103.94 30.3298C103.94 28.9555 104.178 27.7049 104.786 26.5779C105.394 25.5747 106.108 24.6951 107.073 24.2004C108.038 23.5682 109.002 23.3208 110.205 23.3208C111.408 23.3208 112.373 23.5682 113.338 24.2004C114.303 24.8326 115.016 25.5747 115.624 26.7016C116.232 27.8286 116.47 29.0792 116.47 30.4535C116.47 31.8279 116.232 33.0785 115.624 34.2054C115.016 35.3324 114.303 36.0883 113.338 36.7067C112.373 37.3252 111.408 37.5863 110.205 37.5863C109.002 37.5863 108.038 37.3389 107.073 36.7067C106.108 36.0745 105.394 35.3324 104.786 34.2054Z" fill="white"/>
<path id="Vector_3" d="M206.546 20.6271C205.343 20.6271 204.14 20.8745 203.175 21.383C202.21 21.8915 201.364 22.6336 200.77 23.6369V22.2626C200.77 21.383 200.043 20.6408 199.21 20.6408C198.377 20.6408 197.65 21.3967 197.65 22.2626V38.6582C197.65 39.5378 198.377 40.2799 199.21 40.2799C200.043 40.2799 200.77 39.5241 200.77 38.6582V29.3953C200.77 27.3888 201.245 25.8908 202.21 24.8875C203.175 23.8843 204.378 23.3895 206.057 23.3895C207.735 23.3895 208.951 23.8843 209.784 24.8875C210.63 25.8908 211.106 27.3888 211.106 29.2716V38.7819C211.106 39.6615 211.832 40.2799 212.546 40.2799C213.26 40.2799 213.987 39.5241 213.987 38.7819V28.9005C213.987 26.2756 213.26 24.2691 211.938 22.8947C210.616 21.5204 208.687 20.6408 206.519 20.6408L206.546 20.6271Z" fill="white"/>
<path id="Vector_4" d="M99.4858 20.7371C98.0451 20.7371 96.8424 20.9844 95.8775 21.6166C94.9127 22.2488 94.1989 22.991 93.5909 24.1179V22.3725C93.5909 21.4929 92.864 20.7508 92.0313 20.7508C91.1986 20.7508 90.4717 21.5067 90.4717 22.3725V38.7682C90.4717 39.6478 91.1986 40.3899 92.0313 40.3899C92.864 40.3899 93.5909 39.634 93.5909 38.7682V29.7526C93.5909 25.877 95.2695 23.9942 98.6399 23.9942H99.3669C100.213 23.9942 100.927 23.2383 100.927 22.3725C100.927 21.5067 100.319 20.7508 99.4858 20.7508V20.7371Z" fill="white"/>
<path id="Vector_5" d="M85.7271 20.8607C84.8812 20.8607 84.1674 21.6166 84.1674 22.4825V24.6127C83.5594 23.4857 82.7268 22.6061 81.524 21.864C80.3212 21.1219 78.9995 20.7371 77.3077 20.7371C75.6159 20.7371 74.1752 21.1081 72.8535 21.9877C71.5318 22.7436 70.448 23.9942 69.721 25.3685C68.9941 26.8665 68.6372 28.502 68.6372 30.4948C68.6372 32.4875 68.9941 34.123 69.721 35.621C70.448 37.119 71.5318 38.246 72.8535 39.1255C74.1752 40.0051 75.6159 40.3762 77.3077 40.3762C78.9995 40.3762 80.3212 40.0051 81.405 39.2492C82.6078 38.4933 83.4537 37.6275 84.0485 36.5006V38.7544C84.0485 39.634 84.7754 40.3762 85.6081 40.3762C86.4408 40.3762 87.1677 39.6203 87.1677 38.7544V22.4825C87.2867 21.6029 86.5598 20.8607 85.7271 20.8607ZM83.4405 34.3841C82.8325 35.511 82.1188 36.2669 81.1539 36.8854C80.1891 37.5176 79.2242 37.7649 78.0214 37.7649C76.8187 37.7649 75.8538 37.5176 74.889 36.8854C73.9241 36.2532 73.2104 35.511 72.6024 34.3841C71.9944 33.2572 71.7565 32.0065 71.7565 30.6322C71.7565 29.1342 71.9944 28.0072 72.6024 26.8803C73.2104 25.7533 73.9241 24.9975 74.889 24.5027C75.8538 24.008 76.8187 23.6231 78.0214 23.6231C79.2242 23.6231 80.1891 23.8705 81.1539 24.5027C82.1188 25.1349 82.8325 25.877 83.4405 27.004C84.0485 28.0072 84.2864 29.2579 84.2864 30.7559C84.2864 32.2539 83.9295 33.3808 83.4405 34.3841Z" fill="white"/>
<path id="Vector_6" d="M139.138 20.7508C138.292 20.7508 137.578 21.5067 137.578 22.3725V24.5027C136.97 23.3758 136.137 22.4962 134.935 21.7541C133.732 21.0119 132.41 20.6271 130.718 20.6271C129.027 20.6271 127.586 20.9982 126.264 21.8777C124.942 22.6336 123.859 23.8843 123.132 25.2586C122.405 26.7566 122.048 28.392 122.048 30.3848C122.048 32.3776 122.405 34.013 123.132 35.511C123.859 37.0091 124.942 38.136 126.264 39.0156C127.586 39.8951 129.027 40.2662 130.718 40.2662C132.41 40.2662 133.732 39.8951 134.816 39.1393C136.018 38.3834 136.864 37.5176 137.459 36.3906V38.6445C137.459 39.5241 138.186 40.2662 139.019 40.2662C139.851 40.2662 140.578 39.5103 140.578 38.6445V22.3725C140.697 21.4929 139.97 20.7508 139.138 20.7508ZM136.851 34.2741C136.243 35.4011 135.529 36.157 134.565 36.7754C133.6 37.4076 132.635 37.655 131.432 37.655C130.229 37.655 129.264 37.4076 128.3 36.7754C127.335 36.1432 126.621 35.4011 126.013 34.2741C125.405 33.1472 125.167 31.8966 125.167 30.5222C125.167 29.0242 125.405 27.8973 126.013 26.7703C126.621 25.6434 127.335 24.8875 128.3 24.3928C129.264 23.898 130.229 23.5132 131.432 23.5132C132.635 23.5132 133.6 23.7606 134.565 24.3928C135.529 25.0249 136.243 25.7671 136.851 26.894C137.459 27.8973 137.697 29.1479 137.697 30.6459C137.697 32.1439 137.34 33.2709 136.851 34.2741Z" fill="white"/>
<g id="Group">
<path id="Vector_7" d="M152.791 20.6271C151.588 20.6271 150.386 20.8745 149.421 21.383C148.456 21.8915 147.61 22.6336 147.015 23.6369V22.2626C147.015 21.383 146.288 20.6408 145.456 20.6408C144.623 20.6408 143.896 21.3967 143.896 22.2626V38.6582C143.896 39.5378 144.623 40.2799 145.456 40.2799C146.288 40.2799 147.015 39.5241 147.015 38.6582V29.3953C147.015 27.3888 147.491 25.8908 148.456 24.8875C149.421 23.8843 150.624 23.3895 152.302 23.3895C153.981 23.3895 155.197 23.8843 156.029 24.8875C156.862 25.8908 157.351 27.3888 157.351 29.2716V38.7819C157.351 39.6615 158.078 40.2799 158.792 40.2799C159.506 40.2799 160.232 39.5241 160.232 38.7819V28.9005C160.232 26.2756 159.506 24.2691 158.184 22.8947C156.862 21.5204 154.932 20.6408 152.765 20.6408L152.791 20.6271Z" fill="white"/>
<path id="Vector_8" d="M157.232 22.2625V38.6582C157.232 39.5378 157.959 40.2799 158.792 40.2799C159.624 40.2799 160.351 39.5241 160.351 38.6582V29.3953C160.351 27.3888 160.827 25.8908 161.792 24.8875C162.757 23.8842 163.959 23.3895 165.638 23.3895C167.317 23.3895 168.533 23.8842 169.365 24.8875C170.198 25.8908 170.687 27.3888 170.687 29.2716V38.7819C170.687 39.6615 171.414 40.2799 172.128 40.2799C172.841 40.2799 173.568 39.5241 173.568 38.7819V28.9005C173.568 26.2756 172.841 24.2691 171.52 22.8947C170.198 21.5204 168.268 20.6408 166.101 20.6408C164.898 20.6408 163.695 20.8882 162.73 21.3967C161.765 21.9052 160.92 22.6474 160.325 23.6506L159.386 25.2311" fill="white"/>
</g>
<path id="Vector_9" d="M39.0172 30.3161C39.0172 26.2481 35.898 22.936 32.0253 22.8123C32.5672 21.754 32.8844 20.5446 32.8844 19.2665C32.8844 15.1985 29.752 11.8864 25.8661 11.7627C26.4212 10.6907 26.7384 9.48133 26.7384 8.17573C26.7384 4.02527 23.487 0.658173 19.5086 0.658173C15.5302 0.658173 12.2788 4.03901 12.2788 8.17573C12.2788 9.46759 12.596 10.6907 13.1511 11.7627C9.26527 11.8864 6.13279 15.1985 6.13279 19.2665C6.13279 20.5446 6.45 21.754 6.99191 22.8123C3.11926 22.9497 0 26.2618 0 30.3161C0 34.3703 3.11926 37.6962 7.00513 37.8199C6.45 38.8781 6.13279 40.1013 6.13279 41.3931C6.13279 45.4611 9.25205 48.7733 13.1247 48.897C12.5828 49.9552 12.2656 51.1646 12.2656 52.4427C12.2656 56.5932 15.517 59.9603 19.4954 59.9603C23.4738 59.9603 26.7252 56.5794 26.7252 52.4427C26.7252 51.1646 26.408 49.9552 25.8661 48.897C29.7387 48.7595 32.858 45.4474 32.858 41.3931C32.858 40.1013 32.5408 38.8781 31.9857 37.8199C35.8715 37.6962 38.9908 34.3841 38.9908 30.3161H39.0172ZM25.6414 14.0166C28.417 14.0166 30.6772 16.3667 30.6772 19.2528C30.6772 22.1389 28.417 24.489 25.6414 24.489C22.8658 24.489 20.6056 22.1389 20.6056 19.2528C20.6056 16.3667 22.8658 14.0166 25.6414 14.0166ZM19.5086 2.92581C22.2842 2.92581 24.5444 5.2759 24.5444 8.16198C24.5444 11.0481 22.2842 13.3982 19.5086 13.3982C16.733 13.3982 14.4729 11.0481 14.4729 8.16198C14.4729 5.2759 16.733 2.92581 19.5086 2.92581ZM13.3758 14.0166C16.1514 14.0166 18.4116 16.3667 18.4116 19.2528C18.4116 22.1389 16.1514 24.489 13.3758 24.489C10.6002 24.489 8.34007 22.1389 8.34007 19.2528C8.34007 16.3667 10.6002 14.0166 13.3758 14.0166ZM7.22982 35.566C4.4542 35.566 2.19406 33.2159 2.19406 30.3298C2.19406 27.4438 4.4542 25.0937 7.22982 25.0937C10.0054 25.0937 12.2656 27.4438 12.2656 30.3298C12.2656 33.2159 10.0054 35.566 7.22982 35.566ZM13.3758 46.6431C10.6002 46.6431 8.34007 44.293 8.34007 41.4069C8.34007 38.5208 10.6002 36.1707 13.3758 36.1707C16.1514 36.1707 18.4116 38.5208 18.4116 41.4069C18.4116 44.293 16.1514 46.6431 13.3758 46.6431ZM19.5086 57.7064C16.733 57.7064 14.4729 55.3563 14.4729 52.4702C14.4729 49.5841 16.733 47.234 19.5086 47.234C22.2842 47.234 24.5444 49.5841 24.5444 52.4702C24.5444 55.3563 22.2842 57.7064 19.5086 57.7064ZM25.6414 46.6431C22.8658 46.6431 20.6056 44.293 20.6056 41.4069C20.6056 38.5208 22.8658 36.1707 25.6414 36.1707C28.417 36.1707 30.6772 38.5208 30.6772 41.4069C30.6772 44.293 28.417 46.6431 25.6414 46.6431ZM31.7874 35.566C30.3996 35.566 29.144 34.975 28.232 34.0405H24.4915C23.4738 35.511 21.8745 36.5143 20.0373 36.6792C19.839 36.9266 19.6672 37.1877 19.5086 37.4488C19.35 37.174 19.165 36.9266 18.9799 36.6792C17.1295 36.5143 15.5038 35.4973 14.4993 33.9993C14.2085 33.958 13.9045 33.9168 13.6005 33.9168C13.7459 33.642 13.8649 33.3671 13.9706 33.0785C13.5873 32.2539 13.3758 31.3193 13.3758 30.3436C13.3758 29.3678 13.6005 28.4333 13.9706 27.6087C13.8649 27.3338 13.7459 27.0589 13.6137 26.7978C13.9045 26.7978 14.1953 26.7566 14.4729 26.7154C15.4906 25.1899 17.1295 24.1591 19.0064 23.9942C19.1914 23.7606 19.3632 23.5132 19.5086 23.2521C19.6672 23.5132 19.839 23.7606 20.0109 23.9942C21.8745 24.1591 23.487 25.1761 24.5179 26.6741H28.1923C29.1043 25.7121 30.3732 25.1074 31.7742 25.1074C34.5498 25.1074 36.81 27.4575 36.81 30.3436C36.81 33.2297 34.5498 35.5798 31.7742 35.5798L31.7874 35.566Z" fill="#609693"/>
<path id="Vector_10" d="M28.2317 34.0268H28.2185C28.1128 33.5732 27.333 33.2296 26.3681 33.2296C25.4033 33.2296 24.6234 33.5732 24.5177 34.0268H24.4913C23.381 35.6347 21.5571 36.6929 19.5084 36.6929C16.1248 36.6929 13.3756 33.8344 13.3756 30.3161C13.3756 26.7978 16.1248 23.9392 19.5084 23.9392C21.5835 23.9392 23.4075 25.0112 24.5177 26.6466C24.6499 27.0727 25.4165 27.4025 26.3681 27.4025C27.3198 27.4025 28.0864 27.0727 28.2185 26.6466H28.245C28.245 26.6466 28.2317 26.6191 28.2185 26.5917C28.2185 26.5642 28.2317 26.5367 28.2317 26.5229C28.2317 26.3718 28.1392 26.2343 28.0071 26.1107C26.4871 22.8123 23.2489 20.5172 19.4952 20.5172C14.3008 20.5172 10.0713 24.915 10.0713 30.3161C10.0713 35.7172 14.3008 40.115 19.4952 40.115C23.2356 40.115 26.4606 37.8336 27.9806 34.549C28.126 34.4253 28.2185 34.2741 28.2185 34.123C28.2185 34.0955 28.2185 34.068 28.2053 34.0405C28.2053 34.0405 28.2053 34.0268 28.2053 34.013L28.2317 34.0268Z" fill="white"/>
<path id="Vector_11" d="M65.6101 34.0955H65.5969C65.4912 33.642 64.6981 33.2846 63.7069 33.2846C62.7156 33.2846 61.9225 33.642 61.8168 34.0955H61.7904C60.6537 35.7447 58.8033 36.8167 56.7149 36.8167C53.2652 36.8167 50.4632 33.9031 50.4632 30.3161C50.4632 26.7291 53.2652 23.8156 56.7149 23.8156C58.8297 23.8156 60.6801 24.9013 61.8168 26.5642C61.949 27.004 62.7288 27.3338 63.6936 27.3338C64.6585 27.3338 65.4383 27.004 65.5705 26.5642H65.5969C65.5969 26.5642 65.5837 26.5367 65.5705 26.5092C65.5705 26.4817 65.5837 26.4543 65.5837 26.4405C65.5837 26.2893 65.4912 26.1519 65.359 26.0282C63.8126 22.6611 60.5083 20.3248 56.6885 20.3248C51.3884 20.3248 47.0796 24.8051 47.0796 30.3161C47.0796 35.8271 51.3884 40.3074 56.6885 40.3074C60.4951 40.3074 63.7862 37.9848 65.3458 34.6452C65.4912 34.5078 65.5837 34.3704 65.5837 34.2054C65.5837 34.178 65.5837 34.1505 65.5705 34.123C65.5705 34.123 65.5705 34.1092 65.5705 34.0955H65.6101Z" fill="white"/>
</g>
<defs>
<clipPath id="clip0_81_284">
<rect width="214" height="59.3433" fill="white" transform="translate(0 0.64444)"/>
</clipPath>
</defs>
</svg>
